<?xml version="1.0" encoding="UTF-8" standalone="no"?><!DOCTYPE svg PUBLIC "-//W3C//DTD SVG 1.1//EN" "http://www.w3.org/Graphics/SVG/1.1/DTD/svg11.dtd"><svg width="100%" height="100%" viewBox="0 0 2730 2756" version="1.1" xmlns="http://www.w3.org/2000/svg" xmlns:xlink="http://www.w3.org/1999/xlink" xml:space="preserve" xmlns:serif="http://www.serif.com/" style="fill-rule:evenodd;clip-rule:evenodd;stroke-linejoin:round;stroke-miterlimit:2;"><rect id="Página-5" serif:id="Página 5" x="-301.729" y="-288.702" width="3333.33" height="3333.33" style="fill:none;"/><g id="Badges-2022" serif:id="Badges 2022"><path d="M1364.94,148.154c-670.934,0 -1216.78,551.688 -1216.78,1229.81c0,678.125 545.85,1229.81 1216.78,1229.81c670.933,0 1216.78,-551.688 1216.78,-1229.81c-0,-678.121 -545.85,-1229.81 -1216.78,-1229.81m0,2607.78c-364.729,0 -707.587,-143.425 -965.416,-403.858c-257.638,-260.233 -399.521,-606.175 -399.521,-974.108c-0,-367.925 141.883,-713.871 399.521,-974.105c257.829,-260.433 600.687,-403.858 965.416,-403.858c364.73,0 707.588,143.425 965.417,403.858c257.638,260.234 399.521,606.18 399.521,974.105c-0,367.933 -141.883,713.875 -399.521,974.108c-257.829,260.433 -600.687,403.858 -965.417,403.858" style="fill:#00c1df;fill-rule:nonzero;"/><path d="M2586.93,1377.96c-0,681.7 -547.109,1234.33 -1222,1234.33c-674.892,-0 -1222,-552.629 -1222,-1234.33c0,-681.7 547.104,-1234.33 1222,-1234.33c674.887,0 1222,552.63 1222,1234.33" style="fill:#fff;fill-rule:nonzero;"/><path d="M2635.63,1377.96c-0,125.925 -19.45,247.391 -55.455,361.85l-2430.47,-0c-36.005,-114.459 -55.455,-235.925 -55.455,-361.85c0,-125.925 19.45,-247.392 55.455,-361.85l2430.47,-0c36.005,114.458 55.455,235.925 55.455,361.85" style="fill:#00c1df;fill-rule:nonzero;"/><g transform="matrix(4.16667,0,0,4.16667,-482.322,-329.405)"><g transform="matrix(60,0,0,60,292.742,390.699)"><path d="M0.141,0.008c-0.021,-0 -0.037,-0.006 -0.048,-0.018c-0.011,-0.011 -0.016,-0.027 -0.016,-0.048l-0,-0.589c-0,-0.021 0.005,-0.038 0.016,-0.049c0.011,-0.011 0.027,-0.017 0.048,-0.017c0.021,0 0.036,0.006 0.047,0.017c0.012,0.011 0.017,0.028 0.017,0.049l-0,0.589c-0,0.021 -0.005,0.037 -0.016,0.049c-0.011,0.011 -0.027,0.017 -0.048,0.017Z" style="fill:#fff;fill-rule:nonzero;"/></g><g transform="matrix(60,0,0,60,309.662,390.699)"><path d="M0.127,0.008c-0.02,-0 -0.035,-0.006 -0.046,-0.017c-0.011,-0.01 -0.016,-0.026 -0.016,-0.047l0,-0.378c0,-0.021 0.005,-0.036 0.016,-0.047c0.011,-0.011 0.026,-0.016 0.045,-0.016c0.019,0 0.034,0.005 0.045,0.016c0.011,0.011 0.016,0.026 0.016,0.047l0,0.068l-0.011,-0.025c0.015,-0.035 0.038,-0.062 0.069,-0.08c0.031,-0.019 0.066,-0.028 0.105,-0.028c0.039,0 0.072,0.007 0.097,0.022c0.025,0.015 0.044,0.037 0.057,0.067c0.013,0.029 0.019,0.067 0.019,0.112l0,0.242c0,0.021 -0.005,0.037 -0.016,0.048c-0.011,0.01 -0.026,0.016 -0.046,0.016c-0.02,-0 -0.036,-0.006 -0.047,-0.016c-0.011,-0.011 -0.016,-0.027 -0.016,-0.048l0,-0.236c0,-0.038 -0.007,-0.066 -0.022,-0.083c-0.014,-0.017 -0.036,-0.026 -0.066,-0.026c-0.037,0 -0.066,0.012 -0.087,0.035c-0.022,0.023 -0.033,0.053 -0.033,0.091l0,0.219c0,0.043 -0.021,0.064 -0.063,0.064Z" style="fill:#fff;fill-rule:nonzero;"/></g><g transform="matrix(60,0,0,60,344.762,390.699)"><path d="M0.127,0.008c-0.02,-0 -0.035,-0.006 -0.046,-0.017c-0.011,-0.01 -0.016,-0.026 -0.016,-0.047l0,-0.378c0,-0.021 0.005,-0.036 0.016,-0.047c0.011,-0.011 0.026,-0.016 0.045,-0.016c0.019,0 0.034,0.005 0.045,0.016c0.011,0.011 0.016,0.026 0.016,0.047l0,0.068l-0.011,-0.025c0.015,-0.035 0.038,-0.062 0.069,-0.08c0.031,-0.019 0.066,-0.028 0.105,-0.028c0.039,0 0.072,0.007 0.097,0.022c0.025,0.015 0.044,0.037 0.057,0.067c0.013,0.029 0.019,0.067 0.019,0.112l0,0.242c0,0.021 -0.005,0.037 -0.016,0.048c-0.011,0.01 -0.026,0.016 -0.046,0.016c-0.02,-0 -0.036,-0.006 -0.047,-0.016c-0.011,-0.011 -0.016,-0.027 -0.016,-0.048l0,-0.236c0,-0.038 -0.007,-0.066 -0.022,-0.083c-0.014,-0.017 -0.036,-0.026 -0.066,-0.026c-0.037,0 -0.066,0.012 -0.087,0.035c-0.022,0.023 -0.033,0.053 -0.033,0.091l0,0.219c0,0.043 -0.021,0.064 -0.063,0.064Z" style="fill:#fff;fill-rule:nonzero;"/></g><g transform="matrix(60,0,0,60,379.862,390.699)"><path d="M0.288,0.01c-0.051,-0 -0.095,-0.01 -0.132,-0.031c-0.037,-0.021 -0.066,-0.05 -0.087,-0.089c-0.021,-0.038 -0.031,-0.083 -0.031,-0.135c-0,-0.039 0.006,-0.075 0.017,-0.105c0.012,-0.032 0.029,-0.058 0.051,-0.081c0.022,-0.022 0.048,-0.039 0.079,-0.05c0.031,-0.012 0.065,-0.018 0.103,-0.018c0.051,0 0.095,0.01 0.132,0.031c0.037,0.021 0.066,0.05 0.087,0.088c0.021,0.038 0.031,0.083 0.031,0.135c0,0.039 -0.006,0.075 -0.018,0.106c-0.011,0.031 -0.028,0.058 -0.05,0.081c-0.022,0.022 -0.048,0.039 -0.079,0.051c-0.031,0.011 -0.065,0.017 -0.103,0.017Zm-0,-0.095c0.025,0 0.046,-0.006 0.065,-0.018c0.019,-0.012 0.033,-0.03 0.043,-0.053c0.011,-0.024 0.016,-0.054 0.016,-0.089c-0,-0.053 -0.011,-0.093 -0.034,-0.119c-0.023,-0.027 -0.053,-0.04 -0.09,-0.04c-0.025,-0 -0.046,0.006 -0.065,0.017c-0.019,0.012 -0.033,0.03 -0.044,0.053c-0.01,0.024 -0.015,0.054 -0.015,0.089c-0,0.053 0.011,0.092 0.034,0.119c0.023,0.027 0.053,0.041 0.09,0.041Z" style="fill:#fff;fill-rule:nonzero;"/></g><g transform="matrix(60,0,0,60,413.822,390.699)"><path d="M0.263,0.008c-0.017,-0 -0.031,-0.004 -0.044,-0.013c-0.012,-0.009 -0.022,-0.022 -0.03,-0.04l-0.159,-0.369c-0.006,-0.015 -0.008,-0.028 -0.007,-0.041c0.002,-0.013 0.008,-0.023 0.018,-0.031c0.011,-0.007 0.025,-0.011 0.043,-0.011c0.015,0 0.028,0.004 0.037,0.011c0.009,0.007 0.018,0.02 0.025,0.039l0.135,0.337l-0.03,-0l0.139,-0.338c0.007,-0.019 0.016,-0.031 0.025,-0.038c0.01,-0.008 0.023,-0.011 0.04,-0.011c0.015,0 0.026,0.004 0.035,0.012c0.009,0.007 0.014,0.017 0.016,0.029c0.002,0.013 -0,0.026 -0.007,0.041l-0.162,0.37c-0.007,0.018 -0.017,0.031 -0.029,0.04c-0.013,0.009 -0.028,0.013 -0.045,0.013Z" style="fill:#fff;fill-rule:nonzero;"/></g><g transform="matrix(60,0,0,60,444.542,390.699)"><path d="M0.226,0.01c-0.035,-0 -0.067,-0.007 -0.095,-0.021c-0.027,-0.013 -0.049,-0.032 -0.065,-0.055c-0.015,-0.023 -0.023,-0.05 -0.023,-0.079c-0,-0.036 0.009,-0.064 0.028,-0.085c0.019,-0.021 0.049,-0.037 0.091,-0.046c0.042,-0.009 0.098,-0.014 0.169,-0.014l0.05,0l0,0.072l-0.049,0c-0.041,0 -0.074,0.002 -0.099,0.006c-0.025,0.004 -0.042,0.011 -0.053,0.021c-0.01,0.009 -0.015,0.023 -0.015,0.04c-0,0.022 0.008,0.04 0.023,0.054c0.015,0.014 0.037,0.021 0.064,0.021c0.022,0 0.041,-0.005 0.058,-0.015c0.018,-0.011 0.031,-0.025 0.041,-0.043c0.01,-0.018 0.015,-0.039 0.015,-0.062l0,-0.115c0,-0.033 -0.007,-0.057 -0.022,-0.072c-0.015,-0.015 -0.039,-0.022 -0.074,-0.022c-0.019,0 -0.04,0.002 -0.062,0.007c-0.023,0.005 -0.046,0.013 -0.071,0.024c-0.013,0.006 -0.024,0.008 -0.033,0.005c-0.01,-0.003 -0.018,-0.008 -0.023,-0.016c-0.005,-0.009 -0.008,-0.018 -0.008,-0.028c0,-0.01 0.003,-0.02 0.008,-0.029c0.005,-0.01 0.014,-0.017 0.027,-0.022c0.031,-0.013 0.06,-0.022 0.089,-0.027c0.028,-0.005 0.054,-0.008 0.077,-0.008c0.048,0 0.088,0.007 0.119,0.022c0.031,0.015 0.054,0.037 0.069,0.067c0.015,0.029 0.023,0.067 0.023,0.114l0,0.24c0,0.021 -0.005,0.037 -0.015,0.048c-0.01,0.01 -0.024,0.016 -0.043,0.016c-0.019,-0 -0.033,-0.006 -0.043,-0.016c-0.011,-0.011 -0.016,-0.027 -0.016,-0.048l0,-0.048l0.008,0c-0.005,0.023 -0.014,0.044 -0.028,0.061c-0.013,0.017 -0.03,0.03 -0.051,0.039c-0.021,0.009 -0.044,0.014 -0.071,0.014Z" style="fill:#fff;fill-rule:nonzero;"/></g><g transform="matrix(60,0,0,60,478.022,390.699)"><path d="M0.289,0.01c-0.043,-0 -0.079,-0.007 -0.108,-0.022c-0.029,-0.015 -0.051,-0.036 -0.065,-0.065c-0.014,-0.028 -0.021,-0.063 -0.021,-0.105l0,-0.213l-0.052,0c-0.016,0 -0.028,-0.004 -0.037,-0.012c-0.009,-0.009 -0.013,-0.02 -0.013,-0.035c0,-0.015 0.004,-0.027 0.013,-0.035c0.009,-0.008 0.021,-0.012 0.037,-0.012l0.052,0l0,-0.091c0,-0.021 0.006,-0.036 0.017,-0.047c0.011,-0.011 0.026,-0.016 0.046,-0.016c0.02,0 0.035,0.005 0.046,0.016c0.011,0.011 0.016,0.026 0.016,0.047l0,0.091l0.106,0c0.016,0 0.028,0.004 0.037,0.012c0.009,0.008 0.013,0.02 0.013,0.035c0,0.015 -0.004,0.026 -0.013,0.035c-0.009,0.008 -0.021,0.012 -0.037,0.012l-0.106,0l0,0.206c0,0.032 0.007,0.056 0.021,0.072c0.014,0.016 0.037,0.024 0.068,0.024c0.011,0 0.021,-0.001 0.03,-0.003c0.009,-0.002 0.016,-0.003 0.023,-0.004c0.008,-0.001 0.015,0.002 0.02,0.008c0.005,0.005 0.008,0.017 0.008,0.034c0,0.013 -0.002,0.025 -0.007,0.035c-0.004,0.011 -0.012,0.018 -0.023,0.022c-0.009,0.003 -0.02,0.005 -0.034,0.007c-0.014,0.003 -0.026,0.004 -0.037,0.004Z" style="fill:#fff;fill-rule:nonzero;"/></g><g transform="matrix(60,0,0,60,503.762,390.699)"><path d="M0.127,0.007c-0.02,-0 -0.035,-0.006 -0.046,-0.018c-0.011,-0.012 -0.016,-0.029 -0.016,-0.05l0,-0.367c0,-0.022 0.005,-0.039 0.016,-0.05c0.011,-0.012 0.026,-0.018 0.046,-0.018c0.02,0 0.036,0.006 0.046,0.018c0.012,0.011 0.017,0.028 0.017,0.05l0,0.367c0,0.021 -0.005,0.038 -0.016,0.05c-0.011,0.012 -0.026,0.018 -0.047,0.018Zm0,-0.596c-0.023,0 -0.041,-0.006 -0.055,-0.018c-0.013,-0.011 -0.019,-0.027 -0.019,-0.048c-0,-0.021 0.006,-0.038 0.019,-0.049c0.013,-0.011 0.032,-0.017 0.055,-0.017c0.024,0 0.042,0.006 0.055,0.017c0.013,0.011 0.019,0.028 0.019,0.049c0,0.021 -0.006,0.037 -0.019,0.048c-0.013,0.012 -0.031,0.018 -0.055,0.018Z" style="fill:#fff;fill-rule:nonzero;"/></g><g transform="matrix(60,0,0,60,519.122,390.699)"><path d="M0.288,0.01c-0.051,-0 -0.095,-0.01 -0.132,-0.031c-0.037,-0.021 -0.066,-0.05 -0.087,-0.089c-0.021,-0.038 -0.031,-0.083 -0.031,-0.135c-0,-0.039 0.006,-0.075 0.017,-0.105c0.012,-0.032 0.029,-0.058 0.051,-0.081c0.022,-0.022 0.048,-0.039 0.079,-0.05c0.031,-0.012 0.065,-0.018 0.103,-0.018c0.051,0 0.095,0.01 0.132,0.031c0.037,0.021 0.066,0.05 0.087,0.088c0.021,0.038 0.031,0.083 0.031,0.135c0,0.039 -0.006,0.075 -0.018,0.106c-0.011,0.031 -0.028,0.058 -0.05,0.081c-0.022,0.022 -0.048,0.039 -0.079,0.051c-0.031,0.011 -0.065,0.017 -0.103,0.017Zm-0,-0.095c0.025,0 0.046,-0.006 0.065,-0.018c0.019,-0.012 0.033,-0.03 0.043,-0.053c0.011,-0.024 0.016,-0.054 0.016,-0.089c-0,-0.053 -0.011,-0.093 -0.034,-0.119c-0.023,-0.027 -0.053,-0.04 -0.09,-0.04c-0.025,-0 -0.046,0.006 -0.065,0.017c-0.019,0.012 -0.033,0.03 -0.044,0.053c-0.01,0.024 -0.015,0.054 -0.015,0.089c-0,0.053 0.011,0.092 0.034,0.119c0.023,0.027 0.053,0.041 0.09,0.041Z" style="fill:#fff;fill-rule:nonzero;"/></g><g transform="matrix(60,0,0,60,553.742,390.699)"><path d="M0.127,0.008c-0.02,-0 -0.035,-0.006 -0.046,-0.017c-0.011,-0.01 -0.016,-0.026 -0.016,-0.047l0,-0.378c0,-0.021 0.005,-0.036 0.016,-0.047c0.011,-0.011 0.026,-0.016 0.045,-0.016c0.019,0 0.034,0.005 0.045,0.016c0.011,0.011 0.016,0.026 0.016,0.047l0,0.068l-0.011,-0.025c0.015,-0.035 0.038,-0.062 0.069,-0.08c0.031,-0.019 0.066,-0.028 0.105,-0.028c0.039,0 0.072,0.007 0.097,0.022c0.025,0.015 0.044,0.037 0.057,0.067c0.013,0.029 0.019,0.067 0.019,0.112l0,0.242c0,0.021 -0.005,0.037 -0.016,0.048c-0.011,0.01 -0.026,0.016 -0.046,0.016c-0.02,-0 -0.036,-0.006 -0.047,-0.016c-0.011,-0.011 -0.016,-0.027 -0.016,-0.048l0,-0.236c0,-0.038 -0.007,-0.066 -0.022,-0.083c-0.014,-0.017 -0.036,-0.026 -0.066,-0.026c-0.037,0 -0.066,0.012 -0.087,0.035c-0.022,0.023 -0.033,0.053 -0.033,0.091l0,0.219c0,0.043 -0.021,0.064 -0.063,0.064Z" style="fill:#fff;fill-rule:nonzero;"/></g><g transform="matrix(60,0,0,60,255.662,460.699)"><path d="M0.137,0.008c-0.019,-0 -0.033,-0.005 -0.043,-0.016c-0.01,-0.011 -0.015,-0.025 -0.015,-0.044l0,-0.601c0,-0.019 0.005,-0.034 0.016,-0.044c0.011,-0.011 0.025,-0.016 0.044,-0.016c0.017,0 0.03,0.003 0.039,0.01c0.01,0.006 0.019,0.017 0.027,0.032l0.247,0.457l-0.032,0l0.247,-0.457c0.008,-0.015 0.017,-0.026 0.026,-0.032c0.009,-0.007 0.022,-0.01 0.039,-0.01c0.019,0 0.033,0.005 0.043,0.016c0.01,0.01 0.015,0.025 0.015,0.044l-0,0.601c-0,0.019 -0.005,0.033 -0.015,0.044c-0.009,0.011 -0.024,0.016 -0.043,0.016c-0.019,-0 -0.033,-0.005 -0.043,-0.016c-0.01,-0.011 -0.015,-0.025 -0.015,-0.044l0,-0.463l0.022,0l-0.21,0.383c-0.007,0.011 -0.014,0.02 -0.021,0.025c-0.007,0.005 -0.017,0.008 -0.03,0.008c-0.013,0 -0.023,-0.003 -0.031,-0.008c-0.008,-0.006 -0.015,-0.014 -0.021,-0.025l-0.212,-0.384l0.024,0l0,0.464c0,0.019 -0.005,0.033 -0.015,0.044c-0.009,0.011 -0.024,0.016 -0.043,0.016Z" style="fill:#fff;fill-rule:nonzero;"/></g><g transform="matrix(60,0,0,60,309.782,460.699)"><path d="M0.226,0.01c-0.035,-0 -0.067,-0.007 -0.095,-0.021c-0.027,-0.013 -0.049,-0.032 -0.065,-0.055c-0.015,-0.023 -0.023,-0.05 -0.023,-0.079c-0,-0.036 0.009,-0.064 0.028,-0.085c0.019,-0.021 0.049,-0.037 0.091,-0.046c0.042,-0.009 0.098,-0.014 0.169,-0.014l0.05,0l0,0.072l-0.049,0c-0.041,0 -0.074,0.002 -0.099,0.006c-0.025,0.004 -0.042,0.011 -0.053,0.021c-0.01,0.009 -0.015,0.023 -0.015,0.04c-0,0.022 0.008,0.04 0.023,0.054c0.015,0.014 0.037,0.021 0.064,0.021c0.022,0 0.041,-0.005 0.058,-0.015c0.018,-0.011 0.031,-0.025 0.041,-0.043c0.01,-0.018 0.015,-0.039 0.015,-0.062l0,-0.115c0,-0.033 -0.007,-0.057 -0.022,-0.072c-0.015,-0.015 -0.039,-0.022 -0.074,-0.022c-0.019,0 -0.04,0.002 -0.062,0.007c-0.023,0.005 -0.046,0.013 -0.071,0.024c-0.013,0.006 -0.024,0.008 -0.033,0.005c-0.01,-0.003 -0.018,-0.008 -0.023,-0.016c-0.005,-0.009 -0.008,-0.018 -0.008,-0.028c0,-0.01 0.003,-0.02 0.008,-0.029c0.005,-0.01 0.014,-0.017 0.027,-0.022c0.031,-0.013 0.06,-0.022 0.089,-0.027c0.028,-0.005 0.054,-0.008 0.077,-0.008c0.048,0 0.088,0.007 0.119,0.022c0.031,0.015 0.054,0.037 0.069,0.067c0.015,0.029 0.023,0.067 0.023,0.114l0,0.24c0,0.021 -0.005,0.037 -0.015,0.048c-0.01,0.01 -0.024,0.016 -0.043,0.016c-0.019,-0 -0.033,-0.006 -0.043,-0.016c-0.011,-0.011 -0.016,-0.027 -0.016,-0.048l0,-0.048l0.008,0c-0.005,0.023 -0.014,0.044 -0.028,0.061c-0.013,0.017 -0.03,0.03 -0.051,0.039c-0.021,0.009 -0.044,0.014 -0.071,0.014Z" style="fill:#fff;fill-rule:nonzero;"/></g><g transform="matrix(60,0,0,60,343.262,460.699)"><path d="M0.127,0.008c-0.02,-0 -0.035,-0.006 -0.046,-0.017c-0.011,-0.01 -0.016,-0.026 -0.016,-0.047l0,-0.378c0,-0.021 0.005,-0.036 0.016,-0.047c0.011,-0.011 0.026,-0.016 0.045,-0.016c0.019,0 0.034,0.005 0.045,0.016c0.011,0.011 0.016,0.026 0.016,0.047l0,0.068l-0.011,-0.025c0.015,-0.035 0.038,-0.062 0.069,-0.08c0.031,-0.019 0.066,-0.028 0.105,-0.028c0.039,0 0.072,0.007 0.097,0.022c0.025,0.015 0.044,0.037 0.057,0.067c0.013,0.029 0.019,0.067 0.019,0.112l0,0.242c0,0.021 -0.005,0.037 -0.016,0.048c-0.011,0.01 -0.026,0.016 -0.046,0.016c-0.02,-0 -0.036,-0.006 -0.047,-0.016c-0.011,-0.011 -0.016,-0.027 -0.016,-0.048l0,-0.236c0,-0.038 -0.007,-0.066 -0.022,-0.083c-0.014,-0.017 -0.036,-0.026 -0.066,-0.026c-0.037,0 -0.066,0.012 -0.087,0.035c-0.022,0.023 -0.033,0.053 -0.033,0.091l0,0.219c0,0.043 -0.021,0.064 -0.063,0.064Z" style="fill:#fff;fill-rule:nonzero;"/></g><g transform="matrix(60,0,0,60,378.362,460.699)"><path d="M0.226,0.01c-0.035,-0 -0.067,-0.007 -0.095,-0.021c-0.027,-0.013 -0.049,-0.032 -0.065,-0.055c-0.015,-0.023 -0.023,-0.05 -0.023,-0.079c-0,-0.036 0.009,-0.064 0.028,-0.085c0.019,-0.021 0.049,-0.037 0.091,-0.046c0.042,-0.009 0.098,-0.014 0.169,-0.014l0.05,0l0,0.072l-0.049,0c-0.041,0 -0.074,0.002 -0.099,0.006c-0.025,0.004 -0.042,0.011 -0.053,0.021c-0.01,0.009 -0.015,0.023 -0.015,0.04c-0,0.022 0.008,0.04 0.023,0.054c0.015,0.014 0.037,0.021 0.064,0.021c0.022,0 0.041,-0.005 0.058,-0.015c0.018,-0.011 0.031,-0.025 0.041,-0.043c0.01,-0.018 0.015,-0.039 0.015,-0.062l0,-0.115c0,-0.033 -0.007,-0.057 -0.022,-0.072c-0.015,-0.015 -0.039,-0.022 -0.074,-0.022c-0.019,0 -0.04,0.002 -0.062,0.007c-0.023,0.005 -0.046,0.013 -0.071,0.024c-0.013,0.006 -0.024,0.008 -0.033,0.005c-0.01,-0.003 -0.018,-0.008 -0.023,-0.016c-0.005,-0.009 -0.008,-0.018 -0.008,-0.028c0,-0.01 0.003,-0.02 0.008,-0.029c0.005,-0.01 0.014,-0.017 0.027,-0.022c0.031,-0.013 0.06,-0.022 0.089,-0.027c0.028,-0.005 0.054,-0.008 0.077,-0.008c0.048,0 0.088,0.007 0.119,0.022c0.031,0.015 0.054,0.037 0.069,0.067c0.015,0.029 0.023,0.067 0.023,0.114l0,0.24c0,0.021 -0.005,0.037 -0.015,0.048c-0.01,0.01 -0.024,0.016 -0.043,0.016c-0.019,-0 -0.033,-0.006 -0.043,-0.016c-0.011,-0.011 -0.016,-0.027 -0.016,-0.048l0,-0.048l0.008,0c-0.005,0.023 -0.014,0.044 -0.028,0.061c-0.013,0.017 -0.03,0.03 -0.051,0.039c-0.021,0.009 -0.044,0.014 -0.071,0.014Z" style="fill:#fff;fill-rule:nonzero;"/></g><g transform="matrix(60,0,0,60,411.842,460.699)"><path d="M0.293,0.19c-0.036,-0 -0.071,-0.003 -0.104,-0.01c-0.034,-0.007 -0.065,-0.017 -0.092,-0.031c-0.013,-0.007 -0.021,-0.015 -0.025,-0.024c-0.005,-0.009 -0.006,-0.019 -0.004,-0.029c0.001,-0.009 0.005,-0.018 0.012,-0.025c0.006,-0.007 0.014,-0.012 0.023,-0.015c0.009,-0.003 0.019,-0.001 0.029,0.004c0.029,0.015 0.057,0.024 0.084,0.028c0.026,0.005 0.048,0.007 0.067,0.007c0.045,-0 0.078,-0.011 0.101,-0.033c0.022,-0.021 0.033,-0.053 0.033,-0.096l-0,-0.09l0.009,-0c-0.01,0.034 -0.031,0.061 -0.063,0.081c-0.031,0.021 -0.067,0.031 -0.107,0.031c-0.044,-0 -0.082,-0.01 -0.115,-0.031c-0.033,-0.02 -0.058,-0.048 -0.076,-0.085c-0.018,-0.037 -0.027,-0.079 -0.027,-0.128c-0,-0.037 0.005,-0.07 0.015,-0.099c0.011,-0.03 0.025,-0.056 0.044,-0.077c0.019,-0.021 0.042,-0.038 0.069,-0.049c0.027,-0.012 0.057,-0.018 0.09,-0.018c0.041,0 0.077,0.01 0.108,0.03c0.031,0.021 0.052,0.048 0.061,0.081l-0.01,0.025l-0,-0.071c-0,-0.021 0.005,-0.036 0.016,-0.047c0.011,-0.011 0.027,-0.016 0.046,-0.016c0.02,-0 0.035,0.005 0.046,0.016c0.011,0.011 0.016,0.026 0.016,0.047l-0,0.385c-0,0.079 -0.021,0.139 -0.063,0.179c-0.042,0.04 -0.103,0.06 -0.183,0.06Zm-0.003,-0.297c0.026,-0 0.048,-0.006 0.067,-0.018c0.019,-0.012 0.033,-0.029 0.043,-0.052c0.011,-0.022 0.016,-0.048 0.016,-0.079c-0,-0.046 -0.011,-0.082 -0.034,-0.109c-0.023,-0.026 -0.053,-0.039 -0.092,-0.039c-0.026,-0 -0.048,0.006 -0.067,0.018c-0.019,0.012 -0.033,0.029 -0.044,0.051c-0.01,0.022 -0.015,0.048 -0.015,0.079c-0,0.046 0.011,0.082 0.034,0.109c0.023,0.027 0.053,0.04 0.092,0.04Z" style="fill:#fff;fill-rule:nonzero;"/></g><g transform="matrix(60,0,0,60,447.962,460.699)"><path d="M0.306,0.01c-0.055,-0 -0.103,-0.01 -0.143,-0.031c-0.04,-0.021 -0.071,-0.05 -0.092,-0.088c-0.022,-0.038 -0.033,-0.083 -0.033,-0.135c0,-0.051 0.011,-0.095 0.032,-0.133c0.021,-0.038 0.05,-0.068 0.087,-0.09c0.037,-0.021 0.079,-0.032 0.126,-0.032c0.035,0 0.066,0.006 0.094,0.017c0.027,0.011 0.051,0.028 0.071,0.049c0.019,0.021 0.034,0.047 0.044,0.078c0.011,0.03 0.016,0.064 0.016,0.102c0,0.012 -0.004,0.021 -0.013,0.027c-0.008,0.007 -0.02,0.01 -0.035,0.01l-0.321,0l0,-0.072l0.281,0l-0.016,0.015c0,-0.031 -0.004,-0.056 -0.013,-0.077c-0.009,-0.021 -0.022,-0.036 -0.039,-0.047c-0.017,-0.011 -0.039,-0.017 -0.064,-0.017c-0.028,0 -0.052,0.007 -0.071,0.02c-0.02,0.013 -0.035,0.031 -0.045,0.054c-0.011,0.024 -0.016,0.052 -0.016,0.085l0,0.007c0,0.055 0.013,0.096 0.039,0.123c0.025,0.026 0.063,0.04 0.113,0.04c0.017,-0 0.037,-0.002 0.058,-0.007c0.022,-0.004 0.043,-0.011 0.062,-0.022c0.014,-0.008 0.026,-0.012 0.037,-0.011c0.011,0.001 0.019,0.005 0.026,0.012c0.006,0.007 0.01,0.015 0.011,0.024c0.001,0.01 -0.001,0.02 -0.006,0.03c-0.005,0.01 -0.013,0.019 -0.025,0.026c-0.023,0.015 -0.05,0.025 -0.08,0.032c-0.031,0.007 -0.059,0.011 -0.085,0.011Z" style="fill:#fff;fill-rule:nonzero;"/></g><g transform="matrix(60,0,0,60,481.442,460.699)"><path d="M0.129,0.008c-0.02,-0 -0.035,-0.006 -0.046,-0.017c-0.011,-0.01 -0.016,-0.026 -0.016,-0.047l0,-0.378c0,-0.021 0.005,-0.036 0.016,-0.047c0.011,-0.011 0.026,-0.016 0.045,-0.016c0.019,0 0.034,0.005 0.045,0.016c0.011,0.011 0.016,0.026 0.016,0.047l0,0.073l-0.011,-0.03c0.013,-0.033 0.034,-0.06 0.062,-0.079c0.028,-0.019 0.061,-0.029 0.1,-0.029c0.039,0 0.072,0.009 0.097,0.028c0.025,0.019 0.043,0.047 0.053,0.086l-0.014,0c0.013,-0.035 0.035,-0.063 0.066,-0.084c0.031,-0.02 0.066,-0.03 0.106,-0.03c0.037,0 0.068,0.007 0.093,0.022c0.024,0.015 0.042,0.037 0.054,0.067c0.012,0.029 0.018,0.067 0.018,0.112l0,0.242c0,0.021 -0.005,0.036 -0.016,0.047c-0.011,0.011 -0.027,0.017 -0.047,0.017c-0.02,-0 -0.035,-0.006 -0.046,-0.017c-0.011,-0.011 -0.016,-0.026 -0.016,-0.047l0,-0.237c0,-0.037 -0.006,-0.065 -0.018,-0.082c-0.013,-0.017 -0.034,-0.026 -0.063,-0.026c-0.033,0 -0.058,0.012 -0.077,0.035c-0.019,0.023 -0.028,0.054 -0.028,0.095l0,0.215c0,0.021 -0.005,0.037 -0.016,0.048c-0.011,0.01 -0.026,0.016 -0.046,0.016c-0.02,-0 -0.035,-0.006 -0.046,-0.016c-0.011,-0.011 -0.017,-0.027 -0.017,-0.048l0,-0.237c0,-0.037 -0.006,-0.065 -0.018,-0.082c-0.013,-0.017 -0.033,-0.026 -0.062,-0.026c-0.033,0 -0.058,0.012 -0.077,0.035c-0.019,0.023 -0.028,0.054 -0.028,0.095l0,0.215c0,0.043 -0.021,0.064 -0.063,0.064Z" style="fill:#fff;fill-rule:nonzero;"/></g><g transform="matrix(60,0,0,60,534.302,460.699)"><path d="M0.306,0.01c-0.055,-0 -0.103,-0.01 -0.143,-0.031c-0.04,-0.021 -0.071,-0.05 -0.092,-0.088c-0.022,-0.038 -0.033,-0.083 -0.033,-0.135c0,-0.051 0.011,-0.095 0.032,-0.133c0.021,-0.038 0.05,-0.068 0.087,-0.09c0.037,-0.021 0.079,-0.032 0.126,-0.032c0.035,0 0.066,0.006 0.094,0.017c0.027,0.011 0.051,0.028 0.071,0.049c0.019,0.021 0.034,0.047 0.044,0.078c0.011,0.03 0.016,0.064 0.016,0.102c0,0.012 -0.004,0.021 -0.013,0.027c-0.008,0.007 -0.02,0.01 -0.035,0.01l-0.321,0l0,-0.072l0.281,0l-0.016,0.015c0,-0.031 -0.004,-0.056 -0.013,-0.077c-0.009,-0.021 -0.022,-0.036 -0.039,-0.047c-0.017,-0.011 -0.039,-0.017 -0.064,-0.017c-0.028,0 -0.052,0.007 -0.071,0.02c-0.02,0.013 -0.035,0.031 -0.045,0.054c-0.011,0.024 -0.016,0.052 -0.016,0.085l0,0.007c0,0.055 0.013,0.096 0.039,0.123c0.025,0.026 0.063,0.04 0.113,0.04c0.017,-0 0.037,-0.002 0.058,-0.007c0.022,-0.004 0.043,-0.011 0.062,-0.022c0.014,-0.008 0.026,-0.012 0.037,-0.011c0.011,0.001 0.019,0.005 0.026,0.012c0.006,0.007 0.01,0.015 0.011,0.024c0.001,0.01 -0.001,0.02 -0.006,0.03c-0.005,0.01 -0.013,0.019 -0.025,0.026c-0.023,0.015 -0.05,0.025 -0.08,0.032c-0.031,0.007 -0.059,0.011 -0.085,0.011Z" style="fill:#fff;fill-rule:nonzero;"/></g><g transform="matrix(60,0,0,60,567.782,460.699)"><path d="M0.127,0.008c-0.02,-0 -0.035,-0.006 -0.046,-0.017c-0.011,-0.01 -0.016,-0.026 -0.016,-0.047l0,-0.378c0,-0.021 0.005,-0.036 0.016,-0.047c0.011,-0.011 0.026,-0.016 0.045,-0.016c0.019,0 0.034,0.005 0.045,0.016c0.011,0.011 0.016,0.026 0.016,0.047l0,0.068l-0.011,-0.025c0.015,-0.035 0.038,-0.062 0.069,-0.08c0.031,-0.019 0.066,-0.028 0.105,-0.028c0.039,0 0.072,0.007 0.097,0.022c0.025,0.015 0.044,0.037 0.057,0.067c0.013,0.029 0.019,0.067 0.019,0.112l0,0.242c0,0.021 -0.005,0.037 -0.016,0.048c-0.011,0.01 -0.026,0.016 -0.046,0.016c-0.02,-0 -0.036,-0.006 -0.047,-0.016c-0.011,-0.011 -0.016,-0.027 -0.016,-0.048l0,-0.236c0,-0.038 -0.007,-0.066 -0.022,-0.083c-0.014,-0.017 -0.036,-0.026 -0.066,-0.026c-0.037,0 -0.066,0.012 -0.087,0.035c-0.022,0.023 -0.033,0.053 -0.033,0.091l0,0.219c0,0.043 -0.021,0.064 -0.063,0.064Z" style="fill:#fff;fill-rule:nonzero;"/></g><g transform="matrix(60,0,0,60,602.882,460.699)"><path d="M0.289,0.01c-0.043,-0 -0.079,-0.007 -0.108,-0.022c-0.029,-0.015 -0.051,-0.036 -0.065,-0.065c-0.014,-0.028 -0.021,-0.063 -0.021,-0.105l0,-0.213l-0.052,0c-0.016,0 -0.028,-0.004 -0.037,-0.012c-0.009,-0.009 -0.013,-0.02 -0.013,-0.035c0,-0.015 0.004,-0.027 0.013,-0.035c0.009,-0.008 0.021,-0.012 0.037,-0.012l0.052,0l0,-0.091c0,-0.021 0.006,-0.036 0.017,-0.047c0.011,-0.011 0.026,-0.016 0.046,-0.016c0.02,0 0.035,0.005 0.046,0.016c0.011,0.011 0.016,0.026 0.016,0.047l0,0.091l0.106,0c0.016,0 0.028,0.004 0.037,0.012c0.009,0.008 0.013,0.02 0.013,0.035c0,0.015 -0.004,0.026 -0.013,0.035c-0.009,0.008 -0.021,0.012 -0.037,0.012l-0.106,0l0,0.206c0,0.032 0.007,0.056 0.021,0.072c0.014,0.016 0.037,0.024 0.068,0.024c0.011,0 0.021,-0.001 0.03,-0.003c0.009,-0.002 0.016,-0.003 0.023,-0.004c0.008,-0.001 0.015,0.002 0.02,0.008c0.005,0.005 0.008,0.017 0.008,0.034c0,0.013 -0.002,0.025 -0.007,0.035c-0.004,0.011 -0.012,0.018 -0.023,0.022c-0.009,0.003 -0.02,0.005 -0.034,0.007c-0.014,0.003 -0.026,0.004 -0.037,0.004Z" style="fill:#fff;fill-rule:nonzero;"/></g></g><path d="M902.375,1978.31c-15.278,-0.001 -28.368,-3.091 -39.271,-9.271c-10.903,-6.181 -19.271,-14.931 -25.104,-26.25c-5.833,-11.32 -8.75,-24.688 -8.75,-40.105c-0,-11.527 1.667,-21.909 5,-31.145c3.333,-9.236 8.125,-17.153 14.375,-23.75c6.25,-6.598 13.924,-11.667 23.021,-15.209c9.097,-3.541 19.34,-5.312 30.729,-5.312c7.639,-0 15.139,0.972 22.5,2.916c7.361,1.945 13.819,4.723 19.375,8.334c2.917,1.805 4.861,3.993 5.833,6.562c0.973,2.57 1.181,5.07 0.625,7.5c-0.555,2.431 -1.701,4.479 -3.437,6.146c-1.736,1.667 -3.889,2.604 -6.459,2.813c-2.569,0.208 -5.381,-0.66 -8.437,-2.605c-4.306,-2.777 -8.958,-4.791 -13.958,-6.041c-5,-1.25 -10.07,-1.875 -15.209,-1.875c-9.861,-0 -18.194,2.014 -25,6.041c-6.805,4.028 -11.944,9.862 -15.416,17.5c-3.473,7.639 -5.209,17.014 -5.209,28.125c0,10.973 1.736,20.348 5.209,28.125c3.472,7.778 8.611,13.681 15.416,17.709c6.806,4.028 15.139,6.041 25,6.041c5.278,0 10.486,-0.659 15.625,-1.979c5.139,-1.319 10,-3.368 14.584,-6.146c3.055,-1.805 5.798,-2.604 8.229,-2.395c2.43,0.208 4.479,1.076 6.146,2.604c1.666,1.528 2.777,3.437 3.333,5.729c0.556,2.292 0.417,4.653 -0.417,7.083c-0.833,2.431 -2.5,4.549 -5,6.354c-5.555,4.028 -12.187,7.119 -19.896,9.271c-7.708,2.153 -15.52,3.229 -23.437,3.229Z" style="fill:#1ec2df;fill-rule:nonzero;"/><path d="M1010.29,1977.9c-3.889,-0 -6.875,-1.111 -8.959,-3.333c-2.083,-2.223 -3.125,-5.278 -3.125,-9.167l0,-125.208c0,-4.028 1.111,-7.119 3.334,-9.271c2.222,-2.153 5.277,-3.229 9.166,-3.229c3.473,-0 6.216,0.659 8.229,1.979c2.014,1.319 3.855,3.576 5.521,6.771l51.459,95.208l-6.667,-0l51.458,-95.208c1.667,-3.195 3.473,-5.452 5.417,-6.771c1.944,-1.32 4.653,-1.979 8.125,-1.979c3.889,-0 6.875,1.076 8.958,3.229c2.084,2.152 3.125,5.243 3.125,9.271l0,125.208c0,3.889 -1.007,6.944 -3.021,9.167c-2.013,2.222 -5.034,3.333 -9.062,3.333c-3.889,-0 -6.875,-1.111 -8.958,-3.333c-2.084,-2.223 -3.125,-5.278 -3.125,-9.167l-0,-96.458l4.583,-0l-43.75,79.791c-1.389,2.361 -2.847,4.097 -4.375,5.209c-1.528,1.111 -3.611,1.666 -6.25,1.666c-2.639,0 -4.792,-0.59 -6.458,-1.771c-1.667,-1.18 -3.125,-2.882 -4.375,-5.104l-44.167,-80l5,0l-0,96.667c-0,3.889 -1.007,6.944 -3.021,9.167c-2.014,2.222 -5.035,3.333 -9.062,3.333Z" style="fill:#1ec2df;fill-rule:nonzero;"/><path d="M1213.62,1930.81c-3.056,-0.001 -5.59,-1.007 -7.604,-3.021c-2.014,-2.014 -3.021,-4.48 -3.021,-7.396c-0,-3.056 1.007,-5.556 3.021,-7.5c2.014,-1.945 4.548,-2.917 7.604,-2.917l44.375,0c2.917,0 5.382,0.972 7.396,2.917c2.014,1.944 3.021,4.444 3.021,7.5c-0,2.916 -1.007,5.382 -3.021,7.396c-2.014,2.014 -4.479,3.02 -7.396,3.02l-44.375,0Z" style="fill:#1ec2df;fill-rule:nonzero;"/><path d="M1331.26,1977.9c-4.306,-0 -7.604,-1.215 -9.896,-3.646c-2.292,-2.431 -3.437,-5.799 -3.437,-10.104l-0,-122.708c-0,-4.445 1.145,-7.848 3.437,-10.209c2.292,-2.361 5.59,-3.541 9.896,-3.541c4.305,-0 7.604,1.18 9.896,3.541c2.291,2.361 3.437,5.764 3.437,10.209l0,122.708c0,4.305 -1.111,7.673 -3.333,10.104c-2.222,2.431 -5.556,3.646 -10,3.646Z" style="fill:#1ec2df;fill-rule:nonzero;"/><path d="M1410.15,1977.9c-4.028,-0 -7.118,-1.111 -9.271,-3.333c-2.153,-2.223 -3.229,-5.417 -3.229,-9.584l-0,-123.958c-0,-4.306 1.076,-7.604 3.229,-9.896c2.153,-2.292 4.965,-3.437 8.437,-3.437c3.195,-0 5.591,0.59 7.188,1.77c1.597,1.181 3.507,3.16 5.729,5.938l79.792,103.542l-5.417,-0l0,-98.542c0,-4.028 1.077,-7.153 3.229,-9.375c2.153,-2.222 5.243,-3.333 9.271,-3.333c4.028,-0 7.083,1.111 9.167,3.333c2.083,2.222 3.125,5.347 3.125,9.375l-0,125c-0,3.889 -0.972,6.944 -2.917,9.167c-1.944,2.222 -4.583,3.333 -7.917,3.333c-3.194,-0 -5.729,-0.625 -7.604,-1.875c-1.875,-1.25 -3.923,-3.264 -6.146,-6.042l-79.583,-103.542l5.208,0l0,98.542c0,4.167 -1.041,7.361 -3.125,9.583c-2.083,2.223 -5.138,3.334 -9.166,3.334Z" style="fill:#1ec2df;fill-rule:nonzero;"/><path d="M1586.96,1977.9c-3.889,-0 -6.875,-1.111 -8.958,-3.333c-2.083,-2.223 -3.125,-5.278 -3.125,-9.167l-0,-125.208c-0,-4.028 1.111,-7.119 3.333,-9.271c2.223,-2.153 5.278,-3.229 9.167,-3.229c3.472,-0 6.215,0.659 8.229,1.979c2.014,1.319 3.854,3.576 5.521,6.771l51.458,95.208l-6.666,-0l51.458,-95.208c1.667,-3.195 3.472,-5.452 5.417,-6.771c1.944,-1.32 4.652,-1.979 8.125,-1.979c3.889,-0 6.875,1.076 8.958,3.229c2.083,2.152 3.125,5.243 3.125,9.271l-0,125.208c-0,3.889 -1.007,6.944 -3.021,9.167c-2.014,2.222 -5.035,3.333 -9.062,3.333c-3.889,-0 -6.875,-1.111 -8.959,-3.333c-2.083,-2.223 -3.125,-5.278 -3.125,-9.167l0,-96.458l4.584,-0l-43.75,79.791c-1.389,2.361 -2.848,4.097 -4.375,5.209c-1.528,1.111 -3.611,1.666 -6.25,1.666c-2.639,0 -4.792,-0.59 -6.459,-1.771c-1.666,-1.18 -3.125,-2.882 -4.375,-5.104l-44.166,-80l5,0l-0,96.667c-0,3.889 -1.007,6.944 -3.021,9.167c-2.014,2.222 -5.035,3.333 -9.063,3.333Z" style="fill:#1ec2df;fill-rule:nonzero;"/><path d="M1851.54,1978.31c-15.278,-0.001 -28.368,-3.091 -39.271,-9.271c-10.903,-6.181 -19.271,-14.931 -25.104,-26.25c-5.834,-11.32 -8.75,-24.688 -8.75,-40.105c-0,-11.527 1.666,-21.909 5,-31.145c3.333,-9.236 8.125,-17.153 14.375,-23.75c6.25,-6.598 13.923,-11.667 23.02,-15.209c9.098,-3.541 19.341,-5.312 30.73,-5.312c7.639,-0 15.139,0.972 22.5,2.916c7.361,1.945 13.819,4.723 19.375,8.334c2.916,1.805 4.861,3.993 5.833,6.562c0.972,2.57 1.181,5.07 0.625,7.5c-0.556,2.431 -1.701,4.479 -3.438,6.146c-1.736,1.667 -3.888,2.604 -6.458,2.813c-2.569,0.208 -5.382,-0.66 -8.437,-2.605c-4.306,-2.777 -8.959,-4.791 -13.959,-6.041c-5,-1.25 -10.069,-1.875 -15.208,-1.875c-9.861,-0 -18.194,2.014 -25,6.041c-6.806,4.028 -11.944,9.862 -15.417,17.5c-3.472,7.639 -5.208,17.014 -5.208,28.125c-0,10.973 1.736,20.348 5.208,28.125c3.473,7.778 8.611,13.681 15.417,17.709c6.806,4.028 15.139,6.041 25,6.041c5.278,0 10.486,-0.659 15.625,-1.979c5.139,-1.319 10,-3.368 14.583,-6.146c3.056,-1.805 5.799,-2.604 8.229,-2.395c2.431,0.208 4.48,1.076 6.146,2.604c1.667,1.528 2.778,3.437 3.334,5.729c0.555,2.292 0.416,4.653 -0.417,7.083c-0.833,2.431 -2.5,4.549 -5,6.354c-5.556,4.028 -12.188,7.119 -19.896,9.271c-7.708,2.153 -15.521,3.229 -23.437,3.229Z" style="fill:#1ec2df;fill-rule:nonzero;"/></g><g><g><path d="M652.42,2269.4c-9.03,-6.978 -15.355,-14.783 -18.976,-23.416c-3.622,-8.633 -4.571,-17.626 -2.849,-26.981c1.723,-9.355 6.104,-18.588 13.146,-27.7c5.265,-6.814 10.992,-12.189 17.181,-16.125c6.188,-3.937 12.636,-6.427 19.344,-7.472c6.707,-1.044 13.558,-0.536 20.552,1.526c6.995,2.062 13.858,5.693 20.589,10.895c4.515,3.489 8.504,7.489 11.967,12.001c3.462,4.511 6.011,9.103 7.645,13.775c0.899,2.399 1.049,4.58 0.45,6.543c-0.599,1.962 -1.617,3.535 -3.056,4.718c-1.438,1.183 -3.051,1.87 -4.839,2.062c-1.787,0.193 -3.487,-0.237 -5.101,-1.287c-1.614,-1.05 -2.88,-2.848 -3.798,-5.393c-1.276,-3.608 -3.106,-6.924 -5.49,-9.946c-2.385,-3.023 -5.096,-5.708 -8.133,-8.055c-5.828,-4.504 -11.673,-7.12 -17.536,-7.847c-5.862,-0.728 -11.563,0.373 -17.105,3.302c-5.541,2.929 -10.849,7.677 -15.924,14.244c-5.011,6.485 -8.267,12.819 -9.767,19.002c-1.5,6.183 -1.159,12.019 1.024,17.508c2.182,5.489 6.188,10.485 12.016,14.989c3.12,2.411 6.499,4.4 10.139,5.967c3.64,1.567 7.449,2.577 11.427,3.029c2.631,0.328 4.617,1.109 5.958,2.342c1.341,1.233 2.156,2.682 2.443,4.346c0.287,1.665 0.072,3.301 -0.646,4.909c-0.719,1.608 -1.879,2.94 -3.482,3.996c-1.603,1.056 -3.555,1.547 -5.857,1.472c-5.124,-0.157 -10.455,-1.359 -15.994,-3.608c-5.54,-2.248 -10.649,-5.18 -15.328,-8.796Z" style="fill:#4a059d;fill-rule:nonzero;"/><path d="M726.707,2321.31c-7.222,-4.69 -12.568,-10.078 -16.037,-16.166c-3.469,-6.087 -5.007,-12.528 -4.614,-19.324c0.392,-6.796 2.792,-13.587 7.199,-20.374c4.294,-6.613 9.422,-11.509 15.383,-14.689c5.961,-3.18 12.275,-4.616 18.94,-4.308c6.665,0.308 13.087,2.468 19.264,6.48c4.525,2.938 8.112,6.318 10.763,10.142c2.65,3.824 4.355,7.962 5.114,12.413c0.758,4.451 0.527,9.094 -0.695,13.928c-1.222,4.835 -3.444,9.732 -6.664,14.692c-1.017,1.566 -2.338,2.409 -3.962,2.53c-1.625,0.12 -3.437,-0.47 -5.439,-1.769l-41.895,-27.205l6.102,-9.397l36.675,23.815l-3.36,0.602c2.599,-4.003 4.187,-7.734 4.764,-11.194c0.577,-3.46 0.222,-6.628 -1.064,-9.505c-1.287,-2.876 -3.583,-5.388 -6.89,-7.535c-3.654,-2.373 -7.316,-3.545 -10.984,-3.515c-3.669,0.03 -7.18,1.152 -10.535,3.365c-3.354,2.213 -6.415,5.451 -9.184,9.715l-0.593,0.913c-4.633,7.135 -6.419,13.552 -5.357,19.251c1.061,5.699 4.855,10.668 11.381,14.905c2.262,1.469 4.991,2.839 8.186,4.11c3.195,1.271 6.506,2.029 9.933,2.275c2.506,0.143 4.412,0.731 5.719,1.766c1.308,1.034 2.092,2.255 2.354,3.662c0.261,1.407 0.07,2.797 -0.576,4.172c-0.645,1.375 -1.718,2.503 -3.218,3.384c-1.5,0.881 -3.344,1.292 -5.531,1.232c-4.289,-0.063 -8.709,-0.923 -13.261,-2.58c-4.552,-1.658 -8.525,-3.588 -11.918,-5.791Z" style="fill:#4a059d;fill-rule:nonzero;"/><path d="M779.324,2352.87c-2.808,-1.568 -4.542,-3.517 -5.202,-5.846c-0.66,-2.329 -0.206,-4.897 1.361,-7.705l28.679,-51.359c1.568,-2.808 3.481,-4.532 5.74,-5.172c2.258,-0.64 4.701,-0.227 7.328,1.24c2.626,1.467 4.26,3.33 4.9,5.588c0.64,2.259 0.176,4.792 -1.392,7.6l-4.78,8.56l-1.358,-0.759c4.302,-4.727 9.095,-7.457 14.376,-8.191c5.282,-0.734 11.154,0.346 17.617,3.242c2.004,0.881 3.255,2.204 3.755,3.969c0.5,1.764 0.183,3.874 -0.951,6.331c-1.083,2.365 -2.628,3.909 -4.635,4.63c-2.006,0.721 -4.309,0.535 -6.906,-0.559l-3.141,-1.398c-5.829,-2.542 -10.944,-3.17 -15.345,-1.884c-4.401,1.285 -8.043,4.509 -10.926,9.672l-15.705,28.125c-1.568,2.808 -3.494,4.555 -5.778,5.24c-2.284,0.685 -4.83,0.244 -7.637,-1.324Z" style="fill:#4a059d;fill-rule:nonzero;"/><path d="M862.951,2396.54c-6.073,-2.931 -10.646,-6.405 -13.718,-10.423c-3.072,-4.017 -4.631,-8.484 -4.676,-13.402c-0.046,-4.918 1.352,-10.32 4.193,-16.206l14.408,-29.851l-7.287,-3.518c-2.243,-1.082 -3.689,-2.5 -4.34,-4.254c-0.651,-1.754 -0.481,-3.659 0.511,-5.715c1.038,-2.149 2.434,-3.49 4.19,-4.025c1.756,-0.535 3.755,-0.262 5.997,0.821l7.288,3.517l6.155,-12.753c1.398,-2.896 3.229,-4.72 5.492,-5.471c2.263,-0.751 4.796,-0.45 7.599,0.903c2.803,1.353 4.591,3.138 5.364,5.354c0.774,2.217 0.461,4.773 -0.936,7.669l-6.156,12.754l14.855,7.17c2.243,1.082 3.701,2.477 4.374,4.184c0.674,1.708 0.492,3.636 -0.546,5.785c-0.992,2.055 -2.377,3.374 -4.155,3.956c-1.778,0.581 -3.789,0.331 -6.031,-0.751l-14.856,-7.171l-13.934,28.871c-2.165,4.484 -2.807,8.321 -1.927,11.511c0.879,3.189 3.515,5.843 7.906,7.963c1.588,0.766 3.057,1.303 4.407,1.609c1.35,0.306 2.515,0.637 3.494,0.995c1.167,0.448 1.932,1.249 2.296,2.404c0.364,1.155 -0.04,2.947 -1.213,5.376c-0.902,1.869 -2.006,3.381 -3.312,4.536c-1.306,1.155 -2.889,1.629 -4.748,1.423c-1.395,-0.212 -3.152,-0.629 -5.272,-1.249c-2.12,-0.62 -3.927,-1.29 -5.422,-2.012Z" style="fill:#4a059d;fill-rule:nonzero;"/><path d="M899.576,2412.25c-2.864,-1.218 -4.694,-3.011 -5.491,-5.379c-0.798,-2.368 -0.547,-5.079 0.752,-8.134l22.344,-52.56c1.339,-3.15 3.128,-5.236 5.365,-6.258c2.238,-1.021 4.789,-0.923 7.654,0.294c2.864,1.218 4.729,2.997 5.594,5.338c0.865,2.34 0.628,5.086 -0.712,8.236l-22.343,52.56c-1.299,3.055 -3.077,5.117 -5.336,6.186c-2.258,1.069 -4.867,0.975 -7.827,-0.283Zm36.286,-85.355c-3.342,-1.421 -5.589,-3.362 -6.74,-5.825c-1.152,-2.462 -1.098,-5.173 0.16,-8.133c1.299,-3.055 3.224,-4.998 5.776,-5.83c2.552,-0.832 5.498,-0.537 8.84,0.883c3.437,1.462 5.718,3.389 6.842,5.783c1.124,2.395 1.036,5.119 -0.262,8.175c-1.259,2.959 -3.15,4.889 -5.674,5.789c-2.524,0.899 -5.505,0.619 -8.942,-0.842Z" style="fill:#4a059d;fill-rule:nonzero;"/><path d="M945.134,2430.88c-2.934,-1.037 -4.923,-2.647 -5.967,-4.832c-1.043,-2.184 -1.029,-4.793 0.042,-7.825l17.579,-49.739l-6.749,-2.385c-2.348,-0.83 -3.941,-2.081 -4.781,-3.753c-0.839,-1.672 -0.879,-3.584 -0.118,-5.736c0.795,-2.25 2.036,-3.737 3.722,-4.461c1.687,-0.725 3.704,-0.672 6.051,0.158l12.031,4.252l-6.993,2.975l1.763,-4.989c3.492,-9.879 8.631,-16.48 15.417,-19.804c6.786,-3.323 15.096,-3.797 24.93,-1.422l4.557,1.115c2.319,0.6 4.001,1.524 5.044,2.773c1.044,1.25 1.553,2.612 1.527,4.088c-0.027,1.476 -0.438,2.872 -1.232,4.186c-0.795,1.315 -1.814,2.33 -3.057,3.046c-1.244,0.716 -2.567,0.881 -3.971,0.495l-3.625,-0.951c-5.323,-1.441 -9.59,-1.354 -12.802,0.262c-3.212,1.616 -5.682,4.869 -7.41,9.76l-1.919,5.428l-1.518,-3.177l40.643,14.364c2.934,1.037 4.881,2.688 5.841,4.953c0.961,2.265 0.887,4.962 -0.219,8.092l-18.719,52.967c-1.107,3.131 -2.729,5.308 -4.867,6.533c-2.139,1.225 -4.724,1.301 -7.756,0.23c-2.935,-1.037 -4.898,-2.722 -5.89,-5.053c-0.991,-2.331 -0.934,-5.061 0.172,-8.191l17.32,-49.006l-29.052,-10.267l-17.578,49.739c-2.213,6.26 -6.351,8.319 -12.416,6.175Zm78.643,-70.741c-3.326,-1.175 -5.591,-2.938 -6.796,-5.29c-1.205,-2.351 -1.271,-5.043 -0.199,-8.075c1.106,-3.13 2.858,-5.207 5.255,-6.23c2.397,-1.024 5.259,-0.948 8.584,0.228c3.424,1.21 5.747,2.966 6.968,5.268c1.222,2.303 1.28,5.019 0.174,8.149c-1.072,3.032 -2.815,5.085 -5.229,6.157c-2.415,1.072 -5.334,1.003 -8.757,-0.207Z" style="fill:#4a059d;fill-rule:nonzero;"/><path d="M1062.74,2468.1c-8.329,-2.186 -15.095,-5.625 -20.3,-10.316c-5.204,-4.691 -8.686,-10.324 -10.446,-16.9c-1.76,-6.576 -1.612,-13.777 0.442,-21.604c2.002,-7.626 5.334,-13.884 9.996,-18.774c4.663,-4.89 10.206,-8.235 16.632,-10.034c6.425,-1.8 13.2,-1.764 20.324,0.106c5.218,1.37 9.685,3.454 13.402,6.253c3.716,2.799 6.633,6.192 8.751,10.18c2.117,3.988 3.354,8.469 3.711,13.443c0.357,4.974 -0.215,10.321 -1.717,16.041c-0.474,1.806 -1.463,3.021 -2.968,3.645c-1.504,0.624 -3.41,0.633 -5.718,0.028l-48.317,-12.683l2.845,-10.837l42.296,11.102l-3.001,1.626c1.211,-4.616 1.548,-8.657 1.01,-12.124c-0.538,-3.466 -1.869,-6.363 -3.994,-8.69c-2.124,-2.328 -5.092,-3.992 -8.906,-4.993c-4.214,-1.106 -8.058,-1.069 -11.532,0.111c-3.474,1.179 -6.456,3.346 -8.946,6.5c-2.491,3.154 -4.381,7.19 -5.672,12.107l-0.277,1.053c-2.159,8.228 -1.841,14.882 0.955,19.96c2.797,5.078 7.958,8.605 15.484,10.58c2.609,0.685 5.63,1.129 9.062,1.333c3.433,0.204 6.815,-0.115 10.146,-0.957c2.423,-0.651 4.418,-0.69 5.984,-0.118c1.566,0.572 2.694,1.484 3.384,2.738c0.69,1.254 0.944,2.634 0.763,4.142c-0.181,1.508 -0.846,2.915 -1.994,4.223c-1.147,1.308 -2.769,2.276 -4.865,2.906c-4.092,1.286 -8.558,1.856 -13.401,1.711c-4.842,-0.144 -9.22,-0.731 -13.133,-1.758Z" style="fill:#4a059d;fill-rule:nonzero;"/><path d="M1142.53,2485.66c-6.538,-1.154 -12.006,-3.752 -16.402,-7.793c-4.396,-4.042 -7.454,-9.244 -9.176,-15.605c-1.721,-6.361 -1.879,-13.527 -0.472,-21.495c1.424,-8.072 4.025,-14.75 7.803,-20.035c3.777,-5.286 8.423,-9.075 13.937,-11.367c5.514,-2.293 11.54,-2.862 18.079,-1.708c6.232,1.1 11.401,3.593 15.509,7.478c4.107,3.886 6.537,8.476 7.288,13.771l-1.686,-0.298l7.033,-39.844c0.559,-3.168 1.8,-5.424 3.723,-6.77c1.923,-1.346 4.417,-1.749 7.482,-1.208c3.065,0.541 5.296,1.778 6.694,3.71c1.397,1.932 1.816,4.482 1.257,7.649l-16.068,91.029c-0.559,3.167 -1.804,5.449 -3.736,6.846c-1.933,1.398 -4.431,1.826 -7.496,1.285c-3.065,-0.541 -5.266,-1.799 -6.603,-3.773c-1.337,-1.974 -1.726,-4.545 -1.167,-7.712l2.11,-11.953l0.874,4.895c-2.47,5.042 -6.335,8.731 -11.593,11.069c-5.259,2.338 -11.055,2.947 -17.39,1.829Zm7.934,-13.611c3.78,0.667 7.262,0.333 10.448,-1.001c3.185,-1.334 5.889,-3.674 8.113,-7.022c2.224,-3.347 3.814,-7.728 4.769,-13.143c1.443,-8.173 0.784,-14.584 -1.978,-19.233c-2.761,-4.648 -7.002,-7.478 -12.724,-8.488c-3.78,-0.667 -7.258,-0.359 -10.434,0.924c-3.176,1.283 -5.876,3.598 -8.1,6.946c-2.224,3.347 -3.813,7.728 -4.769,13.143c-1.425,8.071 -0.765,14.482 1.978,19.233c2.743,4.75 6.975,7.631 12.697,8.641Z" style="fill:#4a059d;fill-rule:nonzero;"/><path d="M1268.34,2501.64c-3.212,-0.151 -5.631,-1.174 -7.255,-3.068c-1.624,-1.894 -2.361,-4.447 -2.21,-7.66l4.264,-90.468c0.156,-3.317 1.155,-5.788 2.998,-7.415c1.842,-1.627 4.369,-2.365 7.582,-2.213l37.462,1.765c12.021,0.567 21.154,4.009 27.4,10.327c6.245,6.318 9.114,14.866 8.606,25.644c-0.508,10.777 -4.169,19.043 -10.983,24.798c-6.815,5.755 -16.232,8.349 -28.253,7.782l-27.67,-1.304l-1.509,32.022c-0.151,3.212 -1.098,5.686 -2.842,7.422c-1.744,1.735 -4.273,2.525 -7.59,2.368Zm12.681,-57.512l24.561,1.158c7.046,0.332 12.458,-0.997 16.234,-3.987c3.776,-2.989 5.808,-7.541 6.096,-13.656c0.288,-6.114 -1.308,-10.811 -4.789,-14.091c-3.48,-3.279 -8.744,-5.085 -15.791,-5.417l-24.56,-1.158l-1.751,37.151Z" style="fill:#4a059d;fill-rule:nonzero;"/><path d="M1370.88,2504.21c-3.215,0.078 -5.699,-0.717 -7.452,-2.387c-1.753,-1.67 -2.669,-4.112 -2.747,-7.327l-1.432,-58.806c-0.078,-3.215 0.692,-5.673 2.311,-7.372c1.619,-1.7 3.933,-2.587 6.94,-2.66c3.008,-0.073 5.362,0.7 7.062,2.319c1.7,1.619 2.589,4.036 2.667,7.251l0.239,9.801l-1.556,0.038c1.3,-6.258 4.038,-11.047 8.212,-14.365c4.174,-3.319 9.779,-5.375 16.817,-6.169c2.173,-0.261 3.923,0.241 5.251,1.506c1.328,1.265 2.129,3.243 2.402,5.935c0.27,2.588 -0.275,4.702 -1.636,6.344c-1.361,1.642 -3.438,2.652 -6.231,3.031l-3.415,0.395c-6.311,0.776 -11.034,2.837 -14.17,6.182c-3.136,3.346 -4.631,7.974 -4.488,13.886l0.784,32.203c0.079,3.215 -0.691,5.698 -2.309,7.45c-1.618,1.752 -4.034,2.667 -7.249,2.745Z" style="fill:#4a059d;fill-rule:nonzero;"/><path d="M1459.87,2499.72c-7.851,0.721 -14.817,-0.255 -20.896,-2.926c-6.08,-2.672 -10.993,-6.831 -14.741,-12.477c-3.748,-5.647 -5.992,-12.499 -6.732,-20.557c-0.559,-6.095 -0.155,-11.628 1.212,-16.598c1.367,-4.97 3.596,-9.342 6.687,-13.116c3.092,-3.773 6.931,-6.782 11.517,-9.027c4.586,-2.244 9.824,-3.636 15.713,-4.177c7.851,-0.72 14.817,0.255 20.896,2.927c6.079,2.671 10.991,6.804 14.734,12.399c3.743,5.595 5.984,12.421 6.724,20.479c0.56,6.096 0.158,11.654 -1.204,16.676c-1.362,5.021 -3.589,9.419 -6.681,13.193c-3.091,3.774 -6.93,6.783 -11.516,9.027c-4.587,2.244 -9.824,3.636 -15.713,4.177Zm-1.351,-14.722c3.822,-0.351 7.095,-1.589 9.816,-3.714c2.722,-2.125 4.716,-5.095 5.98,-8.909c1.265,-3.815 1.646,-8.46 1.143,-13.935c-0.758,-8.265 -3.081,-14.277 -6.968,-18.035c-3.887,-3.758 -8.724,-5.372 -14.509,-4.841c-3.822,0.351 -7.097,1.563 -9.824,3.637c-2.727,2.073 -4.722,5.017 -5.987,8.832c-1.265,3.814 -1.646,8.459 -1.143,13.935c0.749,8.161 3.072,14.173 6.969,18.034c3.896,3.862 8.737,5.527 14.523,4.996Z" style="fill:#4a059d;fill-rule:nonzero;"/><path d="M1532.99,2490.35c-3.074,0.49 -5.591,0.024 -7.55,-1.398c-1.96,-1.421 -3.193,-3.72 -3.699,-6.896l-8.296,-52.097l-7.069,1.125c-2.459,0.392 -4.456,0.053 -5.992,-1.015c-1.536,-1.069 -2.483,-2.73 -2.842,-4.984c-0.375,-2.357 0.005,-4.256 1.141,-5.697c1.136,-1.442 2.934,-2.358 5.393,-2.75l12.602,-2.006l-4.725,5.952l-0.832,-5.225c-1.681,-10.553 -0.277,-18.892 4.21,-25.016c4.487,-6.125 11.678,-10.448 21.572,-12.969l5.151,-1.293c2.017,-0.531 3.709,-0.459 5.077,0.216c1.368,0.675 2.367,1.671 2.998,2.989c0.63,1.318 0.905,2.719 0.826,4.202c-0.079,1.483 -0.519,2.84 -1.321,4.071c-0.802,1.231 -1.964,2.02 -3.484,2.367l-2.127,0.496c-5.775,1.34 -9.79,3.503 -12.046,6.488c-2.256,2.986 -2.968,7.091 -2.136,12.316l0.906,5.686l-2.851,-2.067l15.522,-2.472c2.459,-0.391 4.452,-0.078 5.98,0.939c1.528,1.017 2.479,2.704 2.854,5.061c0.359,2.254 -0.025,4.127 -1.153,5.62c-1.128,1.493 -2.922,2.435 -5.381,2.826l-13.062,2.08l8.296,52.098c1.044,6.557 -1.61,10.342 -7.962,11.353Z" style="fill:#4a059d;fill-rule:nonzero;"/><path d="M1613.06,2475.24c-8.401,1.887 -15.991,1.944 -22.769,0.171c-6.779,-1.773 -12.461,-5.175 -17.047,-10.206c-4.586,-5.03 -7.766,-11.493 -9.54,-19.388c-1.728,-7.693 -1.646,-14.782 0.246,-21.268c1.892,-6.486 5.278,-12.005 10.156,-16.557c4.879,-4.552 10.912,-7.635 18.098,-9.25c5.264,-1.183 10.189,-1.385 14.776,-0.608c4.588,0.777 8.738,2.449 12.452,5.017c3.714,2.568 6.873,5.979 9.476,10.232c2.604,4.253 4.554,9.265 5.85,15.034c0.41,1.822 0.09,3.356 -0.96,4.602c-1.049,1.246 -2.737,2.13 -5.065,2.653l-48.738,10.951l-2.457,-10.932l42.665,-9.586l-1.917,2.823c-1.047,-4.656 -2.605,-8.399 -4.677,-11.23c-2.071,-2.831 -4.585,-4.792 -7.542,-5.882c-2.956,-1.09 -6.358,-1.203 -10.204,-0.339c-4.251,0.955 -7.648,2.755 -10.191,5.4c-2.542,2.645 -4.194,5.94 -4.956,9.886c-0.761,3.946 -0.585,8.399 0.529,13.358l0.239,1.063c1.865,8.3 5.206,14.062 10.024,17.286c4.819,3.224 11.023,3.983 18.615,2.278c2.632,-0.592 5.519,-1.586 8.66,-2.983c3.142,-1.397 5.999,-3.235 8.57,-5.514c1.853,-1.692 3.606,-2.645 5.26,-2.857c1.654,-0.212 3.075,0.08 4.264,0.877c1.189,0.796 2.05,1.905 2.582,3.327c0.532,1.422 0.589,2.978 0.171,4.667c-0.418,1.689 -1.413,3.294 -2.985,4.817c-3.042,3.023 -6.747,5.583 -11.113,7.681c-4.367,2.098 -8.524,3.59 -12.472,4.477Z" style="fill:#4a059d;fill-rule:nonzero;"/><path d="M1690.11,2454.7c-4.268,1.297 -8.92,2.223 -13.956,2.778c-5.036,0.554 -9.772,0.313 -14.208,-0.724c-1.89,-0.51 -3.361,-1.337 -4.413,-2.481c-1.053,-1.144 -1.708,-2.409 -1.967,-3.794c-0.258,-1.385 -0.116,-2.702 0.426,-3.951c0.542,-1.249 1.438,-2.226 2.687,-2.932c1.25,-0.705 2.789,-0.901 4.619,-0.59c4.543,0.679 8.666,0.863 12.366,0.552c3.7,-0.312 7.238,-0.98 10.613,-2.006c4.764,-1.448 8.064,-3.346 9.899,-5.692c1.835,-2.347 2.345,-4.861 1.53,-7.541c-0.693,-2.283 -1.998,-3.811 -3.914,-4.584c-1.916,-0.773 -4.502,-0.99 -7.761,-0.65l-15.749,1.696c-6.516,0.68 -11.892,-0.153 -16.129,-2.498c-4.236,-2.345 -7.154,-6.148 -8.753,-11.408c-1.448,-4.765 -1.385,-9.284 0.189,-13.558c1.575,-4.273 4.408,-8.062 8.5,-11.366c4.092,-3.304 9.166,-5.876 15.221,-7.716c4.367,-1.328 8.605,-2.101 12.713,-2.319c4.109,-0.219 8.251,0.122 12.428,1.021c1.73,0.341 3.064,1.074 4.002,2.199c0.939,1.124 1.462,2.402 1.572,3.832c0.109,1.431 -0.124,2.803 -0.701,4.117c-0.576,1.314 -1.497,2.298 -2.762,2.954c-1.264,0.655 -2.861,0.842 -4.79,0.561c-3.559,-0.653 -6.859,-0.897 -9.9,-0.732c-3.04,0.165 -5.85,0.64 -8.431,1.424c-4.864,1.478 -8.206,3.416 -10.025,5.812c-1.82,2.396 -2.308,4.984 -1.463,7.764c0.634,2.084 1.856,3.61 3.668,4.577c1.812,0.968 4.233,1.262 7.263,0.883l15.749,-1.696c6.814,-0.77 12.366,-0.072 16.657,2.094c4.29,2.166 7.25,5.929 8.879,11.289c2.203,7.246 1.101,13.788 -3.305,19.627c-4.406,5.839 -11.324,10.192 -20.754,13.058Z" style="fill:#4a059d;fill-rule:nonzero;"/><path d="M1766.55,2428.5c-4.166,1.593 -8.742,2.844 -13.727,3.751c-4.984,0.907 -9.725,0.998 -14.223,0.275c-1.921,-0.376 -3.447,-1.098 -4.577,-2.165c-1.13,-1.067 -1.873,-2.282 -2.228,-3.646c-0.355,-1.364 -0.306,-2.688 0.147,-3.972c0.453,-1.284 1.278,-2.321 2.475,-3.112c1.197,-0.791 2.719,-1.096 4.566,-0.914c4.58,0.359 8.705,0.253 12.374,-0.318c3.67,-0.57 7.152,-1.485 10.446,-2.745c4.651,-1.779 7.81,-3.904 9.475,-6.374c1.666,-2.469 1.998,-5.012 0.998,-7.629c-0.853,-2.228 -2.262,-3.661 -4.227,-4.298c-1.965,-0.637 -4.561,-0.671 -7.787,-0.104l-15.591,2.798c-6.452,1.135 -11.874,0.682 -16.265,-1.359c-4.391,-2.042 -7.568,-5.631 -9.533,-10.766c-1.779,-4.651 -2.033,-9.164 -0.762,-13.537c1.27,-4.374 3.831,-8.352 7.681,-11.935c3.85,-3.583 8.73,-6.505 14.641,-8.766c4.264,-1.631 8.437,-2.699 12.519,-3.206c4.083,-0.506 8.239,-0.457 12.469,0.146c1.75,0.219 3.132,0.857 4.147,1.913c1.015,1.056 1.627,2.293 1.836,3.713c0.21,1.419 0.074,2.804 -0.409,4.155c-0.483,1.351 -1.333,2.398 -2.548,3.14c-1.215,0.743 -2.795,1.042 -4.739,0.897c-3.597,-0.402 -6.906,-0.413 -9.927,-0.035c-3.021,0.378 -5.791,1.048 -8.31,2.012c-4.748,1.816 -7.946,3.983 -9.593,6.501c-1.647,2.519 -1.952,5.134 -0.914,7.848c0.778,2.034 2.105,3.471 3.981,4.308c1.875,0.838 4.311,0.962 7.306,0.371l15.591,-2.797c6.743,-1.247 12.331,-0.94 16.763,0.919c4.432,1.859 7.649,5.405 9.65,10.637c2.706,7.074 2.066,13.678 -1.919,19.812c-3.985,6.133 -10.58,10.961 -19.786,14.482Z" style="fill:#4a059d;fill-rule:nonzero;"/><path d="M1823.09,2404.62c-2.844,1.265 -5.403,1.382 -7.679,0.351c-2.276,-1.031 -4.089,-3.064 -5.438,-6.097l-23.22,-52.178c-1.392,-3.128 -1.699,-5.858 -0.921,-8.192c0.779,-2.333 2.59,-4.133 5.433,-5.398c2.844,-1.266 5.417,-1.417 7.719,-0.454c2.302,0.962 4.149,3.008 5.541,6.136l23.22,52.178c1.349,3.033 1.645,5.74 0.888,8.121c-0.757,2.381 -2.605,4.225 -5.543,5.533Zm-37.709,-84.737c-3.317,1.477 -6.269,1.797 -8.856,0.961c-2.586,-0.837 -4.533,-2.724 -5.841,-5.662c-1.349,-3.033 -1.459,-5.767 -0.327,-8.2c1.131,-2.434 3.355,-4.389 6.673,-5.866c3.412,-1.518 6.377,-1.872 8.895,-1.062c2.518,0.809 4.452,2.731 5.801,5.764c1.308,2.938 1.43,5.637 0.368,8.098c-1.063,2.46 -3.301,4.449 -6.713,5.967Z" style="fill:#4a059d;fill-rule:nonzero;"/><path d="M1885.32,2375.2c-7,3.629 -13.818,5.353 -20.456,5.172c-6.638,-0.181 -12.758,-2.18 -18.359,-5.995c-5.6,-3.816 -10.263,-9.316 -13.988,-16.5c-2.817,-5.434 -4.53,-10.71 -5.139,-15.828c-0.608,-5.119 -0.193,-10.009 1.247,-14.67c1.44,-4.661 3.86,-8.896 7.261,-12.704c3.401,-3.808 7.727,-7.073 12.977,-9.795c6.999,-3.629 13.818,-5.353 20.456,-5.172c6.638,0.181 12.746,2.156 18.323,5.926c5.577,3.77 10.227,9.246 13.952,16.43c2.817,5.434 4.542,10.734 5.175,15.898c0.632,5.164 0.228,10.077 -1.211,14.739c-1.44,4.661 -3.86,8.895 -7.261,12.704c-3.402,3.808 -7.727,7.073 -12.977,9.795Zm-6.804,-13.125c3.408,-1.766 5.971,-4.147 7.69,-7.142c1.72,-2.995 2.446,-6.497 2.178,-10.507c-0.267,-4.01 -1.667,-8.455 -4.197,-13.337c-3.82,-7.368 -8.239,-12.059 -13.257,-14.074c-5.017,-2.014 -10.105,-1.685 -15.263,0.989c-3.408,1.767 -5.983,4.125 -7.726,7.074c-1.744,2.949 -2.481,6.428 -2.214,10.438c0.268,4.009 1.667,8.455 4.198,13.336c3.772,7.276 8.191,11.968 13.256,14.074c5.065,2.107 10.177,1.823 15.335,-0.851Z" style="fill:#4a059d;fill-rule:nonzero;"/><path d="M1946.67,2340.95c-2.635,1.657 -5.11,2.202 -7.427,1.637c-2.316,-0.566 -4.33,-2.21 -6.042,-4.933l-31.309,-49.799c-1.712,-2.722 -2.307,-5.228 -1.785,-7.517c0.522,-2.289 2.056,-4.234 4.603,-5.835c2.547,-1.601 4.965,-2.141 7.254,-1.619c2.289,0.521 4.289,2.144 6.001,4.866l5.632,8.959l-3.52,-2.383c-0.994,-5.869 -0.209,-11.296 2.357,-16.279c2.566,-4.983 6.439,-9.103 11.621,-12.361c5.182,-3.258 10.049,-4.97 14.601,-5.136c4.553,-0.166 8.892,1.181 13.018,4.04c4.126,2.859 8.066,7.275 11.821,13.247l20.044,31.882c1.712,2.723 2.321,5.25 1.827,7.583c-0.494,2.333 -2.059,4.327 -4.694,5.984c-2.635,1.656 -5.132,2.216 -7.492,1.678c-2.361,-0.539 -4.397,-2.169 -6.108,-4.892l-19.548,-31.091c-3.147,-5.006 -6.383,-8.057 -9.707,-9.154c-3.324,-1.096 -6.962,-0.402 -10.914,2.083c-4.831,3.037 -7.721,6.968 -8.67,11.793c-0.95,4.824 0.149,9.74 3.297,14.746l18.139,28.852c3.534,5.621 2.534,10.171 -2.999,13.649Z" style="fill:#4a059d;fill-rule:nonzero;"/><path d="M2039.97,2278.9c-4.404,3.293 -8.966,5.376 -13.688,6.25c-4.722,0.875 -9.146,0.588 -13.273,-0.861c-4.127,-1.448 -7.557,-4 -10.29,-7.656c-3.354,-4.487 -4.846,-8.909 -4.477,-13.266c0.37,-4.357 2.738,-9.073 7.103,-14.15c4.365,-5.077 10.952,-10.907 19.76,-17.492l6.231,-4.659l6.709,8.974l-6.107,4.566c-5.152,3.851 -9.079,7.175 -11.78,9.972c-2.702,2.797 -4.247,5.279 -4.634,7.447c-0.387,2.168 0.227,4.332 1.842,6.492c2.05,2.742 4.683,4.271 7.898,4.588c3.216,0.316 6.527,-0.799 9.934,-3.346c2.742,-2.05 4.691,-4.511 5.847,-7.383c1.156,-2.872 1.519,-5.895 1.088,-9.071c-0.431,-3.175 -1.733,-6.217 -3.908,-9.125l-10.715,-14.333c-3.106,-4.155 -6.256,-6.463 -9.451,-6.924c-3.194,-0.462 -6.952,0.922 -11.273,4.152c-2.409,1.802 -4.789,4.034 -7.137,6.696c-2.349,2.663 -4.533,5.85 -6.551,9.561c-1.02,1.928 -2.256,3.176 -3.71,3.744c-1.453,0.569 -2.9,0.582 -4.342,0.04c-1.441,-0.541 -2.627,-1.436 -3.559,-2.682c-0.932,-1.246 -1.516,-2.72 -1.752,-4.422c-0.236,-1.702 0.218,-3.434 1.362,-5.196c2.642,-4.436 5.481,-8.306 8.515,-11.611c3.035,-3.305 6.006,-6.044 8.914,-8.218c5.983,-4.473 11.589,-7.239 16.82,-8.3c5.23,-1.06 10.183,-0.456 14.858,1.813c4.676,2.269 9.188,6.312 13.536,12.128l22.362,29.914c1.926,2.575 2.778,5.015 2.556,7.318c-0.221,2.302 -1.495,4.323 -3.822,6.063c-2.326,1.739 -4.646,2.404 -6.959,1.996c-2.313,-0.408 -4.432,-1.9 -6.358,-4.476l-4.472,-5.983l0.997,-0.745c1.593,3.343 2.329,6.711 2.21,10.103c-0.12,3.392 -1.033,6.633 -2.739,9.722c-1.706,3.089 -4.221,5.876 -7.545,8.36Z" style="fill:#4a059d;fill-rule:nonzero;"/><path d="M2110.47,2222.59c-6.567,5.569 -13.106,7.884 -19.617,6.944c-6.51,-0.94 -12.852,-5.049 -19.026,-12.328l-47.61,-56.136c-2.08,-2.453 -3.024,-4.849 -2.832,-7.189c0.193,-2.339 1.475,-4.515 3.849,-6.529c2.374,-2.013 4.75,-2.94 7.129,-2.781c2.379,0.159 4.609,1.464 6.689,3.917l47.007,55.424c3.086,3.639 6.139,5.675 9.158,6.107c3.02,0.432 5.953,-0.559 8.802,-2.975c0.633,-0.537 1.209,-1.06 1.729,-1.569c0.521,-0.51 1.024,-1.039 1.511,-1.588c0.974,-1.097 1.977,-1.438 3.01,-1.022c1.033,0.416 2.523,1.771 4.469,4.066c1.677,1.978 2.59,3.856 2.738,5.635c0.149,1.779 -0.587,3.559 -2.205,5.339c-0.724,0.75 -1.488,1.534 -2.291,2.351c-0.803,0.818 -1.64,1.595 -2.51,2.334Z" style="fill:#4a059d;fill-rule:nonzero;"/></g><g id="Logo-CertMind" serif:id="Logo CertMind"><path d="M895.272,453.948c16.35,0 30.762,4.988 43.233,14.688c12.3,9.362 20.733,21.041 25.042,35.541c0.237,0.792 -0.371,1.596 -1.196,1.596l-34.592,0c-1.25,0 -2.387,-0.65 -3.104,-1.675c-6.479,-9.266 -16.804,-14.954 -29.104,-14.954c-10.258,0 -18.571,3.604 -25.5,10.533c-6.925,6.925 -10.254,15.517 -10.254,25.771c-0,10.259 3.329,19.125 10.254,26.054c6.929,6.93 15.242,10.255 25.5,10.255c11.529,-0 21.329,-4.959 27.983,-13.705c0.725,-0.95 1.821,-1.541 3.017,-1.541l35.475,-0c0.837,-0 1.45,0.829 1.187,1.625c-4.566,13.966 -12.975,25.608 -24.983,34.683c-12.471,9.421 -26.883,14.133 -42.958,14.133c-38.521,0.83 -72.334,-32.979 -71.504,-71.504c-0.83,-38.521 32.983,-72.329 71.504,-71.5" style="fill:#4a059d;fill-rule:nonzero;"/><path d="M1084.83,510.761c-5.541,-13.025 -18.566,-21.617 -32.7,-21.617c-15.52,0 -26.883,8.313 -32.704,21.617l65.404,0Zm38.525,11.642l0.009,0.175c0.429,9.354 -6.884,17.008 -16.246,17.008l-87.692,0c3.325,13.579 15.242,22.171 31.596,22.171c11.104,-0 17.708,-3.175 23.433,-7.721c0.259,-0.204 0.58,-0.317 0.909,-0.317l40.154,0.263c1.071,0.004 1.792,1.129 1.325,2.092c-11.796,24.362 -36.683,40.879 -64.713,40.879c-39.079,0.829 -72.333,-32.704 -71.504,-71.225c-0.829,-37.967 31.871,-72.609 70.396,-71.779c35.196,-0 71.225,26.05 72.333,68.454" style="fill:#4a059d;fill-rule:nonzero;"/><path d="M1201.37,455.609l-1.121,0l0,0.009c-35.233,0.179 -58.879,22.346 -58.879,66.229l0,71.425c0,0.808 0.654,1.462 1.467,1.462l33.096,0c0.812,0 1.466,-0.654 1.466,-1.462l0,-71.425c0,-21.342 7.759,-31.038 23.554,-31.038l0,-0.004l0.417,0c0.538,0 0.975,-0.437 0.975,-0.975l0,-33.246c0,-0.537 -0.437,-0.975 -0.975,-0.975" style="fill:#4a059d;fill-rule:nonzero;"/><path d="M1274.39,491.362l-0,37.967c-0,21.558 6.812,30.541 23.496,31.02c0.8,0.025 1.446,0.659 1.446,1.459l-0,32.271c-0,0.816 -0.68,1.487 -1.496,1.475c-36.546,-0.571 -59.475,-22.2 -59.475,-66.225l-0,-37.967l-19.529,-0c-0.542,-0 -0.98,-0.438 -0.98,-0.975l0,-33.246c0,-0.537 0.438,-0.975 0.98,-0.975l19.529,0l-0,-53.687c-0,-0.809 0.654,-1.463 1.466,-1.463l33.096,0c0.813,0 1.467,0.654 1.467,1.463l-0,53.687l23.967,0c0.537,0 0.975,0.438 0.975,0.975l-0,33.246c-0,0.537 -0.438,0.975 -0.975,0.975l-23.967,-0Z" style="fill:#4a059d;fill-rule:nonzero;"/><path d="M1529.36,594.735c-19.9,0 -36.029,-16.129 -36.029,-36.029l-0,-36.858c-0,-22.171 -8.313,-32.704 -26.329,-32.704c-17.738,-0 -26.329,10.533 -26.329,32.704l-0,71.421c-0,0.812 -0.655,1.466 -1.463,1.466l-33.1,0c-0.808,0 -1.462,-0.654 -1.462,-1.466l-0,-71.421c-0,-22.171 -8.317,-32.704 -26.33,-32.704c-17.737,-0 -26.329,10.533 -26.329,32.704l0,71.421c0,0.812 -0.654,1.466 -1.462,1.466l-33.1,0c-0.809,0 -1.467,-0.654 -1.467,-1.466l0,-71.421c0,-44.621 24.946,-67.9 62.358,-67.9c18.567,-0 34.363,6.654 44.342,19.125c9.975,-12.471 25.775,-19.125 44.342,-19.125c37.412,-0 62.358,23.279 62.358,67.9l0,72.887Z" style="fill:#4a019d;fill-rule:nonzero;"/><path d="M1745.37,594.735c-19.896,0 -36.029,-16.129 -36.029,-36.029l-0,-36.858c-0,-22.45 -7.484,-32.704 -24.942,-32.704c-17.458,-0 -24.942,10.254 -24.942,32.704l0,71.421c0,0.812 -0.654,1.466 -1.466,1.466l-33.096,0c-0.808,0 -1.467,-0.654 -1.467,-1.466l0,-71.421c0,-45.175 24.113,-67.9 60.971,-67.9c36.858,-0 60.971,22.725 60.971,67.9l-0,72.887Z" style="fill:#4a059d;fill-rule:nonzero;"/><path d="M1809.39,551.501c6.65,6.929 14.967,10.254 25.221,10.254c10.254,-0 18.567,-3.325 25.496,-10.254c6.929,-6.929 10.254,-15.796 10.254,-26.05c0,-10.254 -3.325,-18.846 -10.254,-25.775c-6.929,-6.929 -15.242,-10.529 -25.496,-10.529c-10.254,-0 -18.571,3.6 -25.221,10.529c-6.65,6.929 -9.975,15.521 -9.975,25.775c0,10.254 3.325,19.121 9.975,26.05m-46.004,-26.05c-0.833,-38.525 32.979,-72.334 71.5,-71.504c13.583,-0 25.221,3.604 34.921,10.533l-0,-27.438c-0,-20.05 16.254,-36.304 36.304,-36.304l0,124.713c0.833,38.521 -32.7,72.333 -71.225,71.5c-38.521,0.833 -72.333,-32.979 -71.5,-71.5" style="fill:#4a059d;fill-rule:nonzero;"/><path d="M1597.74,499.272l-30.43,-0c-6.733,-0 -12.187,-5.459 -12.187,-12.188l-0,-30.429c-0,-0.271 0.217,-0.488 0.487,-0.488l30.43,0c6.733,0 12.187,5.455 12.187,12.184l0,30.433c0,0.271 -0.217,0.488 -0.487,0.488" style="fill:#1ec2df;fill-rule:nonzero;"/><path d="M1597.74,594.735l-30.43,0c-6.733,0 -12.187,-5.454 -12.187,-12.187l-0,-30.429c-0,-0.271 0.217,-0.488 0.487,-0.488l30.43,0c6.733,0 12.187,5.454 12.187,12.183l0,30.434c0,0.271 -0.217,0.487 -0.487,0.487" style="fill:#4a059d;fill-rule:nonzero;"/></g><path d="M892.169,748.046c-1.5,-0 -2.708,-0.361 -3.625,-1.084c-0.916,-0.722 -1.652,-1.861 -2.208,-3.416l-17.417,-49.25c-0.611,-1.778 -0.486,-3.278 0.375,-4.5c0.862,-1.223 2.32,-1.834 4.375,-1.834c1.5,0 2.667,0.348 3.5,1.042c0.834,0.694 1.5,1.792 2,3.292l15,44.5l-3.333,-0l15.667,-44.417c0.555,-1.5 1.25,-2.611 2.083,-3.333c0.833,-0.723 1.917,-1.084 3.25,-1.084c1.333,0 2.389,0.361 3.167,1.084c0.778,0.722 1.444,1.861 2,3.416l15.166,44.334l-2.916,-0l15.25,-44.5c0.5,-1.445 1.166,-2.528 2,-3.25c0.833,-0.723 1.972,-1.084 3.416,-1.084c1.778,0 3.084,0.611 3.917,1.834c0.833,1.222 0.945,2.722 0.333,4.5l-17.583,49.333c-0.555,1.5 -1.278,2.611 -2.167,3.333c-0.888,0.723 -2.083,1.084 -3.583,1.084c-1.5,-0 -2.694,-0.361 -3.583,-1.084c-0.889,-0.722 -1.611,-1.861 -2.167,-3.416l-14.5,-41.334l1.917,0l-14.667,41.417c-0.555,1.5 -1.264,2.611 -2.125,3.333c-0.861,0.723 -2.042,1.084 -3.542,1.084Z" style="fill:#4a059d;fill-rule:nonzero;"/><path d="M983.336,748.212c-4.611,0 -8.583,-0.861 -11.917,-2.583c-3.333,-1.722 -5.902,-4.167 -7.708,-7.333c-1.805,-3.167 -2.708,-6.917 -2.708,-11.25c-0,-4.223 0.875,-7.917 2.625,-11.084c1.75,-3.166 4.166,-5.652 7.25,-7.458c3.083,-1.806 6.597,-2.708 10.541,-2.708c2.889,-0 5.487,0.472 7.792,1.416c2.306,0.945 4.278,2.306 5.917,4.084c1.639,1.777 2.889,3.93 3.75,6.458c0.861,2.528 1.291,5.375 1.291,8.542c0,1 -0.347,1.764 -1.041,2.291c-0.695,0.528 -1.681,0.792 -2.959,0.792l-26.75,0l0,-6l23.417,0l-1.333,1.25c-0,-2.556 -0.375,-4.694 -1.125,-6.417c-0.75,-1.722 -1.834,-3.041 -3.25,-3.958c-1.417,-0.917 -3.181,-1.375 -5.292,-1.375c-2.333,0 -4.319,0.542 -5.958,1.625c-1.639,1.083 -2.889,2.611 -3.75,4.583c-0.861,1.973 -1.292,4.32 -1.292,7.042l0,0.583c0,4.556 1.07,7.959 3.208,10.209c2.139,2.25 5.292,3.375 9.459,3.375c1.444,-0 3.069,-0.181 4.875,-0.542c1.805,-0.361 3.514,-0.986 5.125,-1.875c1.166,-0.667 2.194,-0.958 3.083,-0.875c0.889,0.083 1.597,0.403 2.125,0.958c0.528,0.556 0.847,1.236 0.958,2.042c0.112,0.806 -0.041,1.625 -0.458,2.458c-0.417,0.834 -1.125,1.556 -2.125,2.167c-1.944,1.222 -4.18,2.125 -6.708,2.708c-2.528,0.584 -4.875,0.875 -7.042,0.875Z" style="fill:#4a059d;fill-rule:nonzero;"/><path d="M1059.34,748.212c-6.111,0 -11.347,-1.236 -15.708,-3.708c-4.361,-2.472 -7.709,-5.972 -10.042,-10.5c-2.333,-4.528 -3.5,-9.875 -3.5,-16.042c0,-4.611 0.667,-8.764 2,-12.458c1.333,-3.694 3.25,-6.861 5.75,-9.5c2.5,-2.639 5.57,-4.667 9.208,-6.083c3.639,-1.417 7.737,-2.125 12.292,-2.125c3.056,-0 6.056,0.389 9,1.166c2.945,0.778 5.528,1.889 7.75,3.334c1.167,0.722 1.945,1.597 2.333,2.625c0.389,1.027 0.473,2.027 0.25,3c-0.222,0.972 -0.68,1.791 -1.375,2.458c-0.694,0.667 -1.555,1.042 -2.583,1.125c-1.028,0.083 -2.153,-0.264 -3.375,-1.042c-1.722,-1.111 -3.583,-1.916 -5.583,-2.416c-2,-0.5 -4.028,-0.75 -6.084,-0.75c-3.944,-0 -7.277,0.805 -10,2.416c-2.722,1.611 -4.777,3.945 -6.166,7c-1.389,3.056 -2.084,6.806 -2.084,11.25c0,4.389 0.695,8.139 2.084,11.25c1.389,3.111 3.444,5.473 6.166,7.084c2.723,1.611 6.056,2.416 10,2.416c2.112,0 4.195,-0.264 6.25,-0.791c2.056,-0.528 4,-1.348 5.834,-2.459c1.222,-0.722 2.319,-1.041 3.291,-0.958c0.973,0.083 1.792,0.431 2.459,1.042c0.666,0.611 1.111,1.375 1.333,2.291c0.222,0.917 0.167,1.861 -0.167,2.834c-0.333,0.972 -1,1.819 -2,2.541c-2.222,1.611 -4.875,2.848 -7.958,3.709c-3.083,0.861 -6.208,1.291 -9.375,1.291Z" style="fill:#4a059d;fill-rule:nonzero;"/><path d="M1107.75,748.212c-4.611,0 -8.584,-0.861 -11.917,-2.583c-3.333,-1.722 -5.903,-4.167 -7.708,-7.333c-1.806,-3.167 -2.709,-6.917 -2.709,-11.25c0,-4.223 0.875,-7.917 2.625,-11.084c1.75,-3.166 4.167,-5.652 7.25,-7.458c3.084,-1.806 6.598,-2.708 10.542,-2.708c2.889,-0 5.486,0.472 7.792,1.416c2.305,0.945 4.278,2.306 5.916,4.084c1.639,1.777 2.889,3.93 3.75,6.458c0.862,2.528 1.292,5.375 1.292,8.542c0,1 -0.347,1.764 -1.042,2.291c-0.694,0.528 -1.68,0.792 -2.958,0.792l-26.75,0l0,-6l23.417,0l-1.334,1.25c0,-2.556 -0.375,-4.694 -1.125,-6.417c-0.75,-1.722 -1.833,-3.041 -3.25,-3.958c-1.416,-0.917 -3.18,-1.375 -5.291,-1.375c-2.334,0 -4.32,0.542 -5.959,1.625c-1.638,1.083 -2.888,2.611 -3.75,4.583c-0.861,1.973 -1.291,4.32 -1.291,7.042l-0,0.583c-0,4.556 1.069,7.959 3.208,10.209c2.139,2.25 5.292,3.375 9.458,3.375c1.445,-0 3.07,-0.181 4.875,-0.542c1.806,-0.361 3.514,-0.986 5.125,-1.875c1.167,-0.667 2.195,-0.958 3.084,-0.875c0.889,0.083 1.597,0.403 2.125,0.958c0.528,0.556 0.847,1.236 0.958,2.042c0.111,0.806 -0.042,1.625 -0.458,2.458c-0.417,0.834 -1.125,1.556 -2.125,2.167c-1.945,1.222 -4.181,2.125 -6.709,2.708c-2.527,0.584 -4.875,0.875 -7.041,0.875Z" style="fill:#4a059d;fill-rule:nonzero;"/><path d="M1138.17,748.046c-1.722,-0 -3.041,-0.459 -3.958,-1.375c-0.917,-0.917 -1.375,-2.236 -1.375,-3.959l0,-31.5c0,-1.722 0.445,-3.027 1.333,-3.916c0.889,-0.889 2.139,-1.334 3.75,-1.334c1.612,0 2.862,0.445 3.75,1.334c0.889,0.889 1.334,2.194 1.334,3.916l-0,5.25l-0.834,0c0.778,-3.333 2.306,-5.861 4.584,-7.583c2.278,-1.722 5.305,-2.75 9.083,-3.083c1.167,-0.111 2.097,0.18 2.792,0.875c0.694,0.694 1.097,1.764 1.208,3.208c0.111,1.389 -0.208,2.514 -0.958,3.375c-0.75,0.861 -1.875,1.375 -3.375,1.542l-1.834,0.166c-3.388,0.334 -5.944,1.375 -7.666,3.125c-1.722,1.75 -2.584,4.209 -2.584,7.375l0,17.25c0,1.723 -0.444,3.042 -1.333,3.959c-0.889,0.916 -2.194,1.375 -3.917,1.375Z" style="fill:#4a059d;fill-rule:nonzero;"/><path d="M1184.17,748.212c-3.611,0 -6.625,-0.611 -9.041,-1.833c-2.417,-1.222 -4.209,-3.014 -5.375,-5.375c-1.167,-2.361 -1.75,-5.292 -1.75,-8.792l-0,-17.75l-4.334,0c-1.333,0 -2.361,-0.347 -3.083,-1.041c-0.722,-0.695 -1.083,-1.653 -1.083,-2.875c-0,-1.278 0.361,-2.25 1.083,-2.917c0.722,-0.667 1.75,-1 3.083,-1l4.334,0l-0,-7.583c-0,-1.723 0.458,-3.028 1.375,-3.917c0.916,-0.889 2.208,-1.333 3.875,-1.333c1.666,-0 2.944,0.444 3.833,1.333c0.889,0.889 1.333,2.194 1.333,3.917l0,7.583l8.834,0c1.333,0 2.361,0.333 3.083,1c0.722,0.667 1.083,1.639 1.083,2.917c0,1.222 -0.361,2.18 -1.083,2.875c-0.722,0.694 -1.75,1.041 -3.083,1.041l-8.834,0l0,17.167c0,2.667 0.584,4.667 1.75,6c1.167,1.333 3.056,2 5.667,2c0.945,0 1.778,-0.083 2.5,-0.25c0.722,-0.167 1.361,-0.278 1.917,-0.333c0.666,-0.056 1.222,0.152 1.666,0.625c0.445,0.472 0.667,1.43 0.667,2.875c0,1.111 -0.18,2.097 -0.542,2.958c-0.361,0.861 -1.013,1.458 -1.958,1.792c-0.722,0.222 -1.667,0.43 -2.833,0.625c-1.167,0.194 -2.195,0.291 -3.084,0.291Z" style="fill:#4a059d;fill-rule:nonzero;"/><path d="M1202.67,747.962c-1.666,0 -2.944,-0.5 -3.833,-1.5c-0.889,-1 -1.333,-2.389 -1.333,-4.166l-0,-30.584c-0,-1.833 0.444,-3.236 1.333,-4.208c0.889,-0.972 2.167,-1.458 3.833,-1.458c1.667,-0 2.959,0.486 3.875,1.458c0.917,0.972 1.375,2.375 1.375,4.208l0,30.584c0,1.777 -0.444,3.166 -1.333,4.166c-0.889,1 -2.194,1.5 -3.917,1.5Zm0,-49.666c-1.944,-0 -3.458,-0.486 -4.541,-1.459c-1.084,-0.972 -1.625,-2.319 -1.625,-4.041c-0,-1.778 0.541,-3.139 1.625,-4.084c1.083,-0.944 2.597,-1.416 4.541,-1.416c2,-0 3.528,0.472 4.584,1.416c1.055,0.945 1.583,2.306 1.583,4.084c0,1.722 -0.528,3.069 -1.583,4.041c-1.056,0.973 -2.584,1.459 -4.584,1.459Z" style="fill:#4a059d;fill-rule:nonzero;"/><path d="M1226.75,748.046c-1.667,-0 -2.959,-0.459 -3.875,-1.375c-0.917,-0.917 -1.375,-2.236 -1.375,-3.959l-0,-28.25l-3.834,0c-1.333,0 -2.361,-0.347 -3.083,-1.041c-0.722,-0.695 -1.083,-1.653 -1.083,-2.875c-0,-1.278 0.361,-2.25 1.083,-2.917c0.722,-0.667 1.75,-1 3.083,-1l6.834,0l-3,2.75l-0,-2.833c-0,-5.611 1.416,-9.861 4.25,-12.75c2.833,-2.889 6.944,-4.611 12.333,-5.167l2.5,-0.25c1.278,-0.111 2.292,0.056 3.042,0.5c0.75,0.444 1.25,1.042 1.5,1.792c0.25,0.75 0.291,1.527 0.125,2.333c-0.167,0.806 -0.5,1.5 -1,2.083c-0.5,0.584 -1.139,0.903 -1.917,0.959l-2,0.166c-2.944,0.223 -5.083,1.028 -6.417,2.417c-1.333,1.389 -2,3.472 -2,6.25l0,3.083l-1.333,-1.333l23.083,0c1.667,0 2.945,0.486 3.834,1.458c0.889,0.973 1.333,2.348 1.333,4.125l0,30.084c0,1.777 -0.43,3.166 -1.292,4.166c-0.861,1 -2.152,1.5 -3.875,1.5c-1.666,0 -2.958,-0.5 -3.875,-1.5c-0.916,-1 -1.375,-2.389 -1.375,-4.166l0,-27.834l-16.5,0l0,28.25c0,3.556 -1.722,5.334 -5.166,5.334Zm27.083,-49.75c-1.889,-0 -3.347,-0.486 -4.375,-1.459c-1.028,-0.972 -1.542,-2.319 -1.542,-4.041c0,-1.778 0.514,-3.139 1.542,-4.084c1.028,-0.944 2.486,-1.416 4.375,-1.416c1.945,-0 3.431,0.472 4.458,1.416c1.028,0.945 1.542,2.306 1.542,4.084c0,1.722 -0.514,3.069 -1.542,4.041c-1.027,0.973 -2.513,1.459 -4.458,1.459Z" style="fill:#4a059d;fill-rule:nonzero;"/><path d="M1288.5,748.212c-4.278,0 -8,-0.875 -11.167,-2.625c-3.167,-1.75 -5.611,-4.236 -7.333,-7.458c-1.722,-3.222 -2.584,-7 -2.584,-11.333c0,-3.278 0.487,-6.209 1.459,-8.792c0.972,-2.583 2.375,-4.778 4.208,-6.583c1.833,-1.806 4.056,-3.195 6.667,-4.167c2.611,-0.972 5.528,-1.458 8.75,-1.458c1.833,-0 3.819,0.25 5.958,0.75c2.139,0.5 4.153,1.333 6.042,2.5c0.889,0.555 1.472,1.222 1.75,2c0.278,0.777 0.333,1.569 0.166,2.375c-0.166,0.805 -0.513,1.5 -1.041,2.083c-0.528,0.583 -1.181,0.944 -1.959,1.083c-0.777,0.139 -1.638,-0.041 -2.583,-0.541c-1.222,-0.723 -2.472,-1.264 -3.75,-1.625c-1.278,-0.361 -2.5,-0.542 -3.667,-0.542c-1.833,0 -3.444,0.292 -4.833,0.875c-1.389,0.583 -2.569,1.417 -3.542,2.5c-0.972,1.083 -1.708,2.431 -2.208,4.042c-0.5,1.611 -0.75,3.472 -0.75,5.583c0,4.111 0.986,7.347 2.958,9.708c1.973,2.361 4.764,3.542 8.375,3.542c1.167,0 2.375,-0.167 3.625,-0.5c1.25,-0.333 2.514,-0.861 3.792,-1.583c0.945,-0.5 1.792,-0.667 2.542,-0.5c0.75,0.166 1.375,0.541 1.875,1.125c0.5,0.583 0.805,1.277 0.916,2.083c0.112,0.806 0.014,1.597 -0.291,2.375c-0.306,0.778 -0.875,1.417 -1.709,1.917c-1.833,1.111 -3.777,1.916 -5.833,2.416c-2.055,0.5 -4,0.75 -5.833,0.75Z" style="fill:#4a059d;fill-rule:nonzero;"/><path d="M1322.42,748.212c-2.944,0 -5.569,-0.569 -7.875,-1.708c-2.305,-1.139 -4.111,-2.681 -5.416,-4.625c-1.306,-1.944 -1.959,-4.139 -1.959,-6.583c0,-3 0.778,-5.375 2.334,-7.125c1.555,-1.75 4.083,-3.014 7.583,-3.792c3.5,-0.778 8.195,-1.167 14.083,-1.167l4.167,0l0,6l-4.083,0c-3.445,0 -6.195,0.167 -8.25,0.5c-2.056,0.334 -3.514,0.903 -4.375,1.709c-0.861,0.805 -1.292,1.93 -1.292,3.375c0,1.833 0.639,3.333 1.917,4.5c1.278,1.166 3.055,1.75 5.333,1.75c1.833,-0 3.458,-0.431 4.875,-1.292c1.417,-0.861 2.542,-2.042 3.375,-3.542c0.833,-1.5 1.25,-3.222 1.25,-5.166l0,-9.584c0,-2.777 -0.611,-4.777 -1.833,-6c-1.222,-1.222 -3.278,-1.833 -6.167,-1.833c-1.611,0 -3.347,0.194 -5.208,0.583c-1.861,0.389 -3.82,1.056 -5.875,2c-1.056,0.5 -1.986,0.639 -2.792,0.417c-0.805,-0.222 -1.43,-0.681 -1.875,-1.375c-0.444,-0.694 -0.667,-1.458 -0.667,-2.292c0,-0.833 0.223,-1.652 0.667,-2.458c0.445,-0.806 1.195,-1.403 2.25,-1.792c2.556,-1.055 5.014,-1.805 7.375,-2.25c2.361,-0.444 4.514,-0.666 6.458,-0.666c4,-0 7.292,0.611 9.875,1.833c2.584,1.222 4.514,3.069 5.792,5.542c1.278,2.472 1.917,5.652 1.917,9.541l-0,20c-0,1.723 -0.417,3.042 -1.25,3.959c-0.834,0.916 -2.028,1.375 -3.584,1.375c-1.555,-0 -2.763,-0.459 -3.625,-1.375c-0.861,-0.917 -1.291,-2.236 -1.291,-3.959l-0,-4l0.666,0c-0.388,1.945 -1.152,3.625 -2.291,5.042c-1.139,1.417 -2.57,2.514 -4.292,3.292c-1.722,0.777 -3.694,1.166 -5.917,1.166Z" style="fill:#4a059d;fill-rule:nonzero;"/><path d="M1373.25,748.212c-3.611,0 -6.625,-0.611 -9.042,-1.833c-2.417,-1.222 -4.208,-3.014 -5.375,-5.375c-1.167,-2.361 -1.75,-5.292 -1.75,-8.792l0,-17.75l-4.333,0c-1.334,0 -2.361,-0.347 -3.084,-1.041c-0.722,-0.695 -1.083,-1.653 -1.083,-2.875c0,-1.278 0.361,-2.25 1.083,-2.917c0.723,-0.667 1.75,-1 3.084,-1l4.333,0l0,-7.583c0,-1.723 0.458,-3.028 1.375,-3.917c0.917,-0.889 2.208,-1.333 3.875,-1.333c1.667,-0 2.945,0.444 3.833,1.333c0.889,0.889 1.334,2.194 1.334,3.917l-0,7.583l8.833,0c1.333,0 2.361,0.333 3.083,1c0.723,0.667 1.084,1.639 1.084,2.917c-0,1.222 -0.361,2.18 -1.084,2.875c-0.722,0.694 -1.75,1.041 -3.083,1.041l-8.833,0l-0,17.167c-0,2.667 0.583,4.667 1.75,6c1.166,1.333 3.055,2 5.666,2c0.945,0 1.778,-0.083 2.5,-0.25c0.723,-0.167 1.362,-0.278 1.917,-0.333c0.667,-0.056 1.222,0.152 1.667,0.625c0.444,0.472 0.666,1.43 0.666,2.875c0,1.111 -0.18,2.097 -0.541,2.958c-0.361,0.861 -1.014,1.458 -1.959,1.792c-0.722,0.222 -1.666,0.43 -2.833,0.625c-1.167,0.194 -2.194,0.291 -3.083,0.291Z" style="fill:#4a059d;fill-rule:nonzero;"/><path d="M1406.67,748.212c-4.611,0 -8.583,-0.861 -11.916,-2.583c-3.334,-1.722 -5.903,-4.167 -7.709,-7.333c-1.805,-3.167 -2.708,-6.917 -2.708,-11.25c0,-4.223 0.875,-7.917 2.625,-11.084c1.75,-3.166 4.167,-5.652 7.25,-7.458c3.083,-1.806 6.597,-2.708 10.542,-2.708c2.889,-0 5.486,0.472 7.791,1.416c2.306,0.945 4.278,2.306 5.917,4.084c1.639,1.777 2.889,3.93 3.75,6.458c0.861,2.528 1.292,5.375 1.292,8.542c-0,1 -0.347,1.764 -1.042,2.291c-0.694,0.528 -1.68,0.792 -2.958,0.792l-26.75,0l-0,-6l23.416,0l-1.333,1.25c0,-2.556 -0.375,-4.694 -1.125,-6.417c-0.75,-1.722 -1.833,-3.041 -3.25,-3.958c-1.417,-0.917 -3.18,-1.375 -5.292,-1.375c-2.333,0 -4.319,0.542 -5.958,1.625c-1.639,1.083 -2.889,2.611 -3.75,4.583c-0.861,1.973 -1.292,4.32 -1.292,7.042l0,0.583c0,4.556 1.07,7.959 3.209,10.209c2.139,2.25 5.291,3.375 9.458,3.375c1.445,-0 3.07,-0.181 4.875,-0.542c1.806,-0.361 3.514,-0.986 5.125,-1.875c1.167,-0.667 2.195,-0.958 3.083,-0.875c0.889,0.083 1.598,0.403 2.125,0.958c0.528,0.556 0.848,1.236 0.959,2.042c0.111,0.806 -0.042,1.625 -0.459,2.458c-0.416,0.834 -1.125,1.556 -2.125,2.167c-1.944,1.222 -4.18,2.125 -6.708,2.708c-2.528,0.584 -4.875,0.875 -7.042,0.875Z" style="fill:#4a059d;fill-rule:nonzero;"/><path d="M1474.67,748.046c-1.722,-0 -3.041,-0.486 -3.958,-1.459c-0.917,-0.972 -1.375,-2.347 -1.375,-4.125l0,-25.333l2.25,6.417l-20.083,-28.25c-0.722,-1 -1.042,-2.07 -0.959,-3.209c0.084,-1.139 0.542,-2.111 1.375,-2.916c0.834,-0.806 2,-1.209 3.5,-1.209c1.112,0 2.125,0.278 3.042,0.834c0.917,0.555 1.792,1.416 2.625,2.583l14.917,21.167l-2.334,-0l15,-21.167c0.889,-1.222 1.75,-2.097 2.584,-2.625c0.833,-0.528 1.861,-0.792 3.083,-0.792c1.445,0 2.57,0.375 3.375,1.125c0.806,0.75 1.222,1.681 1.25,2.792c0.028,1.111 -0.375,2.278 -1.208,3.5l-19.917,28.167l2.167,-6.417l-0,25.333c-0,3.723 -1.778,5.584 -5.334,5.584Z" style="fill:#4a059d;fill-rule:nonzero;"/><path d="M1524.42,748.212c-4.222,0 -7.888,-0.861 -11,-2.583c-3.111,-1.722 -5.527,-4.181 -7.25,-7.375c-1.722,-3.194 -2.583,-6.958 -2.583,-11.292c0,-3.277 0.486,-6.208 1.458,-8.791c0.973,-2.584 2.375,-4.806 4.209,-6.667c1.833,-1.861 4.028,-3.278 6.583,-4.25c2.556,-0.972 5.417,-1.458 8.583,-1.458c4.223,-0 7.889,0.861 11,2.583c3.112,1.722 5.528,4.167 7.25,7.333c1.723,3.167 2.584,6.917 2.584,11.25c-0,3.278 -0.486,6.223 -1.459,8.834c-0.972,2.611 -2.375,4.847 -4.208,6.708c-1.833,1.861 -4.028,3.278 -6.583,4.25c-2.556,0.972 -5.417,1.458 -8.584,1.458Zm0,-7.916c2.056,-0 3.862,-0.5 5.417,-1.5c1.556,-1 2.764,-2.486 3.625,-4.459c0.861,-1.972 1.292,-4.43 1.292,-7.375c-0,-4.444 -0.945,-7.764 -2.834,-9.958c-1.888,-2.194 -4.388,-3.292 -7.5,-3.292c-2.055,0 -3.861,0.486 -5.416,1.459c-1.556,0.972 -2.764,2.444 -3.625,4.416c-0.861,1.973 -1.292,4.431 -1.292,7.375c0,4.389 0.945,7.709 2.833,9.959c1.889,2.25 4.389,3.375 7.5,3.375Z" style="fill:#4a059d;fill-rule:nonzero;"/><path d="M1568.59,748.212c-3.389,0 -6.194,-0.625 -8.417,-1.875c-2.222,-1.25 -3.875,-3.125 -4.958,-5.625c-1.083,-2.5 -1.625,-5.611 -1.625,-9.333l0,-20.167c0,-1.777 0.445,-3.097 1.333,-3.958c0.889,-0.861 2.167,-1.292 3.834,-1.292c1.666,0 2.958,0.431 3.875,1.292c0.916,0.861 1.375,2.181 1.375,3.958l-0,20.334c-0,2.889 0.583,5.027 1.75,6.416c1.166,1.389 3.028,2.084 5.583,2.084c2.778,-0 5.056,-0.959 6.833,-2.875c1.778,-1.917 2.667,-4.459 2.667,-7.625l0,-18.334c0,-1.777 0.445,-3.097 1.333,-3.958c0.889,-0.861 2.167,-1.292 3.834,-1.292c1.666,0 2.958,0.431 3.875,1.292c0.916,0.861 1.375,2.181 1.375,3.958l-0,31.5c-0,3.556 -1.695,5.334 -5.084,5.334c-1.611,-0 -2.861,-0.459 -3.75,-1.375c-0.888,-0.917 -1.333,-2.236 -1.333,-3.959l0,-6.333l1.167,2.5c-1.167,3 -2.931,5.306 -5.292,6.917c-2.361,1.611 -5.153,2.416 -8.375,2.416Z" style="fill:#4a059d;fill-rule:nonzero;"/><path d="M1607.42,748.046c-1.722,-0 -3.041,-0.459 -3.958,-1.375c-0.917,-0.917 -1.375,-2.236 -1.375,-3.959l0,-31.5c0,-1.722 0.445,-3.027 1.333,-3.916c0.889,-0.889 2.139,-1.334 3.75,-1.334c1.612,0 2.862,0.445 3.75,1.334c0.889,0.889 1.334,2.194 1.334,3.916l-0,5.25l-0.834,0c0.778,-3.333 2.306,-5.861 4.584,-7.583c2.278,-1.722 5.305,-2.75 9.083,-3.083c1.167,-0.111 2.097,0.18 2.792,0.875c0.694,0.694 1.097,1.764 1.208,3.208c0.111,1.389 -0.208,2.514 -0.958,3.375c-0.75,0.861 -1.875,1.375 -3.375,1.542l-1.834,0.166c-3.388,0.334 -5.944,1.375 -7.666,3.125c-1.722,1.75 -2.584,4.209 -2.584,7.375l0,17.25c0,1.723 -0.444,3.042 -1.333,3.959c-0.889,0.916 -2.194,1.375 -3.917,1.375Z" style="fill:#4a059d;fill-rule:nonzero;"/><path d="M1678.59,748.212c-2.444,0 -4.889,-0.18 -7.333,-0.541c-2.445,-0.361 -4.75,-0.917 -6.917,-1.667c-2.167,-0.75 -4.111,-1.681 -5.833,-2.792c-1,-0.666 -1.695,-1.472 -2.084,-2.416c-0.388,-0.945 -0.513,-1.875 -0.375,-2.792c0.139,-0.917 0.5,-1.722 1.084,-2.417c0.583,-0.694 1.319,-1.125 2.208,-1.291c0.889,-0.167 1.861,0.083 2.917,0.75c2.444,1.444 5.028,2.5 7.75,3.166c2.722,0.667 5.583,1 8.583,1c4.389,0 7.583,-0.736 9.583,-2.208c2,-1.472 3,-3.375 3,-5.708c0,-1.945 -0.708,-3.473 -2.125,-4.584c-1.416,-1.111 -3.847,-2.027 -7.291,-2.75l-9.167,-1.916c-5.278,-1.111 -9.208,-2.986 -11.792,-5.625c-2.583,-2.639 -3.875,-6.125 -3.875,-10.459c0,-2.722 0.556,-5.194 1.667,-7.416c1.111,-2.223 2.681,-4.139 4.708,-5.75c2.028,-1.611 4.445,-2.848 7.25,-3.709c2.806,-0.861 5.903,-1.291 9.292,-1.291c3.333,-0 6.5,0.416 9.5,1.25c3,0.833 5.695,2.055 8.083,3.666c0.889,0.611 1.487,1.361 1.792,2.25c0.306,0.889 0.375,1.764 0.208,2.625c-0.166,0.861 -0.555,1.598 -1.166,2.209c-0.611,0.611 -1.375,0.972 -2.292,1.083c-0.917,0.111 -1.958,-0.167 -3.125,-0.833c-2.055,-1.167 -4.139,-2 -6.25,-2.5c-2.111,-0.5 -4.389,-0.75 -6.833,-0.75c-2.556,-0 -4.75,0.361 -6.584,1.083c-1.833,0.722 -3.236,1.736 -4.208,3.042c-0.972,1.305 -1.458,2.847 -1.458,4.625c-0,2 0.666,3.597 2,4.791c1.333,1.195 3.611,2.125 6.833,2.792l9.083,1.917c5.5,1.166 9.598,3 12.292,5.5c2.695,2.5 4.042,5.833 4.042,10c-0,2.666 -0.542,5.083 -1.625,7.25c-1.084,2.166 -2.639,4.027 -4.667,5.583c-2.028,1.556 -4.458,2.75 -7.292,3.583c-2.833,0.834 -6.027,1.25 -9.583,1.25Z" style="fill:#4a059d;fill-rule:nonzero;"/><path d="M1715.09,748.046c-1.667,-0 -2.944,-0.459 -3.833,-1.375c-0.889,-0.917 -1.334,-2.236 -1.334,-3.959l0,-49.5c0,-1.722 0.445,-3.027 1.334,-3.916c0.889,-0.889 2.166,-1.334 3.833,-1.334c1.667,0 2.958,0.445 3.875,1.334c0.917,0.889 1.375,2.194 1.375,3.916l0,30.75l0.167,0l13.75,-14.5c1.111,-1.111 2.083,-1.972 2.916,-2.583c0.834,-0.611 1.973,-0.917 3.417,-0.917c1.445,0 2.542,0.375 3.292,1.125c0.75,0.75 1.125,1.653 1.125,2.709c-0,1.055 -0.5,2.111 -1.5,3.166l-14.5,15.334l-0,-4.334l15.916,17.167c1,1.056 1.459,2.125 1.375,3.208c-0.083,1.084 -0.541,1.973 -1.375,2.667c-0.833,0.694 -1.888,1.042 -3.166,1.042c-1.556,-0 -2.792,-0.306 -3.709,-0.917c-0.916,-0.611 -1.93,-1.528 -3.041,-2.75l-14.5,-15.167l-0.167,0l0,13.5c0,3.556 -1.75,5.334 -5.25,5.334Z" style="fill:#4a059d;fill-rule:nonzero;"/><path d="M1759.75,747.962c-1.667,0 -2.945,-0.5 -3.834,-1.5c-0.888,-1 -1.333,-2.389 -1.333,-4.166l0,-30.584c0,-1.833 0.445,-3.236 1.333,-4.208c0.889,-0.972 2.167,-1.458 3.834,-1.458c1.666,-0 2.958,0.486 3.875,1.458c0.916,0.972 1.375,2.375 1.375,4.208l-0,30.584c-0,1.777 -0.445,3.166 -1.334,4.166c-0.888,1 -2.194,1.5 -3.916,1.5Zm-0,-49.666c-1.945,-0 -3.459,-0.486 -4.542,-1.459c-1.083,-0.972 -1.625,-2.319 -1.625,-4.041c0,-1.778 0.542,-3.139 1.625,-4.084c1.083,-0.944 2.597,-1.416 4.542,-1.416c2,-0 3.528,0.472 4.583,1.416c1.056,0.945 1.583,2.306 1.583,4.084c0,1.722 -0.527,3.069 -1.583,4.041c-1.055,0.973 -2.583,1.459 -4.583,1.459Z" style="fill:#4a059d;fill-rule:nonzero;"/><path d="M1789.75,748.212c-4.611,0 -8.084,-1.319 -10.417,-3.958c-2.333,-2.639 -3.5,-6.514 -3.5,-11.625l0,-39.417c0,-1.722 0.445,-3.027 1.333,-3.916c0.889,-0.889 2.167,-1.334 3.834,-1.334c1.666,0 2.958,0.445 3.875,1.334c0.916,0.889 1.375,2.194 1.375,3.916l-0,38.917c-0,2.556 0.541,4.444 1.625,5.667c1.083,1.222 2.625,1.833 4.625,1.833c0.444,0 0.861,-0.014 1.25,-0.042c0.389,-0.027 0.778,-0.069 1.166,-0.125c0.778,-0.111 1.306,0.098 1.584,0.625c0.278,0.528 0.416,1.598 0.416,3.209c0,1.389 -0.277,2.472 -0.833,3.25c-0.555,0.777 -1.472,1.25 -2.75,1.416c-0.555,0.056 -1.139,0.111 -1.75,0.167c-0.611,0.056 -1.222,0.083 -1.833,0.083Z" style="fill:#4a059d;fill-rule:nonzero;"/><path d="M1816.34,748.212c-4.611,0 -8.083,-1.319 -10.417,-3.958c-2.333,-2.639 -3.5,-6.514 -3.5,-11.625l0,-39.417c0,-1.722 0.445,-3.027 1.334,-3.916c0.889,-0.889 2.166,-1.334 3.833,-1.334c1.667,0 2.958,0.445 3.875,1.334c0.917,0.889 1.375,2.194 1.375,3.916l0,38.917c0,2.556 0.542,4.444 1.625,5.667c1.083,1.222 2.625,1.833 4.625,1.833c0.445,0 0.861,-0.014 1.25,-0.042c0.389,-0.027 0.778,-0.069 1.167,-0.125c0.778,-0.111 1.305,0.098 1.583,0.625c0.278,0.528 0.417,1.598 0.417,3.209c-0,1.389 -0.278,2.472 -0.834,3.25c-0.555,0.777 -1.472,1.25 -2.75,1.416c-0.555,0.056 -1.138,0.111 -1.75,0.167c-0.611,0.056 -1.222,0.083 -1.833,0.083Z" style="fill:#4a059d;fill-rule:nonzero;"/><path d="M1843.92,748.212c-2.388,0 -4.916,-0.25 -7.583,-0.75c-2.667,-0.5 -5.055,-1.361 -7.167,-2.583c-0.888,-0.556 -1.513,-1.208 -1.875,-1.958c-0.361,-0.75 -0.5,-1.5 -0.416,-2.25c0.083,-0.75 0.361,-1.403 0.833,-1.959c0.472,-0.555 1.083,-0.916 1.833,-1.083c0.75,-0.167 1.57,-0.028 2.459,0.417c2.222,1.055 4.305,1.791 6.25,2.208c1.944,0.417 3.861,0.625 5.75,0.625c2.666,0 4.653,-0.458 5.958,-1.375c1.306,-0.917 1.958,-2.125 1.958,-3.625c0,-1.278 -0.43,-2.264 -1.291,-2.958c-0.861,-0.695 -2.153,-1.209 -3.875,-1.542l-8.334,-1.583c-3.444,-0.667 -6.069,-1.931 -7.875,-3.792c-1.805,-1.861 -2.708,-4.264 -2.708,-7.208c0,-2.667 0.736,-4.973 2.208,-6.917c1.473,-1.944 3.514,-3.444 6.125,-4.5c2.612,-1.056 5.612,-1.583 9,-1.583c2.445,-0 4.737,0.264 6.875,0.791c2.139,0.528 4.209,1.348 6.209,2.459c0.833,0.444 1.403,1.027 1.708,1.75c0.306,0.722 0.375,1.458 0.208,2.208c-0.166,0.75 -0.5,1.417 -1,2c-0.5,0.583 -1.125,0.944 -1.875,1.083c-0.75,0.139 -1.597,-0.014 -2.541,-0.458c-1.722,-0.889 -3.375,-1.528 -4.959,-1.917c-1.583,-0.389 -3.097,-0.583 -4.541,-0.583c-2.722,0 -4.736,0.472 -6.042,1.417c-1.305,0.944 -1.958,2.194 -1.958,3.75c-0,1.166 0.389,2.139 1.166,2.916c0.778,0.778 1.973,1.306 3.584,1.584l8.333,1.583c3.611,0.667 6.347,1.889 8.208,3.667c1.862,1.777 2.792,4.166 2.792,7.166c0,4.056 -1.583,7.236 -4.75,9.542c-3.167,2.306 -7.389,3.458 -12.667,3.458Z" style="fill:#4a059d;fill-rule:nonzero;"/></g></svg>