<?xml version="1.0" encoding="UTF-8" standalone="no"?>
<!DOCTYPE svg PUBLIC "-//W3C//DTD SVG 1.1//EN" "http://www.w3.org/Graphics/SVG/1.1/DTD/svg11.dtd">
<svg width="100%" height="100%" viewBox="0 0 656 662" version="1.1" xmlns="http://www.w3.org/2000/svg" xmlns:xlink="http://www.w3.org/1999/xlink" xml:space="preserve" xmlns:serif="http://www.serif.com/" style="fill-rule:evenodd;clip-rule:evenodd;stroke-linejoin:round;stroke-miterlimit:2;">
    <g transform="matrix(1,0,0,1,-972.415,-969.288)">
        <g transform="matrix(1,0,0,1,900,900)">
            <g transform="matrix(1,0,0,1,400,695.154)">
                <path d="M0,-590.309C-161.024,-590.309 -292.028,-457.904 -292.028,-295.155C-292.028,-132.405 -161.024,0 0,0C161.024,0 292.028,-132.405 292.028,-295.155C292.028,-457.904 161.024,-590.309 0,-590.309M0,35.557C-87.535,35.557 -169.821,1.135 -231.7,-61.369C-293.533,-123.825 -327.585,-206.851 -327.585,-295.155C-327.585,-383.457 -293.533,-466.484 -231.7,-528.94C-169.821,-591.444 -87.535,-625.866 0,-625.866C87.535,-625.866 169.821,-591.444 231.7,-528.94C293.533,-466.484 327.585,-383.457 327.585,-295.155C327.585,-206.851 293.533,-123.825 231.7,-61.369C169.821,1.135 87.535,35.557 0,35.557" style="fill:rgb(74,1,157);fill-rule:nonzero;"/>
            </g>
        </g>
        <g transform="matrix(1,0,0,1,900,900)">
            <g transform="matrix(1,0,0,1,693.277,400.014)">
                <path d="M0,-0.027C0,30.195 -4.489,59.347 -12.799,86.816C-49.541,208.05 -161.208,296.23 -293.264,296.23C-425.319,296.23 -537.014,208.05 -573.755,86.816C-582.065,59.347 -586.554,30.195 -586.554,-0.027C-586.554,-30.249 -582.065,-59.401 -573.755,-86.871C-537.014,-208.104 -425.319,-296.257 -293.264,-296.257C-161.208,-296.257 -49.541,-208.104 -12.799,-86.871C-4.489,-59.401 0,-30.249 0,-0.027" style="fill:white;fill-rule:nonzero;"/>
            </g>
        </g>
        <g transform="matrix(1,0,0,1,900,900)">
            <g transform="matrix(1.03338,0,0,1,701.11,400)">
                <path d="M0,0C0,30.222 -4.489,59.374 -12.799,86.844L-573.755,86.844C-582.065,59.374 -586.554,30.222 -586.554,0C-586.554,-30.222 -582.065,-59.374 -573.755,-86.844L-12.799,-86.844C-4.489,-59.374 0,-30.222 0,0" style="fill:rgb(74,1,157);fill-rule:nonzero;"/>
            </g>
        </g>
        <g transform="matrix(1,0,0,1,900,900)">
            <g id="Logo-CertMind" serif:id="Logo CertMind" transform="matrix(1,0,0,1,0.00041744,0)">
                <g transform="matrix(1,0,0,1,287.28,220.346)">
                    <path d="M0,-34.321C3.924,-34.321 7.383,-33.124 10.376,-30.796C13.328,-28.549 15.352,-25.746 16.386,-22.266C16.443,-22.076 16.297,-21.883 16.099,-21.883L7.797,-21.883C7.497,-21.883 7.224,-22.039 7.052,-22.285C5.497,-24.509 3.019,-25.874 0.067,-25.874C-2.395,-25.874 -4.39,-25.009 -6.053,-23.346C-7.715,-21.684 -8.514,-19.622 -8.514,-17.161C-8.514,-14.699 -7.715,-12.571 -6.053,-10.908C-4.39,-9.245 -2.395,-8.447 0.067,-8.447C2.834,-8.447 5.186,-9.637 6.783,-11.736C6.957,-11.964 7.22,-12.106 7.507,-12.106L16.021,-12.106C16.222,-12.106 16.369,-11.907 16.306,-11.716C15.21,-8.364 13.192,-5.57 10.31,-3.392C7.317,-1.131 3.858,-0 0,-0C-9.245,0.199 -17.36,-7.915 -17.161,-17.161C-17.36,-26.406 -9.245,-34.52 0,-34.321" style="fill:rgb(74,5,157);fill-rule:nonzero;"/>
                </g>
                <g transform="matrix(1,0,0,1,332.775,206.711)">
                    <path d="M0,-7.051C-1.33,-10.177 -4.456,-12.239 -7.848,-12.239C-11.573,-12.239 -14.3,-10.244 -15.697,-7.051L0,-7.051ZM9.246,-4.257L9.248,-4.215C9.351,-1.97 7.596,-0.133 5.349,-0.133L-15.697,-0.133C-14.899,3.126 -12.039,5.188 -8.114,5.188C-5.449,5.188 -3.864,4.426 -2.49,3.335C-2.428,3.286 -2.351,3.259 -2.272,3.259L7.365,3.322C7.622,3.323 7.795,3.593 7.683,3.824C4.852,9.671 -1.121,13.635 -7.848,13.635C-17.227,13.834 -25.208,5.786 -25.009,-3.459C-25.208,-12.571 -17.36,-20.885 -8.114,-20.686C0.333,-20.686 8.98,-14.434 9.246,-4.257" style="fill:rgb(74,5,157);fill-rule:nonzero;"/>
                </g>
                <g transform="matrix(1,0,0,1,360.742,219.813)">
                    <path d="M0,-33.39L-0.269,-33.39L-0.269,-33.388C-8.725,-33.345 -14.4,-28.025 -14.4,-17.493L-14.4,-0.351C-14.4,-0.157 -14.243,0 -14.048,0L-6.105,0C-5.91,0 -5.753,-0.157 -5.753,-0.351L-5.753,-17.493C-5.753,-22.615 -3.891,-24.942 -0.1,-24.942L-0.1,-24.943L0,-24.943C0.129,-24.943 0.234,-25.048 0.234,-25.177L0.234,-33.156C0.234,-33.285 0.129,-33.39 0,-33.39" style="fill:rgb(74,5,157);fill-rule:nonzero;"/>
                </g>
                <g transform="matrix(1,0,0,1,378.269,198.33)">
                    <path d="M0,-3.326L0,5.786C0,10.96 1.635,13.116 5.639,13.231C5.831,13.237 5.986,13.389 5.986,13.581L5.986,21.326C5.986,21.522 5.823,21.683 5.627,21.68C-3.144,21.543 -8.647,16.352 -8.647,5.786L-8.647,-3.326L-13.334,-3.326C-13.464,-3.326 -13.569,-3.431 -13.569,-3.56L-13.569,-11.539C-13.569,-11.668 -13.464,-11.773 -13.334,-11.773L-8.647,-11.773L-8.647,-24.658C-8.647,-24.852 -8.49,-25.009 -8.295,-25.009L-0.352,-25.009C-0.157,-25.009 0,-24.852 0,-24.658L0,-11.773L5.752,-11.773C5.881,-11.773 5.986,-11.668 5.986,-11.539L5.986,-3.56C5.986,-3.431 5.881,-3.326 5.752,-3.326L0,-3.326Z" style="fill:rgb(74,5,157);fill-rule:nonzero;"/>
                </g>
                <g transform="matrix(1,0,0,1,439.46,186.025)">
                    <path d="M0,33.789C-4.776,33.789 -8.647,29.918 -8.647,25.142L-8.647,16.296C-8.647,10.975 -10.642,8.447 -14.966,8.447C-19.223,8.447 -21.285,10.975 -21.285,16.296L-21.285,33.437C-21.285,33.632 -21.442,33.789 -21.636,33.789L-29.58,33.789C-29.774,33.789 -29.931,33.632 -29.931,33.437L-29.931,16.296C-29.931,10.975 -31.927,8.447 -36.25,8.447C-40.507,8.447 -42.569,10.975 -42.569,16.296L-42.569,33.437C-42.569,33.632 -42.726,33.789 -42.92,33.789L-50.864,33.789C-51.058,33.789 -51.216,33.632 -51.216,33.437L-51.216,16.296C-51.216,5.587 -45.229,0 -36.25,0C-31.794,0 -28.003,1.597 -25.608,4.59C-23.214,1.597 -19.422,0 -14.966,0C-5.987,0 0,5.587 0,16.296L0,33.789Z" style="fill:rgb(74,1,157);fill-rule:nonzero;"/>
                </g>
                <g transform="matrix(1,0,0,1,491.303,186.025)">
                    <path d="M0,33.789C-4.775,33.789 -8.647,29.918 -8.647,25.142L-8.647,16.296C-8.647,10.908 -10.443,8.447 -14.633,8.447C-18.823,8.447 -20.619,10.908 -20.619,16.296L-20.619,33.437C-20.619,33.632 -20.776,33.789 -20.971,33.789L-28.914,33.789C-29.108,33.789 -29.266,33.632 -29.266,33.437L-29.266,16.296C-29.266,5.454 -23.479,0 -14.633,0C-5.787,0 0,5.454 0,16.296L0,33.789Z" style="fill:rgb(74,5,157);fill-rule:nonzero;"/>
                </g>
                <g transform="matrix(1,0,0,1,506.667,184.362)">
                    <path d="M0,25.075C1.596,26.738 3.592,27.536 6.053,27.536C8.514,27.536 10.509,26.738 12.172,25.075C13.835,23.412 14.633,21.284 14.633,18.823C14.633,16.362 13.835,14.3 12.172,12.637C10.509,10.974 8.514,10.11 6.053,10.11C3.592,10.11 1.596,10.974 0,12.637C-1.596,14.3 -2.394,16.362 -2.394,18.823C-2.394,21.284 -1.596,23.412 0,25.075M-11.041,18.823C-11.241,9.577 -3.126,1.463 6.119,1.662C9.379,1.662 12.172,2.527 14.5,4.19L14.5,-2.395C14.5,-7.207 18.401,-11.108 23.213,-11.108L23.213,18.823C23.413,28.068 15.365,36.183 6.119,35.983C-3.126,36.183 -11.241,28.068 -11.041,18.823" style="fill:rgb(74,5,157);fill-rule:nonzero;"/>
                </g>
                <g transform="matrix(1,0,0,1,455.872,186.557)">
                    <path d="M0,10.345L-7.303,10.345C-8.919,10.345 -10.228,9.035 -10.228,7.42L-10.228,0.117C-10.228,0.052 -10.176,0 -10.111,0L-2.808,0C-1.192,0 0.117,1.309 0.117,2.924L0.117,10.228C0.117,10.293 0.065,10.345 0,10.345" style="fill:rgb(30,194,223);fill-rule:nonzero;"/>
                </g>
                <g transform="matrix(1,0,0,1,455.872,209.469)">
                    <path d="M0,10.345L-7.303,10.345C-8.919,10.345 -10.228,9.036 -10.228,7.42L-10.228,0.117C-10.228,0.052 -10.176,0 -10.111,0L-2.808,0C-1.192,0 0.117,1.309 0.117,2.924L0.117,10.228C0.117,10.293 0.065,10.345 0,10.345" style="fill:rgb(74,5,157);fill-rule:nonzero;"/>
                </g>
            </g>
        </g>
        <g transform="matrix(1,0,0,1,900,900)">
            <g transform="matrix(1,0,0,1,-19.3486,0)">
                <g transform="matrix(20,0,0,20,299.384,256.448)">
                    <path d="M0.325,0.008C0.307,0.008 0.293,0.004 0.281,-0.005C0.271,-0.014 0.262,-0.027 0.255,-0.046L0.046,-0.637C0.039,-0.658 0.04,-0.676 0.051,-0.691C0.061,-0.706 0.078,-0.713 0.103,-0.713C0.121,-0.713 0.135,-0.709 0.145,-0.701C0.155,-0.692 0.163,-0.679 0.169,-0.661L0.349,-0.127L0.309,-0.127L0.497,-0.66C0.504,-0.678 0.512,-0.691 0.522,-0.7C0.532,-0.709 0.545,-0.713 0.561,-0.713C0.577,-0.713 0.59,-0.709 0.599,-0.7C0.608,-0.691 0.616,-0.678 0.623,-0.659L0.805,-0.127L0.77,-0.127L0.953,-0.661C0.959,-0.678 0.967,-0.691 0.977,-0.7C0.987,-0.709 1.001,-0.713 1.018,-0.713C1.039,-0.713 1.055,-0.706 1.065,-0.691C1.075,-0.676 1.076,-0.658 1.069,-0.637L0.858,-0.045C0.851,-0.027 0.843,-0.014 0.832,-0.005C0.821,0.004 0.807,0.008 0.789,0.008C0.771,0.008 0.757,0.004 0.746,-0.005C0.735,-0.014 0.727,-0.027 0.72,-0.046L0.546,-0.542L0.569,-0.542L0.393,-0.045C0.386,-0.027 0.378,-0.014 0.368,-0.005C0.357,0.004 0.343,0.008 0.325,0.008Z" style="fill:rgb(74,5,157);fill-rule:nonzero;"/>
                </g>
                <g transform="matrix(20,0,0,20,321.644,256.448)">
                    <path d="M0.306,0.01C0.251,0.01 0.203,-0 0.163,-0.021C0.123,-0.042 0.092,-0.071 0.07,-0.109C0.049,-0.147 0.038,-0.192 0.038,-0.244C0.038,-0.295 0.049,-0.339 0.07,-0.377C0.091,-0.415 0.119,-0.445 0.157,-0.467C0.194,-0.488 0.236,-0.499 0.283,-0.499C0.318,-0.499 0.349,-0.493 0.377,-0.482C0.404,-0.471 0.428,-0.454 0.448,-0.433C0.467,-0.412 0.482,-0.386 0.493,-0.356C0.503,-0.325 0.508,-0.291 0.508,-0.253C0.508,-0.241 0.504,-0.232 0.496,-0.226C0.487,-0.219 0.475,-0.216 0.46,-0.216L0.139,-0.216L0.139,-0.288L0.42,-0.288L0.404,-0.273C0.404,-0.304 0.4,-0.329 0.391,-0.35C0.382,-0.371 0.369,-0.387 0.352,-0.398C0.335,-0.408 0.313,-0.414 0.288,-0.414C0.26,-0.414 0.236,-0.407 0.217,-0.395C0.197,-0.382 0.182,-0.363 0.172,-0.34C0.161,-0.316 0.156,-0.288 0.156,-0.255L0.156,-0.248C0.156,-0.193 0.169,-0.153 0.195,-0.126C0.22,-0.099 0.258,-0.085 0.308,-0.085C0.325,-0.085 0.345,-0.087 0.367,-0.092C0.388,-0.096 0.409,-0.103 0.428,-0.114C0.442,-0.122 0.454,-0.126 0.465,-0.125C0.476,-0.124 0.484,-0.12 0.491,-0.113C0.497,-0.106 0.501,-0.098 0.502,-0.089C0.503,-0.079 0.501,-0.069 0.497,-0.059C0.492,-0.049 0.483,-0.04 0.471,-0.033C0.448,-0.018 0.421,-0.008 0.391,-0.001C0.36,0.006 0.332,0.01 0.306,0.01Z" style="fill:rgb(74,5,157);fill-rule:nonzero;"/>
                </g>
                <g transform="matrix(20,0,0,20,337.904,256.448)">
                    <path d="M0.405,0.01C0.332,0.01 0.269,-0.005 0.217,-0.035C0.164,-0.064 0.124,-0.106 0.096,-0.161C0.068,-0.215 0.054,-0.279 0.054,-0.353C0.054,-0.408 0.062,-0.458 0.078,-0.502C0.094,-0.547 0.117,-0.585 0.147,-0.617C0.177,-0.648 0.214,-0.673 0.258,-0.69C0.301,-0.707 0.35,-0.715 0.405,-0.715C0.442,-0.715 0.478,-0.71 0.513,-0.701C0.548,-0.692 0.579,-0.678 0.606,-0.661C0.62,-0.652 0.629,-0.642 0.634,-0.629C0.639,-0.617 0.64,-0.605 0.637,-0.594C0.634,-0.582 0.629,-0.572 0.621,-0.564C0.612,-0.556 0.602,-0.552 0.59,-0.551C0.577,-0.55 0.564,-0.554 0.549,-0.563C0.528,-0.576 0.506,-0.586 0.482,-0.592C0.458,-0.598 0.434,-0.601 0.409,-0.601C0.362,-0.601 0.322,-0.591 0.289,-0.572C0.256,-0.553 0.232,-0.525 0.215,-0.488C0.198,-0.451 0.19,-0.406 0.19,-0.353C0.19,-0.3 0.198,-0.255 0.215,-0.218C0.232,-0.181 0.256,-0.152 0.289,-0.133C0.322,-0.114 0.362,-0.104 0.409,-0.104C0.434,-0.104 0.459,-0.107 0.484,-0.114C0.509,-0.12 0.532,-0.13 0.554,-0.143C0.569,-0.152 0.582,-0.156 0.594,-0.155C0.605,-0.154 0.615,-0.149 0.623,-0.142C0.631,-0.135 0.636,-0.126 0.639,-0.115C0.642,-0.103 0.641,-0.092 0.637,-0.081C0.633,-0.069 0.625,-0.059 0.613,-0.05C0.586,-0.031 0.555,-0.016 0.518,-0.006C0.481,0.005 0.443,0.01 0.405,0.01Z" style="fill:rgb(74,5,157);fill-rule:nonzero;"/>
                </g>
                <g transform="matrix(20,0,0,20,351.504,256.448)">
                    <path d="M0.306,0.01C0.251,0.01 0.203,-0 0.163,-0.021C0.123,-0.042 0.092,-0.071 0.07,-0.109C0.049,-0.147 0.038,-0.192 0.038,-0.244C0.038,-0.295 0.049,-0.339 0.07,-0.377C0.091,-0.415 0.119,-0.445 0.157,-0.467C0.194,-0.488 0.236,-0.499 0.283,-0.499C0.318,-0.499 0.349,-0.493 0.377,-0.482C0.404,-0.471 0.428,-0.454 0.448,-0.433C0.467,-0.412 0.482,-0.386 0.493,-0.356C0.503,-0.325 0.508,-0.291 0.508,-0.253C0.508,-0.241 0.504,-0.232 0.496,-0.226C0.487,-0.219 0.475,-0.216 0.46,-0.216L0.139,-0.216L0.139,-0.288L0.42,-0.288L0.404,-0.273C0.404,-0.304 0.4,-0.329 0.391,-0.35C0.382,-0.371 0.369,-0.387 0.352,-0.398C0.335,-0.408 0.313,-0.414 0.288,-0.414C0.26,-0.414 0.236,-0.407 0.217,-0.395C0.197,-0.382 0.182,-0.363 0.172,-0.34C0.161,-0.316 0.156,-0.288 0.156,-0.255L0.156,-0.248C0.156,-0.193 0.169,-0.153 0.195,-0.126C0.22,-0.099 0.258,-0.085 0.308,-0.085C0.325,-0.085 0.345,-0.087 0.367,-0.092C0.388,-0.096 0.409,-0.103 0.428,-0.114C0.442,-0.122 0.454,-0.126 0.465,-0.125C0.476,-0.124 0.484,-0.12 0.491,-0.113C0.497,-0.106 0.501,-0.098 0.502,-0.089C0.503,-0.079 0.501,-0.069 0.497,-0.059C0.492,-0.049 0.483,-0.04 0.471,-0.033C0.448,-0.018 0.421,-0.008 0.391,-0.001C0.36,0.006 0.332,0.01 0.306,0.01Z" style="fill:rgb(74,5,157);fill-rule:nonzero;"/>
                </g>
                <g transform="matrix(20,0,0,20,362.344,256.448)">
                    <path d="M0.129,0.008C0.108,0.008 0.093,0.002 0.082,-0.009C0.07,-0.02 0.065,-0.035 0.065,-0.056L0.065,-0.434C0.065,-0.455 0.07,-0.47 0.081,-0.481C0.092,-0.492 0.107,-0.497 0.126,-0.497C0.145,-0.497 0.16,-0.492 0.171,-0.481C0.182,-0.47 0.187,-0.455 0.187,-0.434L0.187,-0.371L0.177,-0.371C0.186,-0.411 0.205,-0.441 0.232,-0.462C0.259,-0.483 0.296,-0.495 0.341,-0.499C0.355,-0.5 0.366,-0.497 0.375,-0.489C0.383,-0.48 0.388,-0.467 0.389,-0.45C0.39,-0.433 0.387,-0.42 0.378,-0.409C0.369,-0.399 0.355,-0.393 0.337,-0.391L0.315,-0.389C0.274,-0.385 0.244,-0.373 0.223,-0.352C0.202,-0.331 0.192,-0.301 0.192,-0.263L0.192,-0.056C0.192,-0.035 0.187,-0.02 0.176,-0.009C0.165,0.002 0.15,0.008 0.129,0.008Z" style="fill:rgb(74,5,157);fill-rule:nonzero;"/>
                </g>
                <g transform="matrix(20,0,0,20,370.184,256.448)">
                    <path d="M0.289,0.01C0.246,0.01 0.21,0.003 0.181,-0.012C0.152,-0.027 0.13,-0.048 0.116,-0.077C0.102,-0.105 0.095,-0.14 0.095,-0.182L0.095,-0.395L0.043,-0.395C0.027,-0.395 0.015,-0.399 0.006,-0.407C-0.003,-0.416 -0.007,-0.427 -0.007,-0.442C-0.007,-0.457 -0.003,-0.469 0.006,-0.477C0.015,-0.485 0.027,-0.489 0.043,-0.489L0.095,-0.489L0.095,-0.58C0.095,-0.601 0.101,-0.616 0.112,-0.627C0.123,-0.638 0.138,-0.643 0.158,-0.643C0.178,-0.643 0.193,-0.638 0.204,-0.627C0.215,-0.616 0.22,-0.601 0.22,-0.58L0.22,-0.489L0.326,-0.489C0.342,-0.489 0.354,-0.485 0.363,-0.477C0.372,-0.469 0.376,-0.457 0.376,-0.442C0.376,-0.427 0.372,-0.416 0.363,-0.407C0.354,-0.399 0.342,-0.395 0.326,-0.395L0.22,-0.395L0.22,-0.189C0.22,-0.157 0.227,-0.133 0.241,-0.117C0.255,-0.101 0.278,-0.093 0.309,-0.093C0.32,-0.093 0.33,-0.094 0.339,-0.096C0.348,-0.098 0.355,-0.099 0.362,-0.1C0.37,-0.101 0.377,-0.098 0.382,-0.093C0.387,-0.087 0.39,-0.075 0.39,-0.058C0.39,-0.045 0.388,-0.033 0.384,-0.023C0.379,-0.012 0.371,-0.005 0.36,-0.001C0.351,0.002 0.34,0.004 0.326,0.006C0.312,0.009 0.3,0.01 0.289,0.01Z" style="fill:rgb(74,5,157);fill-rule:nonzero;"/>
                </g>
                <g transform="matrix(20,0,0,20,377.864,256.448)">
                    <path d="M0.127,0.007C0.107,0.007 0.092,0.001 0.081,-0.011C0.07,-0.023 0.065,-0.04 0.065,-0.061L0.065,-0.428C0.065,-0.45 0.07,-0.467 0.081,-0.478C0.092,-0.49 0.107,-0.496 0.127,-0.496C0.147,-0.496 0.163,-0.49 0.173,-0.478C0.185,-0.467 0.19,-0.45 0.19,-0.428L0.19,-0.061C0.19,-0.04 0.185,-0.023 0.174,-0.011C0.163,0.001 0.148,0.007 0.127,0.007ZM0.127,-0.589C0.104,-0.589 0.086,-0.595 0.073,-0.607C0.059,-0.618 0.053,-0.634 0.053,-0.655C0.053,-0.676 0.059,-0.693 0.073,-0.704C0.086,-0.715 0.104,-0.721 0.127,-0.721C0.151,-0.721 0.169,-0.715 0.182,-0.704C0.195,-0.693 0.201,-0.676 0.201,-0.655C0.201,-0.634 0.195,-0.618 0.182,-0.607C0.169,-0.595 0.151,-0.589 0.127,-0.589Z" style="fill:rgb(74,5,157);fill-rule:nonzero;"/>
                </g>
                <g transform="matrix(20,0,0,20,382.964,256.448)">
                    <path d="M0.161,0.008C0.141,0.008 0.126,0.002 0.115,-0.009C0.103,-0.02 0.098,-0.035 0.098,-0.056L0.098,-0.395L0.052,-0.395C0.036,-0.395 0.024,-0.399 0.015,-0.407C0.006,-0.416 0.002,-0.427 0.002,-0.442C0.002,-0.457 0.006,-0.469 0.015,-0.477C0.024,-0.485 0.036,-0.489 0.052,-0.489L0.134,-0.489L0.098,-0.456L0.098,-0.49C0.098,-0.557 0.115,-0.608 0.149,-0.643C0.183,-0.678 0.232,-0.698 0.297,-0.705L0.327,-0.708C0.342,-0.709 0.355,-0.707 0.364,-0.702C0.373,-0.697 0.379,-0.69 0.382,-0.681C0.385,-0.672 0.385,-0.662 0.383,-0.653C0.381,-0.643 0.377,-0.634 0.371,-0.627C0.365,-0.621 0.357,-0.617 0.348,-0.616L0.324,-0.614C0.289,-0.611 0.263,-0.602 0.247,-0.585C0.231,-0.568 0.223,-0.543 0.223,-0.51L0.223,-0.473L0.207,-0.489L0.484,-0.489C0.504,-0.489 0.519,-0.483 0.53,-0.471C0.541,-0.46 0.546,-0.443 0.546,-0.422L0.546,-0.061C0.546,-0.04 0.541,-0.023 0.531,-0.011C0.52,0.001 0.505,0.007 0.484,0.007C0.464,0.007 0.449,0.001 0.438,-0.011C0.427,-0.023 0.421,-0.04 0.421,-0.061L0.421,-0.395L0.223,-0.395L0.223,-0.056C0.223,-0.013 0.202,0.008 0.161,0.008ZM0.486,-0.589C0.463,-0.589 0.446,-0.595 0.434,-0.607C0.421,-0.618 0.415,-0.634 0.415,-0.655C0.415,-0.676 0.421,-0.693 0.434,-0.704C0.446,-0.715 0.463,-0.721 0.486,-0.721C0.509,-0.721 0.527,-0.715 0.54,-0.704C0.552,-0.693 0.558,-0.676 0.558,-0.655C0.558,-0.634 0.552,-0.618 0.54,-0.607C0.527,-0.595 0.509,-0.589 0.486,-0.589Z" style="fill:rgb(74,5,157);fill-rule:nonzero;"/>
                </g>
                <g transform="matrix(20,0,0,20,395.184,256.448)">
                    <path d="M0.291,0.01C0.24,0.01 0.195,-0.001 0.157,-0.021C0.119,-0.043 0.09,-0.072 0.069,-0.111C0.048,-0.15 0.038,-0.195 0.038,-0.247C0.038,-0.286 0.044,-0.322 0.056,-0.353C0.067,-0.384 0.084,-0.41 0.106,-0.432C0.128,-0.453 0.155,-0.47 0.186,-0.482C0.217,-0.493 0.252,-0.499 0.291,-0.499C0.313,-0.499 0.337,-0.496 0.363,-0.49C0.388,-0.484 0.412,-0.474 0.435,-0.46C0.446,-0.453 0.453,-0.445 0.456,-0.436C0.459,-0.427 0.46,-0.417 0.458,-0.407C0.456,-0.398 0.452,-0.39 0.446,-0.383C0.439,-0.376 0.431,-0.371 0.422,-0.37C0.413,-0.368 0.402,-0.37 0.391,-0.376C0.376,-0.385 0.361,-0.391 0.346,-0.396C0.331,-0.4 0.316,-0.402 0.302,-0.402C0.28,-0.402 0.261,-0.399 0.244,-0.392C0.227,-0.385 0.213,-0.375 0.202,-0.362C0.19,-0.348 0.181,-0.332 0.175,-0.313C0.169,-0.294 0.166,-0.271 0.166,-0.246C0.166,-0.197 0.178,-0.158 0.202,-0.13C0.225,-0.101 0.259,-0.087 0.302,-0.087C0.316,-0.087 0.331,-0.089 0.345,-0.093C0.361,-0.097 0.376,-0.103 0.391,-0.112C0.402,-0.118 0.412,-0.12 0.422,-0.118C0.431,-0.116 0.438,-0.112 0.444,-0.105C0.45,-0.098 0.454,-0.089 0.455,-0.08C0.456,-0.07 0.455,-0.06 0.452,-0.051C0.448,-0.042 0.441,-0.034 0.431,-0.028C0.409,-0.015 0.386,-0.005 0.361,0.001C0.336,0.007 0.313,0.01 0.291,0.01Z" style="fill:rgb(74,5,157);fill-rule:nonzero;"/>
                </g>
                <g transform="matrix(20,0,0,20,404.624,256.448)">
                    <path d="M0.226,0.01C0.191,0.01 0.159,0.003 0.132,-0.011C0.104,-0.024 0.082,-0.043 0.067,-0.066C0.051,-0.089 0.043,-0.116 0.043,-0.145C0.043,-0.181 0.052,-0.21 0.071,-0.231C0.09,-0.252 0.12,-0.267 0.162,-0.276C0.204,-0.285 0.26,-0.29 0.331,-0.29L0.381,-0.29L0.381,-0.218L0.332,-0.218C0.291,-0.218 0.258,-0.216 0.233,-0.212C0.208,-0.208 0.191,-0.201 0.181,-0.192C0.17,-0.182 0.165,-0.168 0.165,-0.151C0.165,-0.129 0.173,-0.111 0.188,-0.097C0.203,-0.083 0.225,-0.076 0.252,-0.076C0.274,-0.076 0.294,-0.081 0.311,-0.092C0.328,-0.102 0.341,-0.116 0.351,-0.134C0.361,-0.152 0.366,-0.173 0.366,-0.196L0.366,-0.311C0.366,-0.344 0.359,-0.368 0.344,-0.383C0.329,-0.398 0.305,-0.405 0.27,-0.405C0.251,-0.405 0.23,-0.403 0.207,-0.398C0.185,-0.393 0.162,-0.385 0.137,-0.374C0.124,-0.368 0.113,-0.366 0.103,-0.369C0.094,-0.372 0.086,-0.377 0.081,-0.386C0.076,-0.394 0.073,-0.403 0.073,-0.413C0.073,-0.423 0.076,-0.433 0.081,-0.443C0.086,-0.452 0.095,-0.459 0.108,-0.464C0.139,-0.477 0.168,-0.486 0.197,-0.491C0.225,-0.496 0.251,-0.499 0.274,-0.499C0.322,-0.499 0.362,-0.492 0.393,-0.477C0.424,-0.462 0.447,-0.44 0.462,-0.41C0.477,-0.381 0.485,-0.343 0.485,-0.296L0.485,-0.056C0.485,-0.035 0.48,-0.02 0.47,-0.009C0.46,0.002 0.446,0.008 0.427,0.008C0.408,0.008 0.394,0.002 0.384,-0.009C0.373,-0.02 0.368,-0.035 0.368,-0.056L0.368,-0.104L0.376,-0.104C0.371,-0.081 0.362,-0.061 0.348,-0.043C0.335,-0.027 0.318,-0.013 0.297,-0.004C0.276,0.005 0.253,0.01 0.226,0.01Z" style="fill:rgb(74,5,157);fill-rule:nonzero;"/>
                </g>
                <g transform="matrix(20,0,0,20,415.564,256.448)">
                    <path d="M0.289,0.01C0.246,0.01 0.21,0.003 0.181,-0.012C0.152,-0.027 0.13,-0.048 0.116,-0.077C0.102,-0.105 0.095,-0.14 0.095,-0.182L0.095,-0.395L0.043,-0.395C0.027,-0.395 0.015,-0.399 0.006,-0.407C-0.003,-0.416 -0.007,-0.427 -0.007,-0.442C-0.007,-0.457 -0.003,-0.469 0.006,-0.477C0.015,-0.485 0.027,-0.489 0.043,-0.489L0.095,-0.489L0.095,-0.58C0.095,-0.601 0.101,-0.616 0.112,-0.627C0.123,-0.638 0.138,-0.643 0.158,-0.643C0.178,-0.643 0.193,-0.638 0.204,-0.627C0.215,-0.616 0.22,-0.601 0.22,-0.58L0.22,-0.489L0.326,-0.489C0.342,-0.489 0.354,-0.485 0.363,-0.477C0.372,-0.469 0.376,-0.457 0.376,-0.442C0.376,-0.427 0.372,-0.416 0.363,-0.407C0.354,-0.399 0.342,-0.395 0.326,-0.395L0.22,-0.395L0.22,-0.189C0.22,-0.157 0.227,-0.133 0.241,-0.117C0.255,-0.101 0.278,-0.093 0.309,-0.093C0.32,-0.093 0.33,-0.094 0.339,-0.096C0.348,-0.098 0.355,-0.099 0.362,-0.1C0.37,-0.101 0.377,-0.098 0.382,-0.093C0.387,-0.087 0.39,-0.075 0.39,-0.058C0.39,-0.045 0.388,-0.033 0.384,-0.023C0.379,-0.012 0.371,-0.005 0.36,-0.001C0.351,0.002 0.34,0.004 0.326,0.006C0.312,0.009 0.3,0.01 0.289,0.01Z" style="fill:rgb(74,5,157);fill-rule:nonzero;"/>
                </g>
                <g transform="matrix(20,0,0,20,423.244,256.448)">
                    <path d="M0.306,0.01C0.251,0.01 0.203,-0 0.163,-0.021C0.123,-0.042 0.092,-0.071 0.07,-0.109C0.049,-0.147 0.038,-0.192 0.038,-0.244C0.038,-0.295 0.049,-0.339 0.07,-0.377C0.091,-0.415 0.119,-0.445 0.157,-0.467C0.194,-0.488 0.236,-0.499 0.283,-0.499C0.318,-0.499 0.349,-0.493 0.377,-0.482C0.404,-0.471 0.428,-0.454 0.448,-0.433C0.467,-0.412 0.482,-0.386 0.493,-0.356C0.503,-0.325 0.508,-0.291 0.508,-0.253C0.508,-0.241 0.504,-0.232 0.496,-0.226C0.487,-0.219 0.475,-0.216 0.46,-0.216L0.139,-0.216L0.139,-0.288L0.42,-0.288L0.404,-0.273C0.404,-0.304 0.4,-0.329 0.391,-0.35C0.382,-0.371 0.369,-0.387 0.352,-0.398C0.335,-0.408 0.313,-0.414 0.288,-0.414C0.26,-0.414 0.236,-0.407 0.217,-0.395C0.197,-0.382 0.182,-0.363 0.172,-0.34C0.161,-0.316 0.156,-0.288 0.156,-0.255L0.156,-0.248C0.156,-0.193 0.169,-0.153 0.195,-0.126C0.22,-0.099 0.258,-0.085 0.308,-0.085C0.325,-0.085 0.345,-0.087 0.367,-0.092C0.388,-0.096 0.409,-0.103 0.428,-0.114C0.442,-0.122 0.454,-0.126 0.465,-0.125C0.476,-0.124 0.484,-0.12 0.491,-0.113C0.497,-0.106 0.501,-0.098 0.502,-0.089C0.503,-0.079 0.501,-0.069 0.497,-0.059C0.492,-0.049 0.483,-0.04 0.471,-0.033C0.448,-0.018 0.421,-0.008 0.391,-0.001C0.36,0.006 0.332,0.01 0.306,0.01Z" style="fill:rgb(74,5,157);fill-rule:nonzero;"/>
                </g>
                <g transform="matrix(20,0,0,20,439.504,256.448)">
                    <path d="M0.309,0.008C0.288,0.008 0.273,0.002 0.262,-0.01C0.251,-0.021 0.245,-0.038 0.245,-0.059L0.245,-0.363L0.272,-0.286L0.031,-0.625C0.022,-0.637 0.019,-0.65 0.02,-0.664C0.021,-0.677 0.026,-0.689 0.036,-0.699C0.046,-0.708 0.06,-0.713 0.078,-0.713C0.091,-0.713 0.103,-0.71 0.115,-0.703C0.126,-0.696 0.136,-0.686 0.146,-0.672L0.325,-0.418L0.297,-0.418L0.477,-0.672C0.488,-0.687 0.498,-0.697 0.508,-0.704C0.518,-0.71 0.53,-0.713 0.545,-0.713C0.562,-0.713 0.576,-0.709 0.586,-0.7C0.595,-0.691 0.6,-0.679 0.601,-0.666C0.601,-0.653 0.596,-0.639 0.586,-0.624L0.347,-0.286L0.373,-0.363L0.373,-0.059C0.373,-0.014 0.352,0.008 0.309,0.008Z" style="fill:rgb(74,5,157);fill-rule:nonzero;"/>
                </g>
                <g transform="matrix(20,0,0,20,451.864,256.448)">
                    <path d="M0.288,0.01C0.237,0.01 0.193,-0 0.156,-0.021C0.119,-0.042 0.09,-0.071 0.069,-0.11C0.048,-0.148 0.038,-0.193 0.038,-0.245C0.038,-0.284 0.044,-0.32 0.056,-0.35C0.067,-0.382 0.084,-0.408 0.106,-0.431C0.128,-0.453 0.154,-0.47 0.185,-0.482C0.216,-0.493 0.25,-0.499 0.288,-0.499C0.339,-0.499 0.383,-0.489 0.42,-0.468C0.457,-0.447 0.486,-0.418 0.507,-0.38C0.528,-0.342 0.538,-0.297 0.538,-0.245C0.538,-0.206 0.532,-0.17 0.521,-0.139C0.509,-0.108 0.492,-0.081 0.47,-0.059C0.448,-0.036 0.422,-0.019 0.391,-0.008C0.36,0.004 0.326,0.01 0.288,0.01ZM0.288,-0.085C0.313,-0.085 0.334,-0.091 0.353,-0.103C0.372,-0.115 0.386,-0.133 0.397,-0.157C0.407,-0.18 0.412,-0.21 0.412,-0.245C0.412,-0.298 0.401,-0.338 0.378,-0.365C0.355,-0.391 0.325,-0.404 0.288,-0.404C0.263,-0.404 0.242,-0.398 0.223,-0.387C0.204,-0.375 0.19,-0.357 0.18,-0.334C0.169,-0.31 0.164,-0.28 0.164,-0.245C0.164,-0.192 0.175,-0.153 0.198,-0.126C0.221,-0.099 0.251,-0.085 0.288,-0.085Z" style="fill:rgb(74,5,157);fill-rule:nonzero;"/>
                </g>
                <g transform="matrix(20,0,0,20,463.384,256.448)">
                    <path d="M0.242,0.01C0.201,0.01 0.168,0.002 0.141,-0.013C0.114,-0.028 0.095,-0.05 0.082,-0.08C0.069,-0.11 0.062,-0.147 0.062,-0.192L0.062,-0.434C0.062,-0.455 0.067,-0.471 0.078,-0.482C0.089,-0.492 0.104,-0.497 0.124,-0.497C0.144,-0.497 0.16,-0.492 0.171,-0.482C0.182,-0.471 0.187,-0.455 0.187,-0.434L0.187,-0.19C0.187,-0.155 0.194,-0.13 0.208,-0.113C0.222,-0.096 0.244,-0.088 0.275,-0.088C0.308,-0.088 0.336,-0.1 0.357,-0.123C0.378,-0.146 0.389,-0.176 0.389,-0.214L0.389,-0.434C0.389,-0.455 0.394,-0.471 0.405,-0.482C0.416,-0.492 0.431,-0.497 0.451,-0.497C0.471,-0.497 0.487,-0.492 0.498,-0.482C0.508,-0.471 0.514,-0.455 0.514,-0.434L0.514,-0.056C0.514,-0.013 0.494,0.008 0.453,0.008C0.434,0.008 0.419,0.002 0.408,-0.009C0.397,-0.02 0.392,-0.035 0.392,-0.056L0.392,-0.132L0.406,-0.102C0.392,-0.066 0.371,-0.038 0.343,-0.019C0.314,0 0.281,0.01 0.242,0.01Z" style="fill:rgb(74,5,157);fill-rule:nonzero;"/>
                </g>
                <g transform="matrix(20,0,0,20,474.964,256.448)">
                    <path d="M0.129,0.008C0.108,0.008 0.093,0.002 0.082,-0.009C0.07,-0.02 0.065,-0.035 0.065,-0.056L0.065,-0.434C0.065,-0.455 0.07,-0.47 0.081,-0.481C0.092,-0.492 0.107,-0.497 0.126,-0.497C0.145,-0.497 0.16,-0.492 0.171,-0.481C0.182,-0.47 0.187,-0.455 0.187,-0.434L0.187,-0.371L0.177,-0.371C0.186,-0.411 0.205,-0.441 0.232,-0.462C0.259,-0.483 0.296,-0.495 0.341,-0.499C0.355,-0.5 0.366,-0.497 0.375,-0.489C0.383,-0.48 0.388,-0.467 0.389,-0.45C0.39,-0.433 0.387,-0.42 0.378,-0.409C0.369,-0.399 0.355,-0.393 0.337,-0.391L0.315,-0.389C0.274,-0.385 0.244,-0.373 0.223,-0.352C0.202,-0.331 0.192,-0.301 0.192,-0.263L0.192,-0.056C0.192,-0.035 0.187,-0.02 0.176,-0.009C0.165,0.002 0.15,0.008 0.129,0.008Z" style="fill:rgb(74,5,157);fill-rule:nonzero;"/>
                </g>
                <g transform="matrix(20,0,0,20,488.224,256.448)">
                    <path d="M0.32,0.01C0.291,0.01 0.261,0.008 0.232,0.003C0.203,-0.001 0.175,-0.008 0.149,-0.017C0.123,-0.025 0.1,-0.037 0.079,-0.05C0.067,-0.058 0.059,-0.068 0.054,-0.079C0.049,-0.09 0.048,-0.102 0.05,-0.113C0.051,-0.124 0.056,-0.133 0.063,-0.141C0.07,-0.15 0.078,-0.155 0.089,-0.157C0.1,-0.159 0.111,-0.156 0.124,-0.148C0.153,-0.131 0.184,-0.118 0.217,-0.11C0.25,-0.102 0.284,-0.098 0.32,-0.098C0.373,-0.098 0.411,-0.107 0.435,-0.125C0.459,-0.142 0.471,-0.165 0.471,-0.193C0.471,-0.216 0.463,-0.235 0.446,-0.248C0.429,-0.261 0.399,-0.272 0.358,-0.281L0.248,-0.304C0.185,-0.317 0.138,-0.34 0.107,-0.372C0.076,-0.403 0.06,-0.445 0.06,-0.497C0.06,-0.53 0.067,-0.559 0.08,-0.586C0.093,-0.613 0.112,-0.636 0.137,-0.655C0.161,-0.674 0.19,-0.689 0.224,-0.7C0.257,-0.71 0.294,-0.715 0.335,-0.715C0.375,-0.715 0.413,-0.71 0.449,-0.7C0.485,-0.69 0.517,-0.675 0.546,-0.656C0.557,-0.649 0.564,-0.64 0.568,-0.629C0.571,-0.618 0.572,-0.608 0.57,-0.598C0.568,-0.587 0.563,-0.578 0.556,-0.571C0.549,-0.564 0.54,-0.559 0.529,-0.558C0.518,-0.557 0.505,-0.56 0.491,-0.568C0.466,-0.582 0.441,-0.592 0.416,-0.598C0.391,-0.604 0.363,-0.607 0.334,-0.607C0.303,-0.607 0.277,-0.603 0.255,-0.594C0.233,-0.585 0.216,-0.573 0.204,-0.558C0.193,-0.542 0.187,-0.523 0.187,-0.502C0.187,-0.478 0.195,-0.459 0.211,-0.445C0.227,-0.43 0.254,-0.419 0.293,-0.411L0.402,-0.388C0.468,-0.374 0.517,-0.352 0.55,-0.322C0.582,-0.292 0.598,-0.252 0.598,-0.202C0.598,-0.17 0.592,-0.141 0.579,-0.115C0.566,-0.089 0.547,-0.067 0.523,-0.048C0.498,-0.029 0.469,-0.015 0.435,-0.005C0.401,0.005 0.363,0.01 0.32,0.01Z" style="fill:rgb(74,5,157);fill-rule:nonzero;"/>
                </g>
                <g transform="matrix(20,0,0,20,500.844,256.448)">
                    <path d="M0.127,0.008C0.107,0.008 0.092,0.002 0.081,-0.009C0.07,-0.02 0.065,-0.035 0.065,-0.056L0.065,-0.65C0.065,-0.671 0.07,-0.686 0.081,-0.697C0.092,-0.708 0.107,-0.713 0.127,-0.713C0.147,-0.713 0.163,-0.708 0.173,-0.697C0.185,-0.686 0.19,-0.671 0.19,-0.65L0.19,-0.281L0.192,-0.281L0.357,-0.455C0.37,-0.468 0.382,-0.479 0.392,-0.486C0.402,-0.493 0.416,-0.497 0.433,-0.497C0.45,-0.497 0.464,-0.493 0.472,-0.484C0.482,-0.474 0.486,-0.464 0.486,-0.451C0.486,-0.438 0.48,-0.426 0.468,-0.413L0.294,-0.229L0.294,-0.281L0.485,-0.075C0.497,-0.062 0.502,-0.05 0.501,-0.037C0.5,-0.024 0.495,-0.013 0.485,-0.005C0.475,0.004 0.462,0.008 0.447,0.008C0.428,0.008 0.413,0.004 0.403,-0.003C0.392,-0.01 0.379,-0.021 0.366,-0.036L0.192,-0.218L0.19,-0.218L0.19,-0.056C0.19,-0.013 0.169,0.008 0.127,0.008Z" style="fill:rgb(74,5,157);fill-rule:nonzero;"/>
                </g>
                <g transform="matrix(20,0,0,20,511.564,256.448)">
                    <path d="M0.127,0.007C0.107,0.007 0.092,0.001 0.081,-0.011C0.07,-0.023 0.065,-0.04 0.065,-0.061L0.065,-0.428C0.065,-0.45 0.07,-0.467 0.081,-0.478C0.092,-0.49 0.107,-0.496 0.127,-0.496C0.147,-0.496 0.163,-0.49 0.173,-0.478C0.185,-0.467 0.19,-0.45 0.19,-0.428L0.19,-0.061C0.19,-0.04 0.185,-0.023 0.174,-0.011C0.163,0.001 0.148,0.007 0.127,0.007ZM0.127,-0.589C0.104,-0.589 0.086,-0.595 0.073,-0.607C0.059,-0.618 0.053,-0.634 0.053,-0.655C0.053,-0.676 0.059,-0.693 0.073,-0.704C0.086,-0.715 0.104,-0.721 0.127,-0.721C0.151,-0.721 0.169,-0.715 0.182,-0.704C0.195,-0.693 0.201,-0.676 0.201,-0.655C0.201,-0.634 0.195,-0.618 0.182,-0.607C0.169,-0.595 0.151,-0.589 0.127,-0.589Z" style="fill:rgb(74,5,157);fill-rule:nonzero;"/>
                </g>
                <g transform="matrix(20,0,0,20,516.664,256.448)">
                    <path d="M0.232,0.01C0.177,0.01 0.135,-0.006 0.107,-0.038C0.079,-0.069 0.065,-0.116 0.065,-0.177L0.065,-0.65C0.065,-0.671 0.07,-0.686 0.081,-0.697C0.092,-0.708 0.107,-0.713 0.127,-0.713C0.147,-0.713 0.163,-0.708 0.173,-0.697C0.185,-0.686 0.19,-0.671 0.19,-0.65L0.19,-0.183C0.19,-0.152 0.197,-0.13 0.21,-0.115C0.223,-0.1 0.241,-0.093 0.265,-0.093C0.27,-0.093 0.275,-0.093 0.28,-0.094C0.285,-0.094 0.289,-0.094 0.294,-0.095C0.303,-0.096 0.31,-0.094 0.313,-0.087C0.316,-0.081 0.318,-0.068 0.318,-0.049C0.318,-0.032 0.315,-0.019 0.308,-0.01C0.301,-0.001 0.29,0.005 0.275,0.007C0.268,0.008 0.261,0.008 0.254,0.009C0.247,0.01 0.239,0.01 0.232,0.01Z" style="fill:rgb(74,5,157);fill-rule:nonzero;"/>
                </g>
                <g transform="matrix(20,0,0,20,523.044,256.448)">
                    <path d="M0.232,0.01C0.177,0.01 0.135,-0.006 0.107,-0.038C0.079,-0.069 0.065,-0.116 0.065,-0.177L0.065,-0.65C0.065,-0.671 0.07,-0.686 0.081,-0.697C0.092,-0.708 0.107,-0.713 0.127,-0.713C0.147,-0.713 0.163,-0.708 0.173,-0.697C0.185,-0.686 0.19,-0.671 0.19,-0.65L0.19,-0.183C0.19,-0.152 0.197,-0.13 0.21,-0.115C0.223,-0.1 0.241,-0.093 0.265,-0.093C0.27,-0.093 0.275,-0.093 0.28,-0.094C0.285,-0.094 0.289,-0.094 0.294,-0.095C0.303,-0.096 0.31,-0.094 0.313,-0.087C0.316,-0.081 0.318,-0.068 0.318,-0.049C0.318,-0.032 0.315,-0.019 0.308,-0.01C0.301,-0.001 0.29,0.005 0.275,0.007C0.268,0.008 0.261,0.008 0.254,0.009C0.247,0.01 0.239,0.01 0.232,0.01Z" style="fill:rgb(74,5,157);fill-rule:nonzero;"/>
                </g>
                <g transform="matrix(20,0,0,20,529.424,256.448)">
                    <path d="M0.244,0.01C0.215,0.01 0.185,0.007 0.153,0.001C0.121,-0.005 0.092,-0.015 0.067,-0.03C0.056,-0.037 0.049,-0.045 0.045,-0.054C0.04,-0.063 0.039,-0.071 0.04,-0.081C0.041,-0.09 0.044,-0.097 0.05,-0.104C0.055,-0.111 0.063,-0.115 0.071,-0.117C0.081,-0.119 0.09,-0.117 0.101,-0.112C0.128,-0.099 0.153,-0.091 0.176,-0.086C0.199,-0.081 0.222,-0.078 0.245,-0.078C0.277,-0.078 0.301,-0.084 0.317,-0.095C0.332,-0.106 0.34,-0.12 0.34,-0.138C0.34,-0.153 0.335,-0.165 0.325,-0.173C0.314,-0.182 0.299,-0.188 0.278,-0.192L0.178,-0.211C0.137,-0.219 0.105,-0.234 0.084,-0.257C0.062,-0.279 0.051,-0.308 0.051,-0.343C0.051,-0.375 0.06,-0.403 0.078,-0.426C0.095,-0.449 0.12,-0.467 0.151,-0.48C0.182,-0.493 0.218,-0.499 0.259,-0.499C0.288,-0.499 0.316,-0.496 0.342,-0.49C0.367,-0.483 0.392,-0.473 0.416,-0.46C0.426,-0.455 0.433,-0.448 0.437,-0.439C0.44,-0.43 0.441,-0.422 0.439,-0.412C0.437,-0.404 0.433,-0.396 0.427,-0.389C0.421,-0.382 0.413,-0.377 0.405,-0.376C0.396,-0.374 0.385,-0.376 0.374,-0.381C0.353,-0.392 0.334,-0.399 0.315,-0.404C0.296,-0.409 0.277,-0.411 0.26,-0.411C0.227,-0.411 0.203,-0.405 0.188,-0.394C0.172,-0.383 0.164,-0.368 0.164,-0.349C0.164,-0.335 0.169,-0.323 0.178,-0.314C0.187,-0.305 0.202,-0.298 0.221,-0.295L0.321,-0.276C0.364,-0.268 0.397,-0.253 0.42,-0.232C0.442,-0.211 0.453,-0.182 0.453,-0.146C0.453,-0.097 0.434,-0.059 0.396,-0.032C0.358,-0.004 0.307,0.01 0.244,0.01Z" style="fill:rgb(74,5,157);fill-rule:nonzero;"/>
                </g>
            </g>
        </g>
        <g transform="matrix(1,0,0,1,900,900)">
            <g transform="matrix(1,0,0,1,-191.588,-31.3293)">
                <g transform="matrix(60,0,0,60,505.53,418.171)">
                    <path d="M0.32,0.01C0.291,0.01 0.261,0.008 0.232,0.003C0.203,-0.001 0.175,-0.008 0.149,-0.017C0.123,-0.025 0.1,-0.037 0.079,-0.05C0.067,-0.058 0.059,-0.068 0.054,-0.079C0.049,-0.09 0.048,-0.102 0.05,-0.113C0.051,-0.124 0.056,-0.133 0.063,-0.141C0.07,-0.15 0.078,-0.155 0.089,-0.157C0.1,-0.159 0.111,-0.156 0.124,-0.148C0.153,-0.131 0.184,-0.118 0.217,-0.11C0.25,-0.102 0.284,-0.098 0.32,-0.098C0.373,-0.098 0.411,-0.107 0.435,-0.125C0.459,-0.142 0.471,-0.165 0.471,-0.193C0.471,-0.216 0.463,-0.235 0.446,-0.248C0.429,-0.261 0.399,-0.272 0.358,-0.281L0.248,-0.304C0.185,-0.317 0.138,-0.34 0.107,-0.372C0.076,-0.403 0.06,-0.445 0.06,-0.497C0.06,-0.53 0.067,-0.559 0.08,-0.586C0.093,-0.613 0.112,-0.636 0.137,-0.655C0.161,-0.674 0.19,-0.689 0.224,-0.7C0.257,-0.71 0.294,-0.715 0.335,-0.715C0.375,-0.715 0.413,-0.71 0.449,-0.7C0.485,-0.69 0.517,-0.675 0.546,-0.656C0.557,-0.649 0.564,-0.64 0.568,-0.629C0.571,-0.618 0.572,-0.608 0.57,-0.598C0.568,-0.587 0.563,-0.578 0.556,-0.571C0.549,-0.564 0.54,-0.559 0.529,-0.558C0.518,-0.557 0.505,-0.56 0.491,-0.568C0.466,-0.582 0.441,-0.592 0.416,-0.598C0.391,-0.604 0.363,-0.607 0.334,-0.607C0.303,-0.607 0.277,-0.603 0.255,-0.594C0.233,-0.585 0.216,-0.573 0.204,-0.558C0.193,-0.542 0.187,-0.523 0.187,-0.502C0.187,-0.478 0.195,-0.459 0.211,-0.445C0.227,-0.43 0.254,-0.419 0.293,-0.411L0.402,-0.388C0.468,-0.374 0.517,-0.352 0.55,-0.322C0.582,-0.292 0.598,-0.252 0.598,-0.202C0.598,-0.17 0.592,-0.141 0.579,-0.115C0.566,-0.089 0.547,-0.067 0.523,-0.048C0.498,-0.029 0.469,-0.015 0.435,-0.005C0.401,0.005 0.363,0.01 0.32,0.01Z" style="fill:white;fill-rule:nonzero;"/>
                </g>
                <g transform="matrix(60,0,0,60,542.79,418.171)">
                    <path d="M0.291,0.01C0.24,0.01 0.195,-0.001 0.157,-0.021C0.119,-0.043 0.09,-0.072 0.069,-0.111C0.048,-0.15 0.038,-0.195 0.038,-0.247C0.038,-0.286 0.044,-0.322 0.056,-0.353C0.067,-0.384 0.084,-0.41 0.106,-0.432C0.128,-0.453 0.155,-0.47 0.186,-0.482C0.217,-0.493 0.252,-0.499 0.291,-0.499C0.313,-0.499 0.337,-0.496 0.363,-0.49C0.388,-0.484 0.412,-0.474 0.435,-0.46C0.446,-0.453 0.453,-0.445 0.456,-0.436C0.459,-0.427 0.46,-0.417 0.458,-0.407C0.456,-0.398 0.452,-0.39 0.446,-0.383C0.439,-0.376 0.431,-0.371 0.422,-0.37C0.413,-0.368 0.402,-0.37 0.391,-0.376C0.376,-0.385 0.361,-0.391 0.346,-0.396C0.331,-0.4 0.316,-0.402 0.302,-0.402C0.28,-0.402 0.261,-0.399 0.244,-0.392C0.227,-0.385 0.213,-0.375 0.202,-0.362C0.19,-0.348 0.181,-0.332 0.175,-0.313C0.169,-0.294 0.166,-0.271 0.166,-0.246C0.166,-0.197 0.178,-0.158 0.202,-0.13C0.225,-0.101 0.259,-0.087 0.302,-0.087C0.316,-0.087 0.331,-0.089 0.345,-0.093C0.361,-0.097 0.376,-0.103 0.391,-0.112C0.402,-0.118 0.412,-0.12 0.422,-0.118C0.431,-0.116 0.438,-0.112 0.444,-0.105C0.45,-0.098 0.454,-0.089 0.455,-0.08C0.456,-0.07 0.455,-0.06 0.452,-0.051C0.448,-0.042 0.441,-0.034 0.431,-0.028C0.409,-0.015 0.386,-0.005 0.361,0.001C0.336,0.007 0.313,0.01 0.291,0.01Z" style="fill:white;fill-rule:nonzero;"/>
                </g>
                <g transform="matrix(60,0,0,60,570.15,418.171)">
                    <path d="M0.129,0.008C0.108,0.008 0.093,0.002 0.082,-0.009C0.07,-0.02 0.065,-0.035 0.065,-0.056L0.065,-0.434C0.065,-0.455 0.07,-0.47 0.081,-0.481C0.092,-0.492 0.107,-0.497 0.126,-0.497C0.145,-0.497 0.16,-0.492 0.171,-0.481C0.182,-0.47 0.187,-0.455 0.187,-0.434L0.187,-0.371L0.177,-0.371C0.186,-0.411 0.205,-0.441 0.232,-0.462C0.259,-0.483 0.296,-0.495 0.341,-0.499C0.355,-0.5 0.366,-0.497 0.375,-0.489C0.383,-0.48 0.388,-0.467 0.389,-0.45C0.39,-0.433 0.387,-0.42 0.378,-0.409C0.369,-0.399 0.355,-0.393 0.337,-0.391L0.315,-0.389C0.274,-0.385 0.244,-0.373 0.223,-0.352C0.202,-0.331 0.192,-0.301 0.192,-0.263L0.192,-0.056C0.192,-0.035 0.187,-0.02 0.176,-0.009C0.165,0.002 0.15,0.008 0.129,0.008Z" style="fill:white;fill-rule:nonzero;"/>
                </g>
                <g transform="matrix(60,0,0,60,594.33,418.171)">
                    <path d="M0.242,0.01C0.201,0.01 0.168,0.002 0.141,-0.013C0.114,-0.028 0.095,-0.05 0.082,-0.08C0.069,-0.11 0.062,-0.147 0.062,-0.192L0.062,-0.434C0.062,-0.455 0.067,-0.471 0.078,-0.482C0.089,-0.492 0.104,-0.497 0.124,-0.497C0.144,-0.497 0.16,-0.492 0.171,-0.482C0.182,-0.471 0.187,-0.455 0.187,-0.434L0.187,-0.19C0.187,-0.155 0.194,-0.13 0.208,-0.113C0.222,-0.096 0.244,-0.088 0.275,-0.088C0.308,-0.088 0.336,-0.1 0.357,-0.123C0.378,-0.146 0.389,-0.176 0.389,-0.214L0.389,-0.434C0.389,-0.455 0.394,-0.471 0.405,-0.482C0.416,-0.492 0.431,-0.497 0.451,-0.497C0.471,-0.497 0.487,-0.492 0.498,-0.482C0.508,-0.471 0.514,-0.455 0.514,-0.434L0.514,-0.056C0.514,-0.013 0.494,0.008 0.453,0.008C0.434,0.008 0.419,0.002 0.408,-0.009C0.397,-0.02 0.392,-0.035 0.392,-0.056L0.392,-0.132L0.406,-0.102C0.392,-0.066 0.371,-0.038 0.343,-0.019C0.314,0 0.281,0.01 0.242,0.01Z" style="fill:white;fill-rule:nonzero;"/>
                </g>
                <g transform="matrix(60,0,0,60,629.13,418.171)">
                    <path d="M0.129,0.008C0.109,0.008 0.094,0.002 0.083,-0.009C0.072,-0.02 0.067,-0.035 0.067,-0.056L0.067,-0.434C0.067,-0.455 0.072,-0.47 0.083,-0.481C0.094,-0.492 0.109,-0.497 0.128,-0.497C0.147,-0.497 0.162,-0.492 0.173,-0.481C0.184,-0.47 0.189,-0.455 0.189,-0.434L0.189,-0.361L0.178,-0.391C0.191,-0.424 0.212,-0.451 0.24,-0.47C0.268,-0.489 0.301,-0.499 0.34,-0.499C0.379,-0.499 0.412,-0.49 0.437,-0.471C0.462,-0.452 0.48,-0.424 0.49,-0.385L0.476,-0.385C0.489,-0.42 0.511,-0.448 0.542,-0.469C0.573,-0.489 0.608,-0.499 0.648,-0.499C0.685,-0.499 0.716,-0.492 0.741,-0.477C0.765,-0.462 0.783,-0.44 0.795,-0.41C0.807,-0.381 0.813,-0.343 0.813,-0.298L0.813,-0.056C0.813,-0.035 0.808,-0.02 0.797,-0.009C0.786,0.002 0.77,0.008 0.75,0.008C0.73,0.008 0.715,0.002 0.704,-0.009C0.693,-0.02 0.688,-0.035 0.688,-0.056L0.688,-0.293C0.688,-0.33 0.682,-0.358 0.67,-0.375C0.657,-0.392 0.636,-0.401 0.607,-0.401C0.574,-0.401 0.549,-0.39 0.53,-0.367C0.511,-0.344 0.502,-0.312 0.502,-0.271L0.502,-0.056C0.502,-0.035 0.497,-0.02 0.486,-0.009C0.475,0.002 0.46,0.008 0.44,0.008C0.42,0.008 0.405,0.002 0.394,-0.009C0.383,-0.02 0.377,-0.035 0.377,-0.056L0.377,-0.293C0.377,-0.33 0.371,-0.358 0.359,-0.375C0.346,-0.392 0.326,-0.401 0.297,-0.401C0.264,-0.401 0.239,-0.39 0.22,-0.367C0.201,-0.344 0.192,-0.312 0.192,-0.271L0.192,-0.056C0.192,-0.013 0.171,0.008 0.129,0.008Z" style="fill:white;fill-rule:nonzero;"/>
                </g>
                <g transform="matrix(60,0,0,60,395.4,488.171)">
                    <path d="M0.143,0.008C0.122,0.008 0.106,0.002 0.095,-0.01C0.083,-0.021 0.077,-0.038 0.077,-0.06L0.077,-0.637C0.077,-0.659 0.083,-0.676 0.095,-0.688C0.106,-0.699 0.123,-0.705 0.145,-0.705L0.494,-0.705C0.511,-0.705 0.524,-0.701 0.533,-0.692C0.542,-0.683 0.546,-0.671 0.546,-0.655C0.546,-0.638 0.542,-0.625 0.533,-0.617C0.524,-0.608 0.511,-0.603 0.494,-0.603L0.205,-0.603L0.205,-0.404L0.473,-0.404C0.49,-0.404 0.502,-0.4 0.511,-0.391C0.521,-0.382 0.525,-0.37 0.525,-0.354C0.525,-0.337 0.521,-0.325 0.511,-0.316C0.502,-0.307 0.49,-0.302 0.473,-0.302L0.205,-0.302L0.205,-0.06C0.205,-0.015 0.184,0.008 0.143,0.008Z" style="fill:white;fill-rule:nonzero;"/>
                </g>
                <g transform="matrix(60,0,0,60,428.4,488.171)">
                    <path d="M0.242,0.01C0.201,0.01 0.168,0.002 0.141,-0.013C0.114,-0.028 0.095,-0.05 0.082,-0.08C0.069,-0.11 0.062,-0.147 0.062,-0.192L0.062,-0.434C0.062,-0.455 0.067,-0.471 0.078,-0.482C0.089,-0.492 0.104,-0.497 0.124,-0.497C0.144,-0.497 0.16,-0.492 0.171,-0.482C0.182,-0.471 0.187,-0.455 0.187,-0.434L0.187,-0.19C0.187,-0.155 0.194,-0.13 0.208,-0.113C0.222,-0.096 0.244,-0.088 0.275,-0.088C0.308,-0.088 0.336,-0.1 0.357,-0.123C0.378,-0.146 0.389,-0.176 0.389,-0.214L0.389,-0.434C0.389,-0.455 0.394,-0.471 0.405,-0.482C0.416,-0.492 0.431,-0.497 0.451,-0.497C0.471,-0.497 0.487,-0.492 0.498,-0.482C0.508,-0.471 0.514,-0.455 0.514,-0.434L0.514,-0.056C0.514,-0.013 0.494,0.008 0.453,0.008C0.434,0.008 0.419,0.002 0.408,-0.009C0.397,-0.02 0.392,-0.035 0.392,-0.056L0.392,-0.132L0.406,-0.102C0.392,-0.066 0.371,-0.038 0.343,-0.019C0.314,0 0.281,0.01 0.242,0.01Z" style="fill:white;fill-rule:nonzero;"/>
                </g>
                <g transform="matrix(60,0,0,60,463.2,488.171)">
                    <path d="M0.127,0.008C0.107,0.008 0.092,0.002 0.081,-0.009C0.07,-0.02 0.065,-0.035 0.065,-0.056L0.065,-0.434C0.065,-0.455 0.07,-0.47 0.081,-0.481C0.092,-0.492 0.107,-0.497 0.126,-0.497C0.145,-0.497 0.16,-0.492 0.171,-0.481C0.182,-0.47 0.187,-0.455 0.187,-0.434L0.187,-0.366L0.176,-0.391C0.191,-0.426 0.214,-0.453 0.245,-0.471C0.276,-0.49 0.311,-0.499 0.35,-0.499C0.389,-0.499 0.422,-0.492 0.447,-0.477C0.472,-0.462 0.491,-0.44 0.504,-0.41C0.517,-0.381 0.523,-0.343 0.523,-0.298L0.523,-0.056C0.523,-0.035 0.518,-0.02 0.507,-0.009C0.496,0.002 0.481,0.008 0.461,0.008C0.441,0.008 0.426,0.002 0.414,-0.009C0.404,-0.02 0.398,-0.035 0.398,-0.056L0.398,-0.292C0.398,-0.33 0.391,-0.358 0.377,-0.375C0.362,-0.392 0.34,-0.401 0.31,-0.401C0.273,-0.401 0.244,-0.39 0.223,-0.367C0.201,-0.344 0.19,-0.313 0.19,-0.275L0.19,-0.056C0.19,-0.013 0.169,0.008 0.127,0.008Z" style="fill:white;fill-rule:nonzero;"/>
                </g>
                <g transform="matrix(60,0,0,60,498.36,488.171)">
                    <path d="M0.253,0.01C0.21,0.01 0.173,-0 0.141,-0.021C0.108,-0.042 0.083,-0.071 0.065,-0.11C0.047,-0.148 0.038,-0.193 0.038,-0.245C0.038,-0.298 0.047,-0.343 0.065,-0.381C0.083,-0.418 0.108,-0.447 0.141,-0.468C0.173,-0.489 0.21,-0.499 0.253,-0.499C0.294,-0.499 0.329,-0.489 0.36,-0.469C0.39,-0.449 0.41,-0.423 0.421,-0.39L0.41,-0.39L0.41,-0.65C0.41,-0.671 0.415,-0.686 0.426,-0.697C0.437,-0.708 0.452,-0.713 0.472,-0.713C0.492,-0.713 0.507,-0.708 0.519,-0.697C0.53,-0.686 0.535,-0.671 0.535,-0.65L0.535,-0.056C0.535,-0.035 0.53,-0.02 0.519,-0.009C0.508,0.002 0.493,0.008 0.473,0.008C0.453,0.008 0.438,0.002 0.427,-0.009C0.416,-0.02 0.411,-0.035 0.411,-0.056L0.411,-0.134L0.422,-0.104C0.412,-0.069 0.392,-0.042 0.361,-0.021C0.33,-0 0.294,0.01 0.253,0.01ZM0.288,-0.085C0.313,-0.085 0.334,-0.091 0.353,-0.103C0.372,-0.115 0.386,-0.133 0.397,-0.157C0.407,-0.18 0.412,-0.21 0.412,-0.245C0.412,-0.298 0.401,-0.338 0.378,-0.365C0.355,-0.391 0.325,-0.404 0.288,-0.404C0.263,-0.404 0.242,-0.398 0.223,-0.387C0.204,-0.375 0.19,-0.357 0.18,-0.334C0.169,-0.31 0.164,-0.28 0.164,-0.245C0.164,-0.192 0.175,-0.153 0.198,-0.126C0.221,-0.099 0.251,-0.085 0.288,-0.085Z" style="fill:white;fill-rule:nonzero;"/>
                </g>
                <g transform="matrix(60,0,0,60,534.42,488.171)">
                    <path d="M0.226,0.01C0.191,0.01 0.159,0.003 0.132,-0.011C0.104,-0.024 0.082,-0.043 0.067,-0.066C0.051,-0.089 0.043,-0.116 0.043,-0.145C0.043,-0.181 0.052,-0.21 0.071,-0.231C0.09,-0.252 0.12,-0.267 0.162,-0.276C0.204,-0.285 0.26,-0.29 0.331,-0.29L0.381,-0.29L0.381,-0.218L0.332,-0.218C0.291,-0.218 0.258,-0.216 0.233,-0.212C0.208,-0.208 0.191,-0.201 0.181,-0.192C0.17,-0.182 0.165,-0.168 0.165,-0.151C0.165,-0.129 0.173,-0.111 0.188,-0.097C0.203,-0.083 0.225,-0.076 0.252,-0.076C0.274,-0.076 0.294,-0.081 0.311,-0.092C0.328,-0.102 0.341,-0.116 0.351,-0.134C0.361,-0.152 0.366,-0.173 0.366,-0.196L0.366,-0.311C0.366,-0.344 0.359,-0.368 0.344,-0.383C0.329,-0.398 0.305,-0.405 0.27,-0.405C0.251,-0.405 0.23,-0.403 0.207,-0.398C0.185,-0.393 0.162,-0.385 0.137,-0.374C0.124,-0.368 0.113,-0.366 0.103,-0.369C0.094,-0.372 0.086,-0.377 0.081,-0.386C0.076,-0.394 0.073,-0.403 0.073,-0.413C0.073,-0.423 0.076,-0.433 0.081,-0.443C0.086,-0.452 0.095,-0.459 0.108,-0.464C0.139,-0.477 0.168,-0.486 0.197,-0.491C0.225,-0.496 0.251,-0.499 0.274,-0.499C0.322,-0.499 0.362,-0.492 0.393,-0.477C0.424,-0.462 0.447,-0.44 0.462,-0.41C0.477,-0.381 0.485,-0.343 0.485,-0.296L0.485,-0.056C0.485,-0.035 0.48,-0.02 0.47,-0.009C0.46,0.002 0.446,0.008 0.427,0.008C0.408,0.008 0.394,0.002 0.384,-0.009C0.373,-0.02 0.368,-0.035 0.368,-0.056L0.368,-0.104L0.376,-0.104C0.371,-0.081 0.362,-0.061 0.348,-0.043C0.335,-0.027 0.318,-0.013 0.297,-0.004C0.276,0.005 0.253,0.01 0.226,0.01Z" style="fill:white;fill-rule:nonzero;"/>
                </g>
                <g transform="matrix(60,0,0,60,567.3,488.171)">
                    <path d="M0.129,0.008C0.109,0.008 0.094,0.002 0.083,-0.009C0.072,-0.02 0.067,-0.035 0.067,-0.056L0.067,-0.434C0.067,-0.455 0.072,-0.47 0.083,-0.481C0.094,-0.492 0.109,-0.497 0.128,-0.497C0.147,-0.497 0.162,-0.492 0.173,-0.481C0.184,-0.47 0.189,-0.455 0.189,-0.434L0.189,-0.361L0.178,-0.391C0.191,-0.424 0.212,-0.451 0.24,-0.47C0.268,-0.489 0.301,-0.499 0.34,-0.499C0.379,-0.499 0.412,-0.49 0.437,-0.471C0.462,-0.452 0.48,-0.424 0.49,-0.385L0.476,-0.385C0.489,-0.42 0.511,-0.448 0.542,-0.469C0.573,-0.489 0.608,-0.499 0.648,-0.499C0.685,-0.499 0.716,-0.492 0.741,-0.477C0.765,-0.462 0.783,-0.44 0.795,-0.41C0.807,-0.381 0.813,-0.343 0.813,-0.298L0.813,-0.056C0.813,-0.035 0.808,-0.02 0.797,-0.009C0.786,0.002 0.77,0.008 0.75,0.008C0.73,0.008 0.715,0.002 0.704,-0.009C0.693,-0.02 0.688,-0.035 0.688,-0.056L0.688,-0.293C0.688,-0.33 0.682,-0.358 0.67,-0.375C0.657,-0.392 0.636,-0.401 0.607,-0.401C0.574,-0.401 0.549,-0.39 0.53,-0.367C0.511,-0.344 0.502,-0.312 0.502,-0.271L0.502,-0.056C0.502,-0.035 0.497,-0.02 0.486,-0.009C0.475,0.002 0.46,0.008 0.44,0.008C0.42,0.008 0.405,0.002 0.394,-0.009C0.383,-0.02 0.377,-0.035 0.377,-0.056L0.377,-0.293C0.377,-0.33 0.371,-0.358 0.359,-0.375C0.346,-0.392 0.326,-0.401 0.297,-0.401C0.264,-0.401 0.239,-0.39 0.22,-0.367C0.201,-0.344 0.192,-0.312 0.192,-0.271L0.192,-0.056C0.192,-0.013 0.171,0.008 0.129,0.008Z" style="fill:white;fill-rule:nonzero;"/>
                </g>
                <g transform="matrix(60,0,0,60,619.98,488.171)">
                    <path d="M0.306,0.01C0.251,0.01 0.203,-0 0.163,-0.021C0.123,-0.042 0.092,-0.071 0.07,-0.109C0.049,-0.147 0.038,-0.192 0.038,-0.244C0.038,-0.295 0.049,-0.339 0.07,-0.377C0.091,-0.415 0.119,-0.445 0.157,-0.467C0.194,-0.488 0.236,-0.499 0.283,-0.499C0.318,-0.499 0.349,-0.493 0.377,-0.482C0.404,-0.471 0.428,-0.454 0.448,-0.433C0.467,-0.412 0.482,-0.386 0.493,-0.356C0.503,-0.325 0.508,-0.291 0.508,-0.253C0.508,-0.241 0.504,-0.232 0.496,-0.226C0.487,-0.219 0.475,-0.216 0.46,-0.216L0.139,-0.216L0.139,-0.288L0.42,-0.288L0.404,-0.273C0.404,-0.304 0.4,-0.329 0.391,-0.35C0.382,-0.371 0.369,-0.387 0.352,-0.398C0.335,-0.408 0.313,-0.414 0.288,-0.414C0.26,-0.414 0.236,-0.407 0.217,-0.395C0.197,-0.382 0.182,-0.363 0.172,-0.34C0.161,-0.316 0.156,-0.288 0.156,-0.255L0.156,-0.248C0.156,-0.193 0.169,-0.153 0.195,-0.126C0.22,-0.099 0.258,-0.085 0.308,-0.085C0.325,-0.085 0.345,-0.087 0.367,-0.092C0.388,-0.096 0.409,-0.103 0.428,-0.114C0.442,-0.122 0.454,-0.126 0.465,-0.125C0.476,-0.124 0.484,-0.12 0.491,-0.113C0.497,-0.106 0.501,-0.098 0.502,-0.089C0.503,-0.079 0.501,-0.069 0.497,-0.059C0.492,-0.049 0.483,-0.04 0.471,-0.033C0.448,-0.018 0.421,-0.008 0.391,-0.001C0.36,0.006 0.332,0.01 0.306,0.01Z" style="fill:white;fill-rule:nonzero;"/>
                </g>
                <g transform="matrix(60,0,0,60,652.56,488.171)">
                    <path d="M0.127,0.008C0.107,0.008 0.092,0.002 0.081,-0.009C0.07,-0.02 0.065,-0.035 0.065,-0.056L0.065,-0.434C0.065,-0.455 0.07,-0.47 0.081,-0.481C0.092,-0.492 0.107,-0.497 0.126,-0.497C0.145,-0.497 0.16,-0.492 0.171,-0.481C0.182,-0.47 0.187,-0.455 0.187,-0.434L0.187,-0.366L0.176,-0.391C0.191,-0.426 0.214,-0.453 0.245,-0.471C0.276,-0.49 0.311,-0.499 0.35,-0.499C0.389,-0.499 0.422,-0.492 0.447,-0.477C0.472,-0.462 0.491,-0.44 0.504,-0.41C0.517,-0.381 0.523,-0.343 0.523,-0.298L0.523,-0.056C0.523,-0.035 0.518,-0.02 0.507,-0.009C0.496,0.002 0.481,0.008 0.461,0.008C0.441,0.008 0.426,0.002 0.414,-0.009C0.404,-0.02 0.398,-0.035 0.398,-0.056L0.398,-0.292C0.398,-0.33 0.391,-0.358 0.377,-0.375C0.362,-0.392 0.34,-0.401 0.31,-0.401C0.273,-0.401 0.244,-0.39 0.223,-0.367C0.201,-0.344 0.19,-0.313 0.19,-0.275L0.19,-0.056C0.19,-0.013 0.169,0.008 0.127,0.008Z" style="fill:white;fill-rule:nonzero;"/>
                </g>
                <g transform="matrix(60,0,0,60,687.72,488.171)">
                    <path d="M0.289,0.01C0.246,0.01 0.21,0.003 0.181,-0.012C0.152,-0.027 0.13,-0.048 0.116,-0.077C0.102,-0.105 0.095,-0.14 0.095,-0.182L0.095,-0.395L0.043,-0.395C0.027,-0.395 0.015,-0.399 0.006,-0.407C-0.003,-0.416 -0.007,-0.427 -0.007,-0.442C-0.007,-0.457 -0.003,-0.469 0.006,-0.477C0.015,-0.485 0.027,-0.489 0.043,-0.489L0.095,-0.489L0.095,-0.58C0.095,-0.601 0.101,-0.616 0.112,-0.627C0.123,-0.638 0.138,-0.643 0.158,-0.643C0.178,-0.643 0.193,-0.638 0.204,-0.627C0.215,-0.616 0.22,-0.601 0.22,-0.58L0.22,-0.489L0.326,-0.489C0.342,-0.489 0.354,-0.485 0.363,-0.477C0.372,-0.469 0.376,-0.457 0.376,-0.442C0.376,-0.427 0.372,-0.416 0.363,-0.407C0.354,-0.399 0.342,-0.395 0.326,-0.395L0.22,-0.395L0.22,-0.189C0.22,-0.157 0.227,-0.133 0.241,-0.117C0.255,-0.101 0.278,-0.093 0.309,-0.093C0.32,-0.093 0.33,-0.094 0.339,-0.096C0.348,-0.098 0.355,-0.099 0.362,-0.1C0.37,-0.101 0.377,-0.098 0.382,-0.093C0.387,-0.087 0.39,-0.075 0.39,-0.058C0.39,-0.045 0.388,-0.033 0.384,-0.023C0.379,-0.012 0.371,-0.005 0.36,-0.001C0.351,0.002 0.34,0.004 0.326,0.006C0.312,0.009 0.3,0.01 0.289,0.01Z" style="fill:white;fill-rule:nonzero;"/>
                </g>
                <g transform="matrix(60,0,0,60,710.82,488.171)">
                    <path d="M0.226,0.01C0.191,0.01 0.159,0.003 0.132,-0.011C0.104,-0.024 0.082,-0.043 0.067,-0.066C0.051,-0.089 0.043,-0.116 0.043,-0.145C0.043,-0.181 0.052,-0.21 0.071,-0.231C0.09,-0.252 0.12,-0.267 0.162,-0.276C0.204,-0.285 0.26,-0.29 0.331,-0.29L0.381,-0.29L0.381,-0.218L0.332,-0.218C0.291,-0.218 0.258,-0.216 0.233,-0.212C0.208,-0.208 0.191,-0.201 0.181,-0.192C0.17,-0.182 0.165,-0.168 0.165,-0.151C0.165,-0.129 0.173,-0.111 0.188,-0.097C0.203,-0.083 0.225,-0.076 0.252,-0.076C0.274,-0.076 0.294,-0.081 0.311,-0.092C0.328,-0.102 0.341,-0.116 0.351,-0.134C0.361,-0.152 0.366,-0.173 0.366,-0.196L0.366,-0.311C0.366,-0.344 0.359,-0.368 0.344,-0.383C0.329,-0.398 0.305,-0.405 0.27,-0.405C0.251,-0.405 0.23,-0.403 0.207,-0.398C0.185,-0.393 0.162,-0.385 0.137,-0.374C0.124,-0.368 0.113,-0.366 0.103,-0.369C0.094,-0.372 0.086,-0.377 0.081,-0.386C0.076,-0.394 0.073,-0.403 0.073,-0.413C0.073,-0.423 0.076,-0.433 0.081,-0.443C0.086,-0.452 0.095,-0.459 0.108,-0.464C0.139,-0.477 0.168,-0.486 0.197,-0.491C0.225,-0.496 0.251,-0.499 0.274,-0.499C0.322,-0.499 0.362,-0.492 0.393,-0.477C0.424,-0.462 0.447,-0.44 0.462,-0.41C0.477,-0.381 0.485,-0.343 0.485,-0.296L0.485,-0.056C0.485,-0.035 0.48,-0.02 0.47,-0.009C0.46,0.002 0.446,0.008 0.427,0.008C0.408,0.008 0.394,0.002 0.384,-0.009C0.373,-0.02 0.368,-0.035 0.368,-0.056L0.368,-0.104L0.376,-0.104C0.371,-0.081 0.362,-0.061 0.348,-0.043C0.335,-0.027 0.318,-0.013 0.297,-0.004C0.276,0.005 0.253,0.01 0.226,0.01Z" style="fill:white;fill-rule:nonzero;"/>
                </g>
                <g transform="matrix(60,0,0,60,743.7,488.171)">
                    <path d="M0.232,0.01C0.177,0.01 0.135,-0.006 0.107,-0.038C0.079,-0.069 0.065,-0.116 0.065,-0.177L0.065,-0.65C0.065,-0.671 0.07,-0.686 0.081,-0.697C0.092,-0.708 0.107,-0.713 0.127,-0.713C0.147,-0.713 0.163,-0.708 0.173,-0.697C0.185,-0.686 0.19,-0.671 0.19,-0.65L0.19,-0.183C0.19,-0.152 0.197,-0.13 0.21,-0.115C0.223,-0.1 0.241,-0.093 0.265,-0.093C0.27,-0.093 0.275,-0.093 0.28,-0.094C0.285,-0.094 0.289,-0.094 0.294,-0.095C0.303,-0.096 0.31,-0.094 0.313,-0.087C0.316,-0.081 0.318,-0.068 0.318,-0.049C0.318,-0.032 0.315,-0.019 0.308,-0.01C0.301,-0.001 0.29,0.005 0.275,0.007C0.268,0.008 0.261,0.008 0.254,0.009C0.247,0.01 0.239,0.01 0.232,0.01Z" style="fill:white;fill-rule:nonzero;"/>
                </g>
                <g transform="matrix(60,0,0,60,762.6,488.171)">
                    <path d="M0.244,0.01C0.215,0.01 0.185,0.007 0.153,0.001C0.121,-0.005 0.092,-0.015 0.067,-0.03C0.056,-0.037 0.049,-0.045 0.045,-0.054C0.04,-0.063 0.039,-0.071 0.04,-0.081C0.041,-0.09 0.044,-0.097 0.05,-0.104C0.055,-0.111 0.063,-0.115 0.071,-0.117C0.081,-0.119 0.09,-0.117 0.101,-0.112C0.128,-0.099 0.153,-0.091 0.176,-0.086C0.199,-0.081 0.222,-0.078 0.245,-0.078C0.277,-0.078 0.301,-0.084 0.317,-0.095C0.332,-0.106 0.34,-0.12 0.34,-0.138C0.34,-0.153 0.335,-0.165 0.325,-0.173C0.314,-0.182 0.299,-0.188 0.278,-0.192L0.178,-0.211C0.137,-0.219 0.105,-0.234 0.084,-0.257C0.062,-0.279 0.051,-0.308 0.051,-0.343C0.051,-0.375 0.06,-0.403 0.078,-0.426C0.095,-0.449 0.12,-0.467 0.151,-0.48C0.182,-0.493 0.218,-0.499 0.259,-0.499C0.288,-0.499 0.316,-0.496 0.342,-0.49C0.367,-0.483 0.392,-0.473 0.416,-0.46C0.426,-0.455 0.433,-0.448 0.437,-0.439C0.44,-0.43 0.441,-0.422 0.439,-0.412C0.437,-0.404 0.433,-0.396 0.427,-0.389C0.421,-0.382 0.413,-0.377 0.405,-0.376C0.396,-0.374 0.385,-0.376 0.374,-0.381C0.353,-0.392 0.334,-0.399 0.315,-0.404C0.296,-0.409 0.277,-0.411 0.26,-0.411C0.227,-0.411 0.203,-0.405 0.188,-0.394C0.172,-0.383 0.164,-0.368 0.164,-0.349C0.164,-0.335 0.169,-0.323 0.178,-0.314C0.187,-0.305 0.202,-0.298 0.221,-0.295L0.321,-0.276C0.364,-0.268 0.397,-0.253 0.42,-0.232C0.442,-0.211 0.453,-0.182 0.453,-0.146C0.453,-0.097 0.434,-0.059 0.396,-0.032C0.358,-0.004 0.307,0.01 0.244,0.01Z" style="fill:white;fill-rule:nonzero;"/>
                </g>
            </g>
        </g>
        <g transform="matrix(1,0,0,1,900,900)">
            <g transform="matrix(1,0,0,1,1.8322,0)">
                <g transform="matrix(50,0,0,50,289.155,547.667)">
                    <path d="M0.405,0.01C0.332,0.01 0.269,-0.005 0.217,-0.035C0.164,-0.064 0.124,-0.106 0.096,-0.161C0.068,-0.215 0.054,-0.279 0.054,-0.353C0.054,-0.408 0.062,-0.458 0.078,-0.502C0.094,-0.547 0.117,-0.585 0.147,-0.617C0.177,-0.648 0.214,-0.673 0.258,-0.69C0.301,-0.707 0.35,-0.715 0.405,-0.715C0.442,-0.715 0.478,-0.71 0.513,-0.701C0.548,-0.692 0.579,-0.678 0.606,-0.661C0.62,-0.652 0.629,-0.642 0.634,-0.629C0.639,-0.617 0.64,-0.605 0.637,-0.594C0.634,-0.582 0.629,-0.572 0.621,-0.564C0.612,-0.556 0.602,-0.552 0.59,-0.551C0.577,-0.55 0.564,-0.554 0.549,-0.563C0.528,-0.576 0.506,-0.586 0.482,-0.592C0.458,-0.598 0.434,-0.601 0.409,-0.601C0.362,-0.601 0.322,-0.591 0.289,-0.572C0.256,-0.553 0.232,-0.525 0.215,-0.488C0.198,-0.451 0.19,-0.406 0.19,-0.353C0.19,-0.3 0.198,-0.255 0.215,-0.218C0.232,-0.181 0.256,-0.152 0.289,-0.133C0.322,-0.114 0.362,-0.104 0.409,-0.104C0.434,-0.104 0.459,-0.107 0.484,-0.114C0.509,-0.12 0.532,-0.13 0.554,-0.143C0.569,-0.152 0.582,-0.156 0.594,-0.155C0.605,-0.154 0.615,-0.149 0.623,-0.142C0.631,-0.135 0.636,-0.126 0.639,-0.115C0.642,-0.103 0.641,-0.092 0.637,-0.081C0.633,-0.069 0.625,-0.059 0.613,-0.05C0.586,-0.031 0.555,-0.016 0.518,-0.006C0.481,0.005 0.443,0.01 0.405,0.01Z" style="fill:rgb(74,5,157);fill-rule:nonzero;"/>
                </g>
                <g transform="matrix(50,0,0,50,328.455,547.667)">
                    <path d="M0.137,0.008C0.118,0.008 0.104,0.003 0.094,-0.008C0.084,-0.019 0.079,-0.033 0.079,-0.052L0.079,-0.653C0.079,-0.672 0.084,-0.687 0.095,-0.698C0.106,-0.708 0.12,-0.713 0.139,-0.713C0.156,-0.713 0.169,-0.71 0.179,-0.704C0.188,-0.697 0.197,-0.686 0.205,-0.671L0.452,-0.214L0.42,-0.214L0.667,-0.671C0.675,-0.686 0.684,-0.697 0.693,-0.704C0.702,-0.71 0.715,-0.713 0.732,-0.713C0.751,-0.713 0.765,-0.708 0.775,-0.698C0.785,-0.687 0.79,-0.672 0.79,-0.653L0.79,-0.052C0.79,-0.033 0.785,-0.019 0.776,-0.008C0.766,0.003 0.751,0.008 0.732,0.008C0.713,0.008 0.699,0.003 0.689,-0.008C0.679,-0.019 0.674,-0.033 0.674,-0.052L0.674,-0.515L0.696,-0.515L0.486,-0.132C0.479,-0.121 0.472,-0.112 0.465,-0.107C0.458,-0.102 0.448,-0.099 0.435,-0.099C0.422,-0.099 0.412,-0.102 0.404,-0.108C0.396,-0.113 0.389,-0.121 0.383,-0.132L0.171,-0.516L0.195,-0.516L0.195,-0.052C0.195,-0.033 0.19,-0.019 0.181,-0.008C0.171,0.003 0.156,0.008 0.137,0.008Z" style="fill:rgb(74,5,157);fill-rule:nonzero;"/>
                </g>
                <g transform="matrix(50,0,0,50,378.555,547.667)">
                    <path d="M0.111,-0.218C0.096,-0.218 0.084,-0.223 0.075,-0.233C0.065,-0.242 0.06,-0.254 0.06,-0.268C0.06,-0.283 0.065,-0.295 0.075,-0.304C0.084,-0.313 0.096,-0.318 0.111,-0.318L0.324,-0.318C0.338,-0.318 0.35,-0.313 0.36,-0.304C0.369,-0.295 0.374,-0.283 0.374,-0.268C0.374,-0.254 0.369,-0.242 0.36,-0.233C0.35,-0.223 0.338,-0.218 0.324,-0.218L0.111,-0.218Z" style="fill:rgb(74,5,157);fill-rule:nonzero;"/>
                </g>
                <g transform="matrix(50,0,0,50,404.255,547.667)">
                    <path d="M0.32,0.01C0.291,0.01 0.261,0.008 0.232,0.003C0.203,-0.001 0.175,-0.008 0.149,-0.017C0.123,-0.025 0.1,-0.037 0.079,-0.05C0.067,-0.058 0.059,-0.068 0.054,-0.079C0.049,-0.09 0.048,-0.102 0.05,-0.113C0.051,-0.124 0.056,-0.133 0.063,-0.141C0.07,-0.15 0.078,-0.155 0.089,-0.157C0.1,-0.159 0.111,-0.156 0.124,-0.148C0.153,-0.131 0.184,-0.118 0.217,-0.11C0.25,-0.102 0.284,-0.098 0.32,-0.098C0.373,-0.098 0.411,-0.107 0.435,-0.125C0.459,-0.142 0.471,-0.165 0.471,-0.193C0.471,-0.216 0.463,-0.235 0.446,-0.248C0.429,-0.261 0.399,-0.272 0.358,-0.281L0.248,-0.304C0.185,-0.317 0.138,-0.34 0.107,-0.372C0.076,-0.403 0.06,-0.445 0.06,-0.497C0.06,-0.53 0.067,-0.559 0.08,-0.586C0.093,-0.613 0.112,-0.636 0.137,-0.655C0.161,-0.674 0.19,-0.689 0.224,-0.7C0.257,-0.71 0.294,-0.715 0.335,-0.715C0.375,-0.715 0.413,-0.71 0.449,-0.7C0.485,-0.69 0.517,-0.675 0.546,-0.656C0.557,-0.649 0.564,-0.64 0.568,-0.629C0.571,-0.618 0.572,-0.608 0.57,-0.598C0.568,-0.587 0.563,-0.578 0.556,-0.571C0.549,-0.564 0.54,-0.559 0.529,-0.558C0.518,-0.557 0.505,-0.56 0.491,-0.568C0.466,-0.582 0.441,-0.592 0.416,-0.598C0.391,-0.604 0.363,-0.607 0.334,-0.607C0.303,-0.607 0.277,-0.603 0.255,-0.594C0.233,-0.585 0.216,-0.573 0.204,-0.558C0.193,-0.542 0.187,-0.523 0.187,-0.502C0.187,-0.478 0.195,-0.459 0.211,-0.445C0.227,-0.43 0.254,-0.419 0.293,-0.411L0.402,-0.388C0.468,-0.374 0.517,-0.352 0.55,-0.322C0.582,-0.292 0.598,-0.252 0.598,-0.202C0.598,-0.17 0.592,-0.141 0.579,-0.115C0.566,-0.089 0.547,-0.067 0.523,-0.048C0.498,-0.029 0.469,-0.015 0.435,-0.005C0.401,0.005 0.363,0.01 0.32,0.01Z" style="fill:rgb(74,5,157);fill-rule:nonzero;"/>
                </g>
                <g transform="matrix(50,0,0,50,440.403,547.667)">
                    <path d="M0.143,0.008C0.122,0.008 0.106,0.002 0.095,-0.01C0.083,-0.021 0.077,-0.038 0.077,-0.06L0.077,-0.637C0.077,-0.659 0.083,-0.676 0.095,-0.688C0.106,-0.699 0.123,-0.705 0.145,-0.705L0.494,-0.705C0.511,-0.705 0.524,-0.701 0.533,-0.692C0.542,-0.683 0.546,-0.671 0.546,-0.655C0.546,-0.638 0.542,-0.625 0.533,-0.617C0.524,-0.608 0.511,-0.603 0.494,-0.603L0.205,-0.603L0.205,-0.404L0.473,-0.404C0.49,-0.404 0.502,-0.4 0.511,-0.391C0.521,-0.382 0.525,-0.37 0.525,-0.354C0.525,-0.337 0.521,-0.325 0.511,-0.316C0.502,-0.307 0.49,-0.302 0.473,-0.302L0.205,-0.302L0.205,-0.06C0.205,-0.015 0.184,0.008 0.143,0.008Z" style="fill:rgb(74,5,157);fill-rule:nonzero;"/>
                </g>
                <g transform="matrix(50,0,0,50,472.45,547.667)">
                    <path d="M0.405,0.01C0.332,0.01 0.269,-0.005 0.217,-0.035C0.164,-0.064 0.124,-0.106 0.096,-0.161C0.068,-0.215 0.054,-0.279 0.054,-0.353C0.054,-0.408 0.062,-0.458 0.078,-0.502C0.094,-0.547 0.117,-0.585 0.147,-0.617C0.177,-0.648 0.214,-0.673 0.258,-0.69C0.301,-0.707 0.35,-0.715 0.405,-0.715C0.442,-0.715 0.478,-0.71 0.513,-0.701C0.548,-0.692 0.579,-0.678 0.606,-0.661C0.62,-0.652 0.629,-0.642 0.634,-0.629C0.639,-0.617 0.64,-0.605 0.637,-0.594C0.634,-0.582 0.629,-0.572 0.621,-0.564C0.612,-0.556 0.602,-0.552 0.59,-0.551C0.577,-0.55 0.564,-0.554 0.549,-0.563C0.528,-0.576 0.506,-0.586 0.482,-0.592C0.458,-0.598 0.434,-0.601 0.409,-0.601C0.362,-0.601 0.322,-0.591 0.289,-0.572C0.256,-0.553 0.232,-0.525 0.215,-0.488C0.198,-0.451 0.19,-0.406 0.19,-0.353C0.19,-0.3 0.198,-0.255 0.215,-0.218C0.232,-0.181 0.256,-0.152 0.289,-0.133C0.322,-0.114 0.362,-0.104 0.409,-0.104C0.434,-0.104 0.459,-0.107 0.484,-0.114C0.509,-0.12 0.532,-0.13 0.554,-0.143C0.569,-0.152 0.582,-0.156 0.594,-0.155C0.605,-0.154 0.615,-0.149 0.623,-0.142C0.631,-0.135 0.636,-0.126 0.639,-0.115C0.642,-0.103 0.641,-0.092 0.637,-0.081C0.633,-0.069 0.625,-0.059 0.613,-0.05C0.586,-0.031 0.555,-0.016 0.518,-0.006C0.481,0.005 0.443,0.01 0.405,0.01Z" style="fill:rgb(74,5,157);fill-rule:nonzero;"/>
                </g>
            </g>
        </g>
        <g transform="matrix(1,0,0,1,900,900)">
            <g transform="matrix(0.79127,0.611467,-0.611467,0.79127,0,0)">
                <g transform="matrix(37.3481,0,0,37.3481,548.596,349.742)">
                    <path d="M0.405,0.01C0.332,0.01 0.269,-0.005 0.217,-0.035C0.164,-0.064 0.124,-0.106 0.096,-0.161C0.068,-0.215 0.054,-0.279 0.054,-0.353C0.054,-0.408 0.062,-0.458 0.078,-0.502C0.094,-0.547 0.117,-0.585 0.147,-0.617C0.177,-0.648 0.214,-0.673 0.258,-0.69C0.301,-0.707 0.35,-0.715 0.405,-0.715C0.442,-0.715 0.478,-0.71 0.513,-0.701C0.548,-0.692 0.579,-0.678 0.606,-0.661C0.62,-0.652 0.629,-0.642 0.634,-0.629C0.639,-0.617 0.64,-0.605 0.637,-0.594C0.634,-0.582 0.629,-0.572 0.621,-0.564C0.612,-0.556 0.602,-0.552 0.59,-0.551C0.577,-0.55 0.564,-0.554 0.549,-0.563C0.528,-0.576 0.506,-0.586 0.482,-0.592C0.458,-0.598 0.434,-0.601 0.409,-0.601C0.362,-0.601 0.322,-0.591 0.289,-0.572C0.256,-0.553 0.232,-0.525 0.215,-0.488C0.198,-0.451 0.19,-0.406 0.19,-0.353C0.19,-0.3 0.198,-0.255 0.215,-0.218C0.232,-0.181 0.256,-0.152 0.289,-0.133C0.322,-0.114 0.362,-0.104 0.409,-0.104C0.434,-0.104 0.459,-0.107 0.484,-0.114C0.509,-0.12 0.532,-0.13 0.554,-0.143C0.569,-0.152 0.582,-0.156 0.594,-0.155C0.605,-0.154 0.615,-0.149 0.623,-0.142C0.631,-0.135 0.636,-0.126 0.639,-0.115C0.642,-0.103 0.641,-0.092 0.637,-0.081C0.633,-0.069 0.625,-0.059 0.613,-0.05C0.586,-0.031 0.555,-0.016 0.518,-0.006C0.481,0.005 0.443,0.01 0.405,0.01Z" style="fill:rgb(74,5,157);fill-rule:nonzero;"/>
                </g>
            </g>
            <g transform="matrix(0.838692,0.544607,-0.544607,0.838692,0,0)">
                <g transform="matrix(37.3481,0,0,37.3481,543.462,395.474)">
                    <path d="M0.306,0.01C0.251,0.01 0.203,-0 0.163,-0.021C0.123,-0.042 0.092,-0.071 0.07,-0.109C0.049,-0.147 0.038,-0.192 0.038,-0.244C0.038,-0.295 0.049,-0.339 0.07,-0.377C0.091,-0.415 0.119,-0.445 0.157,-0.467C0.194,-0.488 0.236,-0.499 0.283,-0.499C0.318,-0.499 0.349,-0.493 0.377,-0.482C0.404,-0.471 0.428,-0.454 0.448,-0.433C0.467,-0.412 0.482,-0.386 0.493,-0.356C0.503,-0.325 0.508,-0.291 0.508,-0.253C0.508,-0.241 0.504,-0.232 0.496,-0.226C0.487,-0.219 0.475,-0.216 0.46,-0.216L0.139,-0.216L0.139,-0.288L0.42,-0.288L0.404,-0.273C0.404,-0.304 0.4,-0.329 0.391,-0.35C0.382,-0.371 0.369,-0.387 0.352,-0.398C0.335,-0.408 0.313,-0.414 0.288,-0.414C0.26,-0.414 0.236,-0.407 0.217,-0.395C0.197,-0.382 0.182,-0.363 0.172,-0.34C0.161,-0.316 0.156,-0.288 0.156,-0.255L0.156,-0.248C0.156,-0.193 0.169,-0.153 0.195,-0.126C0.22,-0.099 0.258,-0.085 0.308,-0.085C0.325,-0.085 0.345,-0.087 0.367,-0.092C0.388,-0.096 0.409,-0.103 0.428,-0.114C0.442,-0.122 0.454,-0.126 0.465,-0.125C0.476,-0.124 0.484,-0.12 0.491,-0.113C0.497,-0.106 0.501,-0.098 0.502,-0.089C0.503,-0.079 0.501,-0.069 0.497,-0.059C0.492,-0.049 0.483,-0.04 0.471,-0.033C0.448,-0.018 0.421,-0.008 0.391,-0.001C0.36,0.006 0.332,0.01 0.306,0.01Z" style="fill:rgb(74,5,157);fill-rule:nonzero;"/>
                </g>
            </g>
            <g transform="matrix(0.873103,0.487536,-0.487536,0.873103,0,0)">
                <g transform="matrix(37.348,0,0,37.348,537.193,432.085)">
                    <path d="M0.129,0.008C0.108,0.008 0.093,0.002 0.082,-0.009C0.07,-0.02 0.065,-0.035 0.065,-0.056L0.065,-0.434C0.065,-0.455 0.07,-0.47 0.081,-0.481C0.092,-0.492 0.107,-0.497 0.126,-0.497C0.145,-0.497 0.16,-0.492 0.171,-0.481C0.182,-0.47 0.187,-0.455 0.187,-0.434L0.187,-0.371L0.177,-0.371C0.186,-0.411 0.205,-0.441 0.232,-0.462C0.259,-0.483 0.296,-0.495 0.341,-0.499C0.355,-0.5 0.366,-0.497 0.375,-0.489C0.383,-0.48 0.388,-0.467 0.389,-0.45C0.39,-0.433 0.387,-0.42 0.378,-0.409C0.369,-0.399 0.355,-0.393 0.337,-0.391L0.315,-0.389C0.274,-0.385 0.244,-0.373 0.223,-0.352C0.202,-0.331 0.192,-0.301 0.192,-0.263L0.192,-0.056C0.192,-0.035 0.187,-0.02 0.176,-0.009C0.165,0.002 0.15,0.008 0.129,0.008Z" style="fill:rgb(74,5,157);fill-rule:nonzero;"/>
                </g>
            </g>
            <g transform="matrix(0.900584,0.434681,-0.434681,0.900584,0,0)">
                <g transform="matrix(37.3481,0,0,37.3481,527.141,464.233)">
                    <path d="M0.289,0.01C0.246,0.01 0.21,0.003 0.181,-0.012C0.152,-0.027 0.13,-0.048 0.116,-0.077C0.102,-0.105 0.095,-0.14 0.095,-0.182L0.095,-0.395L0.043,-0.395C0.027,-0.395 0.015,-0.399 0.006,-0.407C-0.003,-0.416 -0.007,-0.427 -0.007,-0.442C-0.007,-0.457 -0.003,-0.469 0.006,-0.477C0.015,-0.485 0.027,-0.489 0.043,-0.489L0.095,-0.489L0.095,-0.58C0.095,-0.601 0.101,-0.616 0.112,-0.627C0.123,-0.638 0.138,-0.643 0.158,-0.643C0.178,-0.643 0.193,-0.638 0.204,-0.627C0.215,-0.616 0.22,-0.601 0.22,-0.58L0.22,-0.489L0.326,-0.489C0.342,-0.489 0.354,-0.485 0.363,-0.477C0.372,-0.469 0.376,-0.457 0.376,-0.442C0.376,-0.427 0.372,-0.416 0.363,-0.407C0.354,-0.399 0.342,-0.395 0.326,-0.395L0.22,-0.395L0.22,-0.189C0.22,-0.157 0.227,-0.133 0.241,-0.117C0.255,-0.101 0.278,-0.093 0.309,-0.093C0.32,-0.093 0.33,-0.094 0.339,-0.096C0.348,-0.098 0.355,-0.099 0.362,-0.1C0.37,-0.101 0.377,-0.098 0.382,-0.093C0.387,-0.087 0.39,-0.075 0.39,-0.058C0.39,-0.045 0.388,-0.033 0.384,-0.023C0.379,-0.012 0.371,-0.005 0.36,-0.001C0.351,0.002 0.34,0.004 0.326,0.006C0.312,0.009 0.3,0.01 0.289,0.01Z" style="fill:rgb(74,5,157);fill-rule:nonzero;"/>
                </g>
            </g>
            <g transform="matrix(0.920295,0.391225,-0.391225,0.920295,0,0)">
                <g transform="matrix(37.348,0,0,37.348,519.98,489.508)">
                    <path d="M0.127,0.007C0.107,0.007 0.092,0.001 0.081,-0.011C0.07,-0.023 0.065,-0.04 0.065,-0.061L0.065,-0.428C0.065,-0.45 0.07,-0.467 0.081,-0.478C0.092,-0.49 0.107,-0.496 0.127,-0.496C0.147,-0.496 0.163,-0.49 0.173,-0.478C0.185,-0.467 0.19,-0.45 0.19,-0.428L0.19,-0.061C0.19,-0.04 0.185,-0.023 0.174,-0.011C0.163,0.001 0.148,0.007 0.127,0.007ZM0.127,-0.589C0.104,-0.589 0.086,-0.595 0.073,-0.607C0.059,-0.618 0.053,-0.634 0.053,-0.655C0.053,-0.676 0.059,-0.693 0.073,-0.704C0.086,-0.715 0.104,-0.721 0.127,-0.721C0.151,-0.721 0.169,-0.715 0.182,-0.704C0.195,-0.693 0.201,-0.676 0.201,-0.655C0.201,-0.634 0.195,-0.618 0.182,-0.607C0.169,-0.595 0.151,-0.589 0.127,-0.589Z" style="fill:rgb(74,5,157);fill-rule:nonzero;"/>
                </g>
            </g>
            <g transform="matrix(0.942849,0.333219,-0.333219,0.942849,0,0)">
                <g transform="matrix(37.3481,0,0,37.3481,499.026,521.736)">
                    <path d="M0.161,0.008C0.141,0.008 0.126,0.002 0.115,-0.009C0.103,-0.02 0.098,-0.035 0.098,-0.056L0.098,-0.395L0.052,-0.395C0.036,-0.395 0.024,-0.399 0.015,-0.407C0.006,-0.416 0.002,-0.427 0.002,-0.442C0.002,-0.457 0.006,-0.469 0.015,-0.477C0.024,-0.485 0.036,-0.489 0.052,-0.489L0.134,-0.489L0.098,-0.456L0.098,-0.49C0.098,-0.557 0.115,-0.608 0.149,-0.643C0.183,-0.678 0.232,-0.698 0.297,-0.705L0.327,-0.708C0.342,-0.709 0.355,-0.707 0.364,-0.702C0.373,-0.697 0.379,-0.69 0.382,-0.681C0.385,-0.672 0.385,-0.662 0.383,-0.653C0.381,-0.643 0.377,-0.634 0.371,-0.627C0.365,-0.621 0.357,-0.617 0.348,-0.616L0.324,-0.614C0.289,-0.611 0.263,-0.602 0.247,-0.585C0.231,-0.568 0.223,-0.543 0.223,-0.51L0.223,-0.473L0.207,-0.489L0.484,-0.489C0.504,-0.489 0.519,-0.483 0.53,-0.471C0.541,-0.46 0.546,-0.443 0.546,-0.422L0.546,-0.061C0.546,-0.04 0.541,-0.023 0.531,-0.011C0.52,0.001 0.505,0.007 0.484,0.007C0.464,0.007 0.449,0.001 0.438,-0.011C0.427,-0.023 0.421,-0.04 0.421,-0.061L0.421,-0.395L0.223,-0.395L0.223,-0.056C0.223,-0.013 0.202,0.008 0.161,0.008ZM0.486,-0.589C0.463,-0.589 0.446,-0.595 0.434,-0.607C0.421,-0.618 0.415,-0.634 0.415,-0.655C0.415,-0.676 0.421,-0.693 0.434,-0.704C0.446,-0.715 0.463,-0.721 0.486,-0.721C0.509,-0.721 0.527,-0.715 0.54,-0.704C0.552,-0.693 0.558,-0.676 0.558,-0.655C0.558,-0.634 0.552,-0.618 0.54,-0.607C0.527,-0.595 0.509,-0.589 0.486,-0.589Z" style="fill:rgb(74,5,157);fill-rule:nonzero;"/>
                </g>
            </g>
            <g transform="matrix(0.967233,0.25389,-0.25389,0.967233,0,0)">
                <g transform="matrix(37.3481,0,0,37.3481,478.152,563.215)">
                    <path d="M0.306,0.01C0.251,0.01 0.203,-0 0.163,-0.021C0.123,-0.042 0.092,-0.071 0.07,-0.109C0.049,-0.147 0.038,-0.192 0.038,-0.244C0.038,-0.295 0.049,-0.339 0.07,-0.377C0.091,-0.415 0.119,-0.445 0.157,-0.467C0.194,-0.488 0.236,-0.499 0.283,-0.499C0.318,-0.499 0.349,-0.493 0.377,-0.482C0.404,-0.471 0.428,-0.454 0.448,-0.433C0.467,-0.412 0.482,-0.386 0.493,-0.356C0.503,-0.325 0.508,-0.291 0.508,-0.253C0.508,-0.241 0.504,-0.232 0.496,-0.226C0.487,-0.219 0.475,-0.216 0.46,-0.216L0.139,-0.216L0.139,-0.288L0.42,-0.288L0.404,-0.273C0.404,-0.304 0.4,-0.329 0.391,-0.35C0.382,-0.371 0.369,-0.387 0.352,-0.398C0.335,-0.408 0.313,-0.414 0.288,-0.414C0.26,-0.414 0.236,-0.407 0.217,-0.395C0.197,-0.382 0.182,-0.363 0.172,-0.34C0.161,-0.316 0.156,-0.288 0.156,-0.255L0.156,-0.248C0.156,-0.193 0.169,-0.153 0.195,-0.126C0.22,-0.099 0.258,-0.085 0.308,-0.085C0.325,-0.085 0.345,-0.087 0.367,-0.092C0.388,-0.096 0.409,-0.103 0.428,-0.114C0.442,-0.122 0.454,-0.126 0.465,-0.125C0.476,-0.124 0.484,-0.12 0.491,-0.113C0.497,-0.106 0.501,-0.098 0.502,-0.089C0.503,-0.079 0.501,-0.069 0.497,-0.059C0.492,-0.049 0.483,-0.04 0.471,-0.033C0.448,-0.018 0.421,-0.008 0.391,-0.001C0.36,0.006 0.332,0.01 0.306,0.01Z" style="fill:rgb(74,5,157);fill-rule:nonzero;"/>
                </g>
            </g>
            <g transform="matrix(0.984777,0.173822,-0.173822,0.984777,0,0)">
                <g transform="matrix(37.348,0,0,37.348,451.92,602.239)">
                    <path d="M0.253,0.01C0.21,0.01 0.173,-0 0.141,-0.021C0.108,-0.042 0.083,-0.071 0.065,-0.11C0.047,-0.148 0.038,-0.193 0.038,-0.245C0.038,-0.298 0.047,-0.343 0.065,-0.381C0.083,-0.418 0.108,-0.447 0.141,-0.468C0.173,-0.489 0.21,-0.499 0.253,-0.499C0.294,-0.499 0.329,-0.489 0.36,-0.469C0.39,-0.449 0.41,-0.423 0.421,-0.39L0.41,-0.39L0.41,-0.65C0.41,-0.671 0.415,-0.686 0.426,-0.697C0.437,-0.708 0.452,-0.713 0.472,-0.713C0.492,-0.713 0.507,-0.708 0.519,-0.697C0.53,-0.686 0.535,-0.671 0.535,-0.65L0.535,-0.056C0.535,-0.035 0.53,-0.02 0.519,-0.009C0.508,0.002 0.493,0.008 0.473,0.008C0.453,0.008 0.438,0.002 0.427,-0.009C0.416,-0.02 0.411,-0.035 0.411,-0.056L0.411,-0.134L0.422,-0.104C0.412,-0.069 0.392,-0.042 0.361,-0.021C0.33,-0 0.294,0.01 0.253,0.01ZM0.288,-0.085C0.313,-0.085 0.334,-0.091 0.353,-0.103C0.372,-0.115 0.386,-0.133 0.397,-0.157C0.407,-0.18 0.412,-0.21 0.412,-0.245C0.412,-0.298 0.401,-0.338 0.378,-0.365C0.355,-0.391 0.325,-0.404 0.288,-0.404C0.263,-0.404 0.242,-0.398 0.223,-0.387C0.204,-0.375 0.19,-0.357 0.18,-0.334C0.169,-0.31 0.164,-0.28 0.164,-0.245C0.164,-0.192 0.175,-0.153 0.198,-0.126C0.221,-0.099 0.251,-0.085 0.288,-0.085Z" style="fill:rgb(74,5,157);fill-rule:nonzero;"/>
                </g>
            </g>
            <g transform="matrix(0.998891,0.0470733,-0.0470733,0.998891,0,0)">
                <g transform="matrix(37.3481,0,0,37.3481,405.998,658.544)">
                    <path d="M0.141,0.008C0.12,0.008 0.105,0.002 0.094,-0.01C0.083,-0.021 0.077,-0.037 0.077,-0.058L0.077,-0.64C0.077,-0.661 0.083,-0.678 0.094,-0.689C0.105,-0.7 0.121,-0.705 0.142,-0.705L0.383,-0.705C0.46,-0.705 0.52,-0.686 0.562,-0.647C0.604,-0.608 0.625,-0.554 0.625,-0.485C0.625,-0.416 0.604,-0.362 0.562,-0.323C0.52,-0.283 0.46,-0.264 0.383,-0.264L0.205,-0.264L0.205,-0.058C0.205,-0.037 0.2,-0.021 0.189,-0.01C0.178,0.002 0.162,0.008 0.141,0.008ZM0.205,-0.365L0.363,-0.365C0.408,-0.365 0.443,-0.375 0.466,-0.396C0.489,-0.416 0.501,-0.446 0.501,-0.485C0.501,-0.524 0.489,-0.554 0.466,-0.574C0.443,-0.594 0.408,-0.604 0.363,-0.604L0.205,-0.604L0.205,-0.365Z" style="fill:rgb(74,5,157);fill-rule:nonzero;"/>
                </g>
            </g>
            <g transform="matrix(0.999704,-0.0243386,0.0243386,0.999704,0,0)">
                <g transform="matrix(37.3481,0,0,37.3481,382.961,687.431)">
                    <path d="M0.129,0.008C0.108,0.008 0.093,0.002 0.082,-0.009C0.07,-0.02 0.065,-0.035 0.065,-0.056L0.065,-0.434C0.065,-0.455 0.07,-0.47 0.081,-0.481C0.092,-0.492 0.107,-0.497 0.126,-0.497C0.145,-0.497 0.16,-0.492 0.171,-0.481C0.182,-0.47 0.187,-0.455 0.187,-0.434L0.187,-0.371L0.177,-0.371C0.186,-0.411 0.205,-0.441 0.232,-0.462C0.259,-0.483 0.296,-0.495 0.341,-0.499C0.355,-0.5 0.366,-0.497 0.375,-0.489C0.383,-0.48 0.388,-0.467 0.389,-0.45C0.39,-0.433 0.387,-0.42 0.378,-0.409C0.369,-0.399 0.355,-0.393 0.337,-0.391L0.315,-0.389C0.274,-0.385 0.244,-0.373 0.223,-0.352C0.202,-0.331 0.192,-0.301 0.192,-0.263L0.192,-0.056C0.192,-0.035 0.187,-0.02 0.176,-0.009C0.165,0.002 0.15,0.008 0.129,0.008Z" style="fill:rgb(74,5,157);fill-rule:nonzero;"/>
                </g>
            </g>
            <g transform="matrix(0.995813,-0.0914104,0.0914104,0.995813,0,0)">
                <g transform="matrix(37.3481,0,0,37.3481,351.335,712.72)">
                    <path d="M0.288,0.01C0.237,0.01 0.193,-0 0.156,-0.021C0.119,-0.042 0.09,-0.071 0.069,-0.11C0.048,-0.148 0.038,-0.193 0.038,-0.245C0.038,-0.284 0.044,-0.32 0.056,-0.35C0.067,-0.382 0.084,-0.408 0.106,-0.431C0.128,-0.453 0.154,-0.47 0.185,-0.482C0.216,-0.493 0.25,-0.499 0.288,-0.499C0.339,-0.499 0.383,-0.489 0.42,-0.468C0.457,-0.447 0.486,-0.418 0.507,-0.38C0.528,-0.342 0.538,-0.297 0.538,-0.245C0.538,-0.206 0.532,-0.17 0.521,-0.139C0.509,-0.108 0.492,-0.081 0.47,-0.059C0.448,-0.036 0.422,-0.019 0.391,-0.008C0.36,0.004 0.326,0.01 0.288,0.01ZM0.288,-0.085C0.313,-0.085 0.334,-0.091 0.353,-0.103C0.372,-0.115 0.386,-0.133 0.397,-0.157C0.407,-0.18 0.412,-0.21 0.412,-0.245C0.412,-0.298 0.401,-0.338 0.378,-0.365C0.355,-0.391 0.325,-0.404 0.288,-0.404C0.263,-0.404 0.242,-0.398 0.223,-0.387C0.204,-0.375 0.19,-0.357 0.18,-0.334C0.169,-0.31 0.164,-0.28 0.164,-0.245C0.164,-0.192 0.175,-0.153 0.198,-0.126C0.221,-0.099 0.251,-0.085 0.288,-0.085Z" style="fill:rgb(74,5,157);fill-rule:nonzero;"/>
                </g>
            </g>
            <g transform="matrix(0.987558,-0.157258,0.157258,0.987558,0,0)">
                <g transform="matrix(37.3481,0,0,37.3481,325.668,735.78)">
                    <path d="M0.161,0.008C0.141,0.008 0.126,0.002 0.115,-0.009C0.103,-0.02 0.098,-0.035 0.098,-0.056L0.098,-0.395L0.052,-0.395C0.036,-0.395 0.024,-0.399 0.015,-0.407C0.006,-0.416 0.002,-0.427 0.002,-0.442C0.002,-0.457 0.006,-0.469 0.015,-0.477C0.024,-0.485 0.036,-0.489 0.052,-0.489L0.134,-0.489L0.098,-0.456L0.098,-0.49C0.098,-0.559 0.115,-0.61 0.15,-0.645C0.185,-0.679 0.235,-0.699 0.3,-0.705L0.334,-0.708C0.347,-0.709 0.358,-0.707 0.366,-0.702C0.374,-0.696 0.379,-0.689 0.382,-0.68C0.385,-0.671 0.385,-0.661 0.383,-0.652C0.381,-0.643 0.377,-0.634 0.371,-0.627C0.364,-0.621 0.356,-0.617 0.346,-0.616L0.332,-0.615C0.294,-0.612 0.266,-0.603 0.249,-0.586C0.232,-0.569 0.223,-0.544 0.223,-0.51L0.223,-0.473L0.207,-0.489L0.308,-0.489C0.324,-0.489 0.336,-0.485 0.345,-0.477C0.354,-0.469 0.358,-0.457 0.358,-0.442C0.358,-0.427 0.354,-0.416 0.345,-0.407C0.336,-0.399 0.324,-0.395 0.308,-0.395L0.223,-0.395L0.223,-0.056C0.223,-0.013 0.202,0.008 0.161,0.008Z" style="fill:rgb(74,5,157);fill-rule:nonzero;"/>
                </g>
            </g>
            <g transform="matrix(0.975677,-0.219214,0.219214,0.975677,0,0)">
                <g transform="matrix(37.348,0,0,37.348,292.726,755.83)">
                    <path d="M0.306,0.01C0.251,0.01 0.203,-0 0.163,-0.021C0.123,-0.042 0.092,-0.071 0.07,-0.109C0.049,-0.147 0.038,-0.192 0.038,-0.244C0.038,-0.295 0.049,-0.339 0.07,-0.377C0.091,-0.415 0.119,-0.445 0.157,-0.467C0.194,-0.488 0.236,-0.499 0.283,-0.499C0.318,-0.499 0.349,-0.493 0.377,-0.482C0.404,-0.471 0.428,-0.454 0.448,-0.433C0.467,-0.412 0.482,-0.386 0.493,-0.356C0.503,-0.325 0.508,-0.291 0.508,-0.253C0.508,-0.241 0.504,-0.232 0.496,-0.226C0.487,-0.219 0.475,-0.216 0.46,-0.216L0.139,-0.216L0.139,-0.288L0.42,-0.288L0.404,-0.273C0.404,-0.304 0.4,-0.329 0.391,-0.35C0.382,-0.371 0.369,-0.387 0.352,-0.398C0.335,-0.408 0.313,-0.414 0.288,-0.414C0.26,-0.414 0.236,-0.407 0.217,-0.395C0.197,-0.382 0.182,-0.363 0.172,-0.34C0.161,-0.316 0.156,-0.288 0.156,-0.255L0.156,-0.248C0.156,-0.193 0.169,-0.153 0.195,-0.126C0.22,-0.099 0.258,-0.085 0.308,-0.085C0.325,-0.085 0.345,-0.087 0.367,-0.092C0.388,-0.096 0.409,-0.103 0.428,-0.114C0.442,-0.122 0.454,-0.126 0.465,-0.125C0.476,-0.124 0.484,-0.12 0.491,-0.113C0.497,-0.106 0.501,-0.098 0.502,-0.089C0.503,-0.079 0.501,-0.069 0.497,-0.059C0.492,-0.049 0.483,-0.04 0.471,-0.033C0.448,-0.018 0.421,-0.008 0.391,-0.001C0.36,0.006 0.332,0.01 0.306,0.01Z" style="fill:rgb(74,5,157);fill-rule:nonzero;"/>
                </g>
            </g>
            <g transform="matrix(0.956785,-0.290797,0.290797,0.956785,0,0)">
                <g transform="matrix(37.3481,0,0,37.3481,257.388,776.919)">
                    <path d="M0.244,0.01C0.215,0.01 0.185,0.007 0.153,0.001C0.121,-0.005 0.092,-0.015 0.067,-0.03C0.056,-0.037 0.049,-0.045 0.045,-0.054C0.04,-0.063 0.039,-0.071 0.04,-0.081C0.041,-0.09 0.044,-0.097 0.05,-0.104C0.055,-0.111 0.063,-0.115 0.071,-0.117C0.081,-0.119 0.09,-0.117 0.101,-0.112C0.128,-0.099 0.153,-0.091 0.176,-0.086C0.199,-0.081 0.222,-0.078 0.245,-0.078C0.277,-0.078 0.301,-0.084 0.317,-0.095C0.332,-0.106 0.34,-0.12 0.34,-0.138C0.34,-0.153 0.335,-0.165 0.325,-0.173C0.314,-0.182 0.299,-0.188 0.278,-0.192L0.178,-0.211C0.137,-0.219 0.105,-0.234 0.084,-0.257C0.062,-0.279 0.051,-0.308 0.051,-0.343C0.051,-0.375 0.06,-0.403 0.078,-0.426C0.095,-0.449 0.12,-0.467 0.151,-0.48C0.182,-0.493 0.218,-0.499 0.259,-0.499C0.288,-0.499 0.316,-0.496 0.342,-0.49C0.367,-0.483 0.392,-0.473 0.416,-0.46C0.426,-0.455 0.433,-0.448 0.437,-0.439C0.44,-0.43 0.441,-0.422 0.439,-0.412C0.437,-0.404 0.433,-0.396 0.427,-0.389C0.421,-0.382 0.413,-0.377 0.405,-0.376C0.396,-0.374 0.385,-0.376 0.374,-0.381C0.353,-0.392 0.334,-0.399 0.315,-0.404C0.296,-0.409 0.277,-0.411 0.26,-0.411C0.227,-0.411 0.203,-0.405 0.188,-0.394C0.172,-0.383 0.164,-0.368 0.164,-0.349C0.164,-0.335 0.169,-0.323 0.178,-0.314C0.187,-0.305 0.202,-0.298 0.221,-0.295L0.321,-0.276C0.364,-0.268 0.397,-0.253 0.42,-0.232C0.442,-0.211 0.453,-0.182 0.453,-0.146C0.453,-0.097 0.434,-0.059 0.396,-0.032C0.358,-0.004 0.307,0.01 0.244,0.01Z" style="fill:rgb(74,5,157);fill-rule:nonzero;"/>
                </g>
            </g>
            <g transform="matrix(0.934009,-0.35725,0.35725,0.934009,0,0)">
                <g transform="matrix(37.348,0,0,37.348,221.54,794.392)">
                    <path d="M0.244,0.01C0.215,0.01 0.185,0.007 0.153,0.001C0.121,-0.005 0.092,-0.015 0.067,-0.03C0.056,-0.037 0.049,-0.045 0.045,-0.054C0.04,-0.063 0.039,-0.071 0.04,-0.081C0.041,-0.09 0.044,-0.097 0.05,-0.104C0.055,-0.111 0.063,-0.115 0.071,-0.117C0.081,-0.119 0.09,-0.117 0.101,-0.112C0.128,-0.099 0.153,-0.091 0.176,-0.086C0.199,-0.081 0.222,-0.078 0.245,-0.078C0.277,-0.078 0.301,-0.084 0.317,-0.095C0.332,-0.106 0.34,-0.12 0.34,-0.138C0.34,-0.153 0.335,-0.165 0.325,-0.173C0.314,-0.182 0.299,-0.188 0.278,-0.192L0.178,-0.211C0.137,-0.219 0.105,-0.234 0.084,-0.257C0.062,-0.279 0.051,-0.308 0.051,-0.343C0.051,-0.375 0.06,-0.403 0.078,-0.426C0.095,-0.449 0.12,-0.467 0.151,-0.48C0.182,-0.493 0.218,-0.499 0.259,-0.499C0.288,-0.499 0.316,-0.496 0.342,-0.49C0.367,-0.483 0.392,-0.473 0.416,-0.46C0.426,-0.455 0.433,-0.448 0.437,-0.439C0.44,-0.43 0.441,-0.422 0.439,-0.412C0.437,-0.404 0.433,-0.396 0.427,-0.389C0.421,-0.382 0.413,-0.377 0.405,-0.376C0.396,-0.374 0.385,-0.376 0.374,-0.381C0.353,-0.392 0.334,-0.399 0.315,-0.404C0.296,-0.409 0.277,-0.411 0.26,-0.411C0.227,-0.411 0.203,-0.405 0.188,-0.394C0.172,-0.383 0.164,-0.368 0.164,-0.349C0.164,-0.335 0.169,-0.323 0.178,-0.314C0.187,-0.305 0.202,-0.298 0.221,-0.295L0.321,-0.276C0.364,-0.268 0.397,-0.253 0.42,-0.232C0.442,-0.211 0.453,-0.182 0.453,-0.146C0.453,-0.097 0.434,-0.059 0.396,-0.032C0.358,-0.004 0.307,0.01 0.244,0.01Z" style="fill:rgb(74,5,157);fill-rule:nonzero;"/>
                </g>
            </g>
            <g transform="matrix(0.913619,-0.406572,0.406572,0.913619,0,0)">
                <g transform="matrix(37.3481,0,0,37.3481,197.908,805.96)">
                    <path d="M0.127,0.007C0.107,0.007 0.092,0.001 0.081,-0.011C0.07,-0.023 0.065,-0.04 0.065,-0.061L0.065,-0.428C0.065,-0.45 0.07,-0.467 0.081,-0.478C0.092,-0.49 0.107,-0.496 0.127,-0.496C0.147,-0.496 0.163,-0.49 0.173,-0.478C0.185,-0.467 0.19,-0.45 0.19,-0.428L0.19,-0.061C0.19,-0.04 0.185,-0.023 0.174,-0.011C0.163,0.001 0.148,0.007 0.127,0.007ZM0.127,-0.589C0.104,-0.589 0.086,-0.595 0.073,-0.607C0.059,-0.618 0.053,-0.634 0.053,-0.655C0.053,-0.676 0.059,-0.693 0.073,-0.704C0.086,-0.715 0.104,-0.721 0.127,-0.721C0.151,-0.721 0.169,-0.715 0.182,-0.704C0.195,-0.693 0.201,-0.676 0.201,-0.655C0.201,-0.634 0.195,-0.618 0.182,-0.607C0.169,-0.595 0.151,-0.589 0.127,-0.589Z" style="fill:rgb(74,5,157);fill-rule:nonzero;"/>
                </g>
            </g>
            <g transform="matrix(0.887779,-0.46027,0.46027,0.887779,0,0)">
                <g transform="matrix(37.348,0,0,37.348,160.021,817.091)">
                    <path d="M0.288,0.01C0.237,0.01 0.193,-0 0.156,-0.021C0.119,-0.042 0.09,-0.071 0.069,-0.11C0.048,-0.148 0.038,-0.193 0.038,-0.245C0.038,-0.284 0.044,-0.32 0.056,-0.35C0.067,-0.382 0.084,-0.408 0.106,-0.431C0.128,-0.453 0.154,-0.47 0.185,-0.482C0.216,-0.493 0.25,-0.499 0.288,-0.499C0.339,-0.499 0.383,-0.489 0.42,-0.468C0.457,-0.447 0.486,-0.418 0.507,-0.38C0.528,-0.342 0.538,-0.297 0.538,-0.245C0.538,-0.206 0.532,-0.17 0.521,-0.139C0.509,-0.108 0.492,-0.081 0.47,-0.059C0.448,-0.036 0.422,-0.019 0.391,-0.008C0.36,0.004 0.326,0.01 0.288,0.01ZM0.288,-0.085C0.313,-0.085 0.334,-0.091 0.353,-0.103C0.372,-0.115 0.386,-0.133 0.397,-0.157C0.407,-0.18 0.412,-0.21 0.412,-0.245C0.412,-0.298 0.401,-0.338 0.378,-0.365C0.355,-0.391 0.325,-0.404 0.288,-0.404C0.263,-0.404 0.242,-0.398 0.223,-0.387C0.204,-0.375 0.19,-0.357 0.18,-0.334C0.169,-0.31 0.164,-0.28 0.164,-0.245C0.164,-0.192 0.175,-0.153 0.198,-0.126C0.221,-0.099 0.251,-0.085 0.288,-0.085Z" style="fill:rgb(74,5,157);fill-rule:nonzero;"/>
                </g>
            </g>
            <g transform="matrix(0.846584,-0.532255,0.532255,0.846584,0,0)">
                <g transform="matrix(37.3481,0,0,37.3481,114.547,829.387)">
                    <path d="M0.127,0.008C0.107,0.008 0.092,0.002 0.081,-0.009C0.07,-0.02 0.065,-0.035 0.065,-0.056L0.065,-0.434C0.065,-0.455 0.07,-0.47 0.081,-0.481C0.092,-0.492 0.107,-0.497 0.126,-0.497C0.145,-0.497 0.16,-0.492 0.171,-0.481C0.182,-0.47 0.187,-0.455 0.187,-0.434L0.187,-0.366L0.176,-0.391C0.191,-0.426 0.214,-0.453 0.245,-0.471C0.276,-0.49 0.311,-0.499 0.35,-0.499C0.389,-0.499 0.422,-0.492 0.447,-0.477C0.472,-0.462 0.491,-0.44 0.504,-0.41C0.517,-0.381 0.523,-0.343 0.523,-0.298L0.523,-0.056C0.523,-0.035 0.518,-0.02 0.507,-0.009C0.496,0.002 0.481,0.008 0.461,0.008C0.441,0.008 0.426,0.002 0.414,-0.009C0.404,-0.02 0.398,-0.035 0.398,-0.056L0.398,-0.292C0.398,-0.33 0.391,-0.358 0.377,-0.375C0.362,-0.392 0.34,-0.401 0.31,-0.401C0.273,-0.401 0.244,-0.39 0.223,-0.367C0.201,-0.344 0.19,-0.313 0.19,-0.275L0.19,-0.056C0.19,-0.013 0.169,0.008 0.127,0.008Z" style="fill:rgb(74,5,157);fill-rule:nonzero;"/>
                </g>
            </g>
            <g transform="matrix(0.800933,-0.598754,0.598754,0.800933,0,0)">
                <g transform="matrix(37.3481,0,0,37.3481,70.4443,837.705)">
                    <path d="M0.226,0.01C0.191,0.01 0.159,0.003 0.132,-0.011C0.104,-0.024 0.082,-0.043 0.067,-0.066C0.051,-0.089 0.043,-0.116 0.043,-0.145C0.043,-0.181 0.052,-0.21 0.071,-0.231C0.09,-0.252 0.12,-0.267 0.162,-0.276C0.204,-0.285 0.26,-0.29 0.331,-0.29L0.381,-0.29L0.381,-0.218L0.332,-0.218C0.291,-0.218 0.258,-0.216 0.233,-0.212C0.208,-0.208 0.191,-0.201 0.181,-0.192C0.17,-0.182 0.165,-0.168 0.165,-0.151C0.165,-0.129 0.173,-0.111 0.188,-0.097C0.203,-0.083 0.225,-0.076 0.252,-0.076C0.274,-0.076 0.294,-0.081 0.311,-0.092C0.328,-0.102 0.341,-0.116 0.351,-0.134C0.361,-0.152 0.366,-0.173 0.366,-0.196L0.366,-0.311C0.366,-0.344 0.359,-0.368 0.344,-0.383C0.329,-0.398 0.305,-0.405 0.27,-0.405C0.251,-0.405 0.23,-0.403 0.207,-0.398C0.185,-0.393 0.162,-0.385 0.137,-0.374C0.124,-0.368 0.113,-0.366 0.103,-0.369C0.094,-0.372 0.086,-0.377 0.081,-0.386C0.076,-0.394 0.073,-0.403 0.073,-0.413C0.073,-0.423 0.076,-0.433 0.081,-0.443C0.086,-0.452 0.095,-0.459 0.108,-0.464C0.139,-0.477 0.168,-0.486 0.197,-0.491C0.225,-0.496 0.251,-0.499 0.274,-0.499C0.322,-0.499 0.362,-0.492 0.393,-0.477C0.424,-0.462 0.447,-0.44 0.462,-0.41C0.477,-0.381 0.485,-0.343 0.485,-0.296L0.485,-0.056C0.485,-0.035 0.48,-0.02 0.47,-0.009C0.46,0.002 0.446,0.008 0.427,0.008C0.408,0.008 0.394,0.002 0.384,-0.009C0.373,-0.02 0.368,-0.035 0.368,-0.056L0.368,-0.104L0.376,-0.104C0.371,-0.081 0.362,-0.061 0.348,-0.043C0.335,-0.027 0.318,-0.013 0.297,-0.004C0.276,0.005 0.253,0.01 0.226,0.01Z" style="fill:rgb(74,5,157);fill-rule:nonzero;"/>
                </g>
            </g>
            <g transform="matrix(0.762644,-0.646818,0.646818,0.762644,0,0)">
                <g transform="matrix(37.3481,0,0,37.3481,40.2396,841.606)">
                    <path d="M0.232,0.01C0.177,0.01 0.135,-0.006 0.107,-0.038C0.079,-0.069 0.065,-0.116 0.065,-0.177L0.065,-0.65C0.065,-0.671 0.07,-0.686 0.081,-0.697C0.092,-0.708 0.107,-0.713 0.127,-0.713C0.147,-0.713 0.163,-0.708 0.173,-0.697C0.185,-0.686 0.19,-0.671 0.19,-0.65L0.19,-0.183C0.19,-0.152 0.197,-0.13 0.21,-0.115C0.223,-0.1 0.241,-0.093 0.265,-0.093C0.27,-0.093 0.275,-0.093 0.28,-0.094C0.285,-0.094 0.289,-0.094 0.294,-0.095C0.303,-0.096 0.31,-0.094 0.313,-0.087C0.316,-0.081 0.318,-0.068 0.318,-0.049C0.318,-0.032 0.315,-0.019 0.308,-0.01C0.301,-0.001 0.29,0.005 0.275,0.007C0.268,0.008 0.261,0.008 0.254,0.009C0.247,0.01 0.239,0.01 0.232,0.01Z" style="fill:rgb(74,5,157);fill-rule:nonzero;"/>
                </g>
            </g>
        </g>
    </g>
</svg>
